<?xml version="1.0" encoding="UTF-8" standalone="no"?>
<svg id="svg2" xmlns:rdf="http://www.w3.org/1999/02/22-rdf-syntax-ns#" xmlns="http://www.w3.org/2000/svg" viewBox="0 0 761.71 266.18" version="1.1" xmlns:cc="http://creativecommons.org/ns#" xmlns:dc="http://purl.org/dc/elements/1.1/">
<title id="title4766">Encoder de Quadratura</title>
<defs id="defs4">
<marker id="a" refY="0" refX="0" orient="auto" overflow="visible">
<path id="path4310" d="m0 0 5-5-17.5 5 17.5 5-5-5z" fill-rule="evenodd" transform="matrix(-.4 0 0 -.4 -4 0)" stroke="#000" stroke-width="1pt"/>
</marker>
</defs>
<g id="layer1" transform="translate(25.941 -447.63)">
<text id="text2993" style="word-spacing:0px;letter-spacing:0px;writing-mode:tb-rl" xml:space="preserve" font-size="40px" y="733.15399" x="85.862968" font-family="Sans" line-height="125%" fill="#000000"><tspan id="tspan2995" x="733.15399" y="85.862968"/></text>
<text id="text3051" style="word-spacing:0px;letter-spacing:0px;writing-mode:tb-rl" xml:space="preserve" font-size="40px" y="788.79077" x="66.428574" font-family="Sans" line-height="125%" fill="#000000"><tspan id="tspan3059" x="788.79077" y="66.428574"/></text>
<text id="text3063" style="word-spacing:0px;letter-spacing:0px;writing-mode:tb-rl" xml:space="preserve" font-size="28px" y="788.79077" x="585" font-family="Sans" line-height="125%" fill="#000000"><tspan id="tspan3065" x="788.79077" y="585"/></text>
<path id="path4061" d="m149.47 530.77h60.67v-82.645h65.599v82.645h68.629v-82.645h70.69v82.645h72.537v-82.645h67.038v82.645h70.089v-82.645h69.13v82.645h41.416" stroke="#000" fill="none"/>
<path id="path4063" d="m176.74 630.87h66.67v-82.645h63.599v82.645h74.629v-82.645h136.69v82.645h71.68v-82.645h70.609v82.645h67.518" stroke="#000" fill="none"/>
<g id="text4099">
<path id="path3093" style="" d="m-25.941 671.93v-20.043h7.5195c1.5312 0.00002 2.7594 0.20282 3.6846 0.60839 0.92512 0.40562 1.6497 1.03 2.1738 1.873 0.52407 0.84312 0.78612 1.725 0.78613 2.6455-0.000017 0.85678-0.23244 1.6634-0.69727 2.4199-0.46486 0.75652-1.1667 1.3672-2.1055 1.832 1.2122 0.35548 2.1442 0.9616 2.7959 1.8184 0.65168 0.85678 0.97752 1.8685 0.97754 3.0352-0.000018 0.9388-0.19826 1.8115-0.59473 2.6182-0.3965 0.80664-0.88641 1.4287-1.4697 1.8662-0.58335 0.4375-1.3148 0.76791-2.1943 0.99121-0.87957 0.22331-1.9574 0.33496-3.2334 0.33496zm2.6523-11.621h4.334c1.1758 0.00001 2.0189-0.0775 2.5293-0.23242 0.67447-0.20051 1.1826-0.53319 1.5244-0.99805 0.34178-0.46483 0.51268-1.0482 0.5127-1.75-0.000013-0.66535-0.15952-1.251-0.47852-1.7568-0.31902-0.50585-0.77475-0.8522-1.3672-1.0391-0.59246-0.18683-1.6087-0.28025-3.0488-0.28027h-4.0059zm0 9.2559h4.9902c0.85676 0 1.4583-0.0319 1.8047-0.0957 0.61066-0.10938 1.1211-0.29167 1.5312-0.54688 0.41014-0.2552 0.74738-0.62662 1.0117-1.1143 0.26431-0.48762 0.39647-1.0504 0.39648-1.6885-0.000015-0.74739-0.19142-1.3968-0.57422-1.9482-0.38283-0.55143-0.91375-0.9388-1.5928-1.1621s-1.6566-0.33496-2.9326-0.33496h-4.6348z"/>
<path id="path3095" style="" d="m-8.3594 664.67c-0.000001-2.6888 0.74739-4.6803 2.2422-5.9746 1.2487-1.0755 2.7708-1.6133 4.5664-1.6133 1.9961 0.00001 3.6276 0.65398 4.8945 1.9619 1.2669 1.308 1.9004 3.1149 1.9004 5.4209-0.0000145 1.8685-0.28029 3.3382-0.84082 4.4092-0.56056 1.071-1.3763 1.9027-2.4473 2.4951-1.071 0.59245-2.2399 0.88867-3.5068 0.88867-2.0326 0-3.6755-0.65169-4.9287-1.9551-1.2533-1.3034-1.8799-3.181-1.8799-5.6328zm2.5293 0c-0.0000034 1.8594 0.4056 3.2516 1.2168 4.1768 0.81119 0.92513 1.832 1.3877 3.0625 1.3877 1.2213 0 2.2376-0.46484 3.0488-1.3945 0.81119-0.92968 1.2168-2.347 1.2168-4.252-0.000012-1.7956-0.40789-3.1559-1.2236-4.0811-0.81577-0.92511-1.8298-1.3877-3.042-1.3877-1.2305 0.00001-2.2513 0.4603-3.0625 1.3809-0.8112 0.92058-1.2168 2.3106-1.2168 4.1699z"/>
<path id="path3097" style="" d="m8.1152 671.93v-14.52h2.2148v2.2012c0.5651-1.0299 1.0869-1.709 1.5654-2.0371 0.47851-0.32811 1.0049-0.49218 1.5791-0.49219 0.82942 0.00001 1.6725 0.26434 2.5293 0.79297l-0.84766 2.2832c-0.60157-0.35546-1.2031-0.53319-1.8047-0.5332-0.53777 0.00001-1.0208 0.16179-1.4492 0.48535-0.42839 0.32358-0.73373 0.77247-0.91602 1.3467-0.27344 0.87501-0.41016 1.832-0.41016 2.8711v7.6016z"/>
<path id="path3099" style="" d="m26.914 671.93v-1.832c-0.92058 1.4401-2.2741 2.1602-4.0605 2.1602-1.1576 0-2.2217-0.31901-3.1924-0.95703-0.97071-0.63802-1.7227-1.529-2.2559-2.6728-0.5332-1.1439-0.79981-2.4587-0.7998-3.9443-0.000001-1.4492 0.24154-2.764 0.72461-3.9443s1.2077-2.085 2.1738-2.7139c0.96614-0.62889 2.0462-0.94335 3.2402-0.94336 0.87499 0.00001 1.6543 0.18458 2.3379 0.55371 0.68358 0.36915 1.2396 0.84995 1.668 1.4424v-7.1914h2.4473v20.043zm-7.7793-7.2461c-0.000004 1.8594 0.39192 3.2494 1.1758 4.1699 0.78385 0.92058 1.709 1.3809 2.7754 1.3809 1.0755 0 1.9892-0.43977 2.7412-1.3193 0.75194-0.87956 1.1279-2.2217 1.1279-4.0264-0.000011-1.987-0.38282-3.4453-1.1484-4.375-0.76564-0.92968-1.709-1.3945-2.8301-1.3945-1.0938 0.00001-2.0075 0.44662-2.7412 1.3398-0.73373 0.89324-1.1006 2.3014-1.1006 4.2246z"/>
<path id="path3101" style="" d="m42.555 670.14c-0.91147 0.77474-1.7887 1.3216-2.6318 1.6406-0.84311 0.31901-1.7477 0.47852-2.7139 0.47852-1.5951 0-2.821-0.38965-3.6777-1.169-0.85677-0.77929-1.2852-1.7751-1.2852-2.9873-0.000001-0.71093 0.16178-1.3604 0.48535-1.9482 0.32356-0.58789 0.74739-1.0596 1.2715-1.415 0.52408-0.35546 1.1143-0.62434 1.7705-0.80664 0.48307-0.1276 1.2122-0.25064 2.1875-0.36914 1.987-0.23697 3.4499-0.51953 4.3887-0.84766 0.0091-0.33723 0.01366-0.55142 0.01367-0.64258-0.000012-1.0026-0.23243-1.709-0.69727-2.1191-0.62892-0.55597-1.5632-0.83397-2.8027-0.83398-1.1576 0.00001-2.012 0.20281-2.5635 0.6084-0.55144 0.40561-0.95931 1.1234-1.2236 2.1533l-2.4062-0.32813c0.21875-1.0299 0.57877-1.8616 1.0801-2.4951 0.5013-0.63345 1.2259-1.1211 2.1738-1.4629 0.94791-0.34178 2.0462-0.51268 3.2949-0.51269 1.2396 0.00001 2.2467 0.14585 3.0215 0.4375 0.77473 0.29168 1.3444 0.65854 1.709 1.1006 0.36457 0.44207 0.61978 1.0003 0.76562 1.6748 0.08202 0.41928 0.12303 1.1758 0.12305 2.2695v3.2812c-0.000014 2.2878 0.0524 3.7347 0.15723 4.3408 0.1048 0.60612 0.31216 1.1872 0.62207 1.7432h-2.5703c-0.25522-0.51041-0.41928-1.1074-0.49219-1.791zm-0.20508-5.4961c-0.89324 0.36459-2.2331 0.67448-4.0195 0.92968-1.0117 0.14584-1.7272 0.3099-2.1465 0.49219-0.41928 0.1823-0.74284 0.4489-0.9707 0.79981-0.22787 0.35091-0.3418 0.74056-0.3418 1.1689-0.000004 0.65625 0.24837 1.2031 0.74512 1.6406 0.49674 0.4375 1.2236 0.65625 2.1807 0.65625 0.94791 0 1.791-0.20736 2.5293-0.62207 0.73827-0.41472 1.2806-0.9821 1.627-1.7022 0.26431-0.55599 0.39647-1.3763 0.39648-2.4609z"/>
<path id="path3103" style="" d="m65.852 671.93v-1.832c-0.92058 1.4401-2.2741 2.1602-4.0605 2.1602-1.1576 0-2.2217-0.31901-3.1924-0.95703-0.97071-0.63802-1.7227-1.529-2.2559-2.6728-0.5332-1.1439-0.79981-2.4587-0.7998-3.9443-0.000001-1.4492 0.24154-2.764 0.72461-3.9443s1.2077-2.085 2.1738-2.7139c0.96614-0.62889 2.0462-0.94335 3.2402-0.94336 0.87499 0.00001 1.6543 0.18458 2.3379 0.55371 0.68358 0.36915 1.2396 0.84995 1.668 1.4424v-7.1914h2.4473v20.043zm-7.7793-7.2461c-0.000004 1.8594 0.39192 3.2494 1.1758 4.1699 0.78385 0.92058 1.709 1.3809 2.7754 1.3809 1.0755 0 1.9892-0.43977 2.7412-1.3193 0.75194-0.87956 1.1279-2.2217 1.1279-4.0264-0.000011-1.987-0.38282-3.4453-1.1484-4.375-0.76564-0.92968-1.709-1.3945-2.8301-1.3945-1.0938 0.00001-2.0075 0.44662-2.7412 1.3398-0.73373 0.89324-1.1006 2.3014-1.1006 4.2246z"/>
<path id="path3105" style="" d="m81.957 667.26 2.543 0.31446c-0.40106 1.4857-1.1439 2.6387-2.2285 3.459-1.0846 0.82031-2.4701 1.2305-4.1562 1.2305-2.1237 0-3.8076-0.65397-5.0518-1.9619-1.2441-1.3079-1.8662-3.1422-1.8662-5.5029-0.000001-2.4427 0.6289-4.3385 1.8867-5.6875s2.8893-2.0234 4.8945-2.0234c1.9414 0.00001 3.5273 0.66082 4.7578 1.9824s1.8457 3.181 1.8457 5.5781c-0.000015 0.14584-0.0046 0.36459-0.01367 0.65625h-10.828c0.09114 1.595 0.54231 2.8164 1.3535 3.6641 0.81119 0.84766 1.8229 1.2715 3.0352 1.2715 0.90233 0 1.6725-0.23697 2.3105-0.71094 0.63801-0.47395 1.1439-1.2305 1.5176-2.2695zm-8.0801-3.9785h8.1074c-0.10939-1.2214-0.41928-2.1374-0.92969-2.748-0.78386-0.9479-1.8001-1.4219-3.0488-1.4219-1.1302 0.00001-2.0804 0.37826-2.8506 1.1348-0.77019 0.75652-1.1963 1.7682-1.2783 3.0352z"/>
<path id="path3107" style="" d="m94.385 667.6 2.4336-0.38281c0.13672 0.97526 0.51725 1.7227 1.1416 2.2422 0.62434 0.51953 1.4971 0.77929 2.6182 0.77929 1.1302 0 1.9687-0.23014 2.5156-0.69043 0.54686-0.46028 0.8203-1.0003 0.82031-1.6201-0.00001-0.55599-0.24155-0.99349-0.72461-1.3125-0.33725-0.21875-1.1758-0.49674-2.5156-0.83399-1.8047-0.45572-3.0557-0.84993-3.7529-1.1826-0.69727-0.33267-1.2259-0.79296-1.5859-1.3809-0.36003-0.58788-0.54004-1.2373-0.54004-1.9482-0.000001-0.64712 0.14811-1.2464 0.44434-1.7978 0.29622-0.55142 0.69954-1.0094 1.21-1.374 0.38281-0.28254 0.90462-0.5218 1.5654-0.71778 0.6608-0.19594 1.3695-0.29393 2.126-0.29394 1.1393 0.00001 2.1396 0.16408 3.001 0.49219 0.86131 0.32814 1.4971 0.77247 1.9072 1.333 0.41015 0.56056 0.6927 1.3102 0.84766 2.249l-2.4062 0.32812c-0.10939-0.74738-0.42612-1.3307-0.9502-1.75-0.52409-0.41926-1.2646-0.62889-2.2217-0.6289-1.1302 0.00001-1.9368 0.18686-2.4199 0.56054-0.48308 0.37371-0.72461 0.81121-0.72461 1.3125-0.000003 0.31902 0.10026 0.60613 0.30078 0.86133 0.20052 0.26433 0.51497 0.48308 0.94336 0.65625 0.24609 0.0912 0.9707 0.30079 2.1738 0.62891 1.7409 0.46485 2.9554 0.84538 3.6436 1.1416 0.68814 0.29623 1.2282 0.72689 1.6201 1.292 0.39192 0.56511 0.58788 1.2669 0.58789 2.1055-0.00001 0.82032-0.23927 1.5928-0.71777 2.3174-0.47853 0.72461-1.169 1.2852-2.0713 1.6816-0.90235 0.39649-1.9232 0.59473-3.0625 0.59473-1.8867 0-3.3245-0.39193-4.3135-1.1758-0.98893-0.78385-1.6201-1.946-1.8936-3.4863z"/>
<path id="path3109" style="" d="m118.88 671.93v-2.1328c-1.1302 1.6406-2.666 2.4609-4.6074 2.4609-0.85678 0-1.6566-0.16406-2.3994-0.49219-0.74284-0.32812-1.2943-0.74056-1.6543-1.2373-0.36003-0.49675-0.61296-1.1051-0.75879-1.8252-0.10026-0.48307-0.15039-1.2487-0.15039-2.2969v-8.9961h2.4609v8.0527c-0.00001 1.2852 0.0501 2.151 0.15039 2.5976 0.15494 0.64714 0.48306 1.1553 0.98437 1.5244 0.5013 0.36914 1.1211 0.55371 1.8594 0.55371 0.73827 0 1.431-0.18913 2.0781-0.56738 0.64713-0.37826 1.1051-0.89323 1.374-1.5449 0.26887-0.65168 0.40331-1.5973 0.40333-2.8369v-7.7793h2.4609v14.52z"/>
<path id="path3111" style="" d="m127.22 671.93h-2.2832v-20.043h2.4609v7.1504c1.0391-1.3034 2.3652-1.9551 3.9785-1.9551 0.89322 0.00001 1.7386 0.18003 2.5361 0.54004 0.79751 0.36004 1.4538 0.8659 1.9688 1.5176 0.51496 0.6517 0.91828 1.4378 1.21 2.3584 0.29165 0.92059 0.43748 1.905 0.4375 2.9531-0.00002 2.4883-0.61525 4.4115-1.8457 5.7695-1.2305 1.3581-2.707 2.0371-4.4297 2.0371-1.7136 0-3.058-0.71549-4.0332-2.1465zm-0.0273-7.3691c0 1.7409 0.23698 2.9987 0.71094 3.7734 0.77473 1.2669 1.8229 1.9004 3.1445 1.9004 1.0755 0 2.0052-0.46712 2.7891-1.4014 0.78384-0.93425 1.1758-2.3265 1.1758-4.1768-0.00001-1.8958-0.37598-3.2949-1.1279-4.1973-0.75196-0.90233-1.6611-1.3535-2.7275-1.3535-1.0755 0.00001-2.0052 0.46713-2.7891 1.4014-0.78386 0.93426-1.1758 2.2855-1.1758 4.0537z"/>
<path id="path3113" style="" d="m140.55 654.72v-2.8301h2.4609v2.8301zm0 17.213v-14.52h2.4609v14.52z"/>
<path id="path3115" style="" d="m156.2 671.93v-1.832c-0.92059 1.4401-2.2741 2.1602-4.0606 2.1602-1.1576 0-2.2217-0.31901-3.1924-0.95703-0.97071-0.63802-1.7227-1.529-2.2559-2.6728-0.53321-1.1439-0.79981-2.4587-0.79981-3.9443 0-1.4492 0.24154-2.764 0.72461-3.9443s1.2077-2.085 2.1738-2.7139c0.96614-0.62889 2.0462-0.94335 3.2402-0.94336 0.87499 0.00001 1.6543 0.18458 2.3379 0.55371 0.68358 0.36915 1.2396 0.84995 1.668 1.4424v-7.1914h2.4473v20.043zm-7.7793-7.2461c0 1.8594 0.39192 3.2494 1.1758 4.1699 0.78385 0.92058 1.709 1.3809 2.7754 1.3809 1.0755 0 1.9892-0.43977 2.7412-1.3193 0.75195-0.87956 1.1279-2.2217 1.1279-4.0264-0.00001-1.987-0.38282-3.4453-1.1484-4.375-0.76564-0.92968-1.709-1.3945-2.8301-1.3945-1.0938 0.00001-2.0075 0.44662-2.7412 1.3398-0.73373 0.89324-1.1006 2.3014-1.1006 4.2246z"/>
<path id="path3117" style="" d="m171.84 670.14c-0.91147 0.77474-1.7887 1.3216-2.6318 1.6406-0.84311 0.31901-1.7477 0.47852-2.7139 0.47852-1.5951 0-2.821-0.38965-3.6777-1.169-0.85678-0.77929-1.2852-1.7751-1.2852-2.9873 0-0.71093 0.16178-1.3604 0.48535-1.9482 0.32357-0.58789 0.74739-1.0596 1.2715-1.415 0.52409-0.35546 1.1143-0.62434 1.7705-0.80664 0.48307-0.1276 1.2122-0.25064 2.1875-0.36914 1.987-0.23697 3.4499-0.51953 4.3887-0.84766 0.009-0.33723 0.0137-0.55142 0.0137-0.64258-0.00001-1.0026-0.23244-1.709-0.69727-2.1191-0.62892-0.55597-1.5632-0.83397-2.8027-0.83398-1.1576 0.00001-2.012 0.20281-2.5635 0.6084-0.55144 0.40561-0.95931 1.1234-1.2236 2.1533l-2.4062-0.32813c0.21875-1.0299 0.57877-1.8616 1.0801-2.4951 0.50129-0.63345 1.2259-1.1211 2.1738-1.4629 0.94791-0.34178 2.0462-0.51268 3.2949-0.51269 1.2396 0.00001 2.2467 0.14585 3.0215 0.4375 0.77473 0.29168 1.3444 0.65854 1.709 1.1006 0.36457 0.44207 0.61978 1.0003 0.76563 1.6748 0.082 0.41928 0.12303 1.1758 0.12305 2.2695v3.2812c-0.00002 2.2878 0.0524 3.7347 0.15722 4.3408 0.10481 0.60612 0.31216 1.1872 0.62207 1.7432h-2.5703c-0.25522-0.51041-0.41928-1.1074-0.49219-1.791zm-0.20508-5.4961c-0.89323 0.36459-2.2331 0.67448-4.0195 0.92968-1.0117 0.14584-1.7272 0.3099-2.1465 0.49219-0.41928 0.1823-0.74284 0.4489-0.9707 0.79981-0.22787 0.35091-0.3418 0.74056-0.3418 1.1689 0 0.65625 0.24837 1.2031 0.74512 1.6406 0.49674 0.4375 1.2236 0.65625 2.1807 0.65625 0.94791 0 1.791-0.20736 2.5293-0.62207 0.73827-0.41472 1.2806-0.9821 1.627-1.7022 0.26431-0.55599 0.39647-1.3763 0.39648-2.4609z"/>
<path id="path3119" style="" d="m178.63 660.22v-2.8027h2.8027v2.8027zm0 11.717v-2.8027h2.8027v2.8027z"/>
</g>
<g id="text4105">
<path id="path3084" style="" d="m623.36 711.03v-2.4746h7.5606v2.4746z"/>
<path id="path3086" style="" d="m483.36 711.03v-2.4746h7.5606v2.4746z"/>
<path id="path3088" style="" d="m345.98 713.81v-5.4961h-5.4551v-2.2969h5.4551v-5.4551h2.3242v5.4551h5.4551v2.2969h-5.4551v5.4961z"/>
<path id="path3090" style="" d="m205.98 713.81v-5.4961h-5.4551v-2.2969h5.4551v-5.4551h2.3242v5.4551h5.4551v2.2969h-5.4551v5.4961z"/>
</g>
<g id="text4139">
<path id="path3071" style="" d="m100.45 712.65v-20.043h7.5605c1.3307 0.00002 2.347 0.0638 3.0488 0.19141 0.98436 0.16408 1.8092 0.47625 2.4746 0.93652 0.66535 0.46031 1.2008 1.1052 1.6064 1.9346 0.40558 0.82944 0.60838 1.7409 0.60839 2.7344-0.00001 1.7044-0.54233 3.1468-1.627 4.3271-1.0846 1.1804-3.0443 1.7705-5.8789 1.7705h-5.1406v8.1484zm2.6523-10.514h5.1816c1.7135 0.00001 2.9303-0.319 3.6504-0.95703 0.72004-0.63801 1.0801-1.5358 1.0801-2.6934-0.00002-0.83853-0.21193-1.5563-0.63574-2.1533-0.42385-0.59699-0.98211-0.9912-1.6748-1.1826-0.44662-0.11847-1.2715-0.17772-2.4746-0.17774h-5.127z"/>
<path id="path3073" style="" d="m128.32 710.86c-0.91147 0.77474-1.7888 1.3216-2.6318 1.6406-0.84311 0.31901-1.7477 0.47851-2.7139 0.47851-1.595 0-2.821-0.38964-3.6777-1.1689-0.85677-0.7793-1.2852-1.7751-1.2852-2.9873 0-0.71093 0.16179-1.3603 0.48535-1.9482 0.32357-0.58788 0.7474-1.0596 1.2715-1.415 0.52408-0.35546 1.1142-0.62434 1.7705-0.80664 0.48306-0.12759 1.2122-0.25064 2.1875-0.36914 1.987-0.23697 3.4499-0.51952 4.3887-0.84765 0.009-0.33723 0.0137-0.55143 0.0137-0.64258-0.00001-1.0026-0.23243-1.709-0.69726-2.1191-0.62892-0.55598-1.5632-0.83397-2.8027-0.83399-1.1576 0.00002-2.012 0.20281-2.5635 0.6084-0.55143 0.40561-0.95931 1.1234-1.2236 2.1533l-2.4062-0.32812c0.21875-1.0299 0.57878-1.8616 1.0801-2.4951 0.5013-0.63345 1.2259-1.1211 2.1738-1.4629 0.94791-0.34178 2.0462-0.51268 3.2949-0.5127 1.2396 0.00002 2.2467 0.14585 3.0215 0.4375 0.77473 0.29168 1.3444 0.65855 1.709 1.1006 0.36457 0.44207 0.61978 1.0003 0.76562 1.6748 0.082 0.41929 0.12304 1.1758 0.12305 2.2695v3.2812c-0.00001 2.2878 0.0524 3.7347 0.15723 4.3408 0.1048 0.60612 0.31216 1.1872 0.62207 1.7432h-2.5703c-0.25522-0.51042-0.41928-1.1074-0.49218-1.791zm-0.20508-5.4961c-0.89324 0.36459-2.2331 0.67449-4.0195 0.92969-1.0117 0.14584-1.7272 0.3099-2.1465 0.49218-0.41927 0.1823-0.74284 0.4489-0.9707 0.79981-0.22787 0.35092-0.3418 0.74056-0.3418 1.1689 0 0.65626 0.24837 1.2031 0.74512 1.6406 0.49674 0.4375 1.2236 0.65625 2.1807 0.65625 0.94791 0 1.791-0.20736 2.5293-0.62207 0.73827-0.41471 1.2806-0.98209 1.627-1.7022 0.26432-0.55598 0.39648-1.3763 0.39649-2.4609z"/>
<path id="path3075" style="" d="m133.44 708.31 2.4336-0.38281c0.13672 0.97527 0.51725 1.7227 1.1416 2.2422 0.62434 0.51953 1.4971 0.7793 2.6182 0.7793 1.1302 0 1.9687-0.23014 2.5156-0.69043 0.54687-0.46029 0.82031-1.0003 0.82032-1.6201-0.00001-0.55599-0.24155-0.99348-0.72461-1.3125-0.33725-0.21874-1.1758-0.49674-2.5156-0.83398-1.8047-0.45573-3.0557-0.84993-3.7529-1.1826-0.69727-0.33268-1.2259-0.79296-1.5859-1.3809-0.36003-0.58788-0.54004-1.2373-0.54004-1.9482 0-0.64713 0.14811-1.2464 0.44433-1.7978 0.29622-0.55142 0.69954-1.0094 1.21-1.374 0.38281-0.28254 0.90462-0.52179 1.5654-0.71777 0.66081-0.19595 1.3695-0.29393 2.126-0.29395 1.1393 0.00002 2.1396 0.16408 3.001 0.49219 0.86131 0.32814 1.4971 0.77247 1.9072 1.333 0.41015 0.56056 0.6927 1.3102 0.84766 2.249l-2.4062 0.32813c-0.10939-0.74739-0.42612-1.3307-0.9502-1.75-0.52409-0.41926-1.2646-0.6289-2.2217-0.62891-1.1302 0.00001-1.9368 0.18686-2.4199 0.56055-0.48307 0.37371-0.72461 0.81121-0.72461 1.3125 0 0.31902 0.10026 0.60613 0.30078 0.86133 0.20052 0.26433 0.51497 0.48308 0.94336 0.65625 0.24609 0.0911 0.9707 0.30079 2.1738 0.6289 1.7409 0.46485 2.9554 0.84539 3.6436 1.1416 0.68814 0.29623 1.2282 0.7269 1.6201 1.292 0.39192 0.56511 0.58788 1.2669 0.58789 2.1055-0.00001 0.82032-0.23927 1.5928-0.71777 2.3174-0.47853 0.72461-1.169 1.2852-2.0713 1.6816-0.90235 0.39648-1.9232 0.59472-3.0625 0.59472-1.8867 0-3.3246-0.39192-4.3135-1.1758-0.98893-0.78385-1.6201-1.946-1.8936-3.4863z"/>
<path id="path3077" style="" d="m147.44 708.31 2.4336-0.38281c0.13672 0.97527 0.51725 1.7227 1.1416 2.2422 0.62434 0.51953 1.4971 0.7793 2.6182 0.7793 1.1302 0 1.9687-0.23014 2.5156-0.69043 0.54687-0.46029 0.82031-1.0003 0.82032-1.6201-0.00001-0.55599-0.24155-0.99348-0.72461-1.3125-0.33725-0.21874-1.1758-0.49674-2.5156-0.83398-1.8047-0.45573-3.0557-0.84993-3.7529-1.1826-0.69727-0.33268-1.2259-0.79296-1.5859-1.3809-0.36003-0.58788-0.54004-1.2373-0.54004-1.9482 0-0.64713 0.14811-1.2464 0.44433-1.7978 0.29622-0.55142 0.69954-1.0094 1.21-1.374 0.38281-0.28254 0.90462-0.52179 1.5654-0.71777 0.66081-0.19595 1.3695-0.29393 2.126-0.29395 1.1393 0.00002 2.1396 0.16408 3.001 0.49219 0.86131 0.32814 1.4971 0.77247 1.9072 1.333 0.41015 0.56056 0.6927 1.3102 0.84766 2.249l-2.4062 0.32813c-0.10939-0.74739-0.42612-1.3307-0.9502-1.75-0.52409-0.41926-1.2646-0.6289-2.2217-0.62891-1.1302 0.00001-1.9368 0.18686-2.4199 0.56055-0.48307 0.37371-0.72461 0.81121-0.72461 1.3125 0 0.31902 0.10026 0.60613 0.30078 0.86133 0.20052 0.26433 0.51497 0.48308 0.94336 0.65625 0.24609 0.0911 0.9707 0.30079 2.1738 0.6289 1.7409 0.46485 2.9554 0.84539 3.6436 1.1416 0.68814 0.29623 1.2282 0.7269 1.6201 1.292 0.39192 0.56511 0.58788 1.2669 0.58789 2.1055-0.00001 0.82032-0.23927 1.5928-0.71777 2.3174-0.47853 0.72461-1.169 1.2852-2.0713 1.6816-0.90235 0.39648-1.9232 0.59472-3.0625 0.59472-1.8867 0-3.3246-0.39192-4.3135-1.1758-0.98893-0.78385-1.6201-1.946-1.8936-3.4863z"/>
<path id="path3079" style="" d="m161.51 705.39c0-2.6888 0.74739-4.6803 2.2422-5.9746 1.2487-1.0755 2.7708-1.6133 4.5664-1.6133 1.9961 0.00002 3.6276 0.65399 4.8945 1.9619 1.2669 1.308 1.9004 3.1149 1.9004 5.4209-0.00002 1.8685-0.28029 3.3382-0.84083 4.4092-0.56056 1.071-1.3763 1.9027-2.4473 2.4951-1.071 0.59245-2.2399 0.88867-3.5068 0.88867-2.0326 0-3.6755-0.65169-4.9287-1.9551s-1.8799-3.181-1.8799-5.6328zm2.5293 0c-0.00001 1.8594 0.40559 3.2516 1.2168 4.1768 0.8112 0.92513 1.832 1.3877 3.0625 1.3877 1.2214 0 2.2376-0.46484 3.0488-1.3945 0.81119-0.92969 1.2168-2.347 1.2168-4.252-0.00001-1.7956-0.40789-3.1559-1.2236-4.081-0.81577-0.92512-1.8298-1.3877-3.042-1.3877-1.2305 0.00002-2.2513 0.4603-3.0625 1.3809-0.8112 0.92059-1.2168 2.3106-1.2168 4.1699z"/>
<path id="path3081" style="" d="m178.7 700.93v-2.8027h2.8027v2.8027zm0 11.717v-2.8027h2.8027v2.8027z"/>
</g>
<path id="path4296" d="m624.29 539.51v134.29" stroke="#000" stroke-dasharray="8, 4" fill="none"/>
<path id="path4742" d="m487.86 539.51v134.29" stroke="#000" stroke-dasharray="8, 4" fill="none"/>
<path id="path4744" d="m345 539.51v134.29" stroke="#000" stroke-dasharray="8, 4" fill="none"/>
<path id="path4746" d="m210 539.51v134.29" stroke="#000" stroke-dasharray="8, 4" fill="none"/>
<path id="path4950" marker-end="url(#a)" d="m209.61 530.62v-76.772" stroke="#000" stroke-width="3.5" fill="none"/>
<path id="path6444" marker-end="url(#a)" d="m343.96 530.62v-76.772" stroke="#000" stroke-width="3.5" fill="none"/>
<path id="path6446" marker-end="url(#a)" d="m487.9 530.62v-76.772" stroke="#000" stroke-width="3.5" fill="none"/>
<path id="path6448" marker-end="url(#a)" d="m624.78 530.62v-76.772" stroke="#000" stroke-width="3.5" fill="none"/>
</g>
</svg>
