<?xml version="1.0" encoding="UTF-8" standalone="no"?>
<svg id="svg2" xmlns:rdf="http://www.w3.org/1999/02/22-rdf-syntax-ns#" xmlns="http://www.w3.org/2000/svg" viewBox="0 0 732.7 328.92" version="1.1" xmlns:cc="http://creativecommons.org/ns#" xmlns:dc="http://purl.org/dc/elements/1.1/">
<title id="title4766">Encoder de Quadratura</title>
<g id="layer1" transform="translate(-8.7857 -49.056)">
<path id="path2989" d="m155.18 132.2h60.67v-82.645h65.599v82.645h68.629v-82.645h70.69v82.645h72.537v-82.645h67.038v82.645h70.089v-82.645h69.13v82.645h41.416" stroke="#000" fill="none"/>
<path id="path2991" d="m182.46 232.3h66.67v-82.645h63.599v82.645h74.629v-82.645h136.69v82.645h71.68v-82.645h70.609v82.645h67.518" stroke="#000" fill="none"/>
<text id="text2993" style="word-spacing:0px;letter-spacing:0px;writing-mode:tb-rl" xml:space="preserve" font-size="40px" line-height="125%" y="733.15399" x="85.862968" font-family="Sans" fill="#000000"><tspan id="tspan2995" y="85.862968" x="733.15399"/></text>
<g id="text2999">
<path id="path3208" d="m712.22 258.71c0-2.3698 0.24381-4.277 0.73144-5.7217 0.48763-1.4446 1.2122-2.5589 2.1738-3.3428 0.96158-0.78384 2.1715-1.1758 3.6299-1.1758 1.0755 0.00002 2.0189 0.2165 2.8301 0.64942 0.81119 0.43296 1.4811 1.0573 2.0098 1.873 0.52863 0.81577 0.94334 1.8093 1.2441 2.9805 0.30077 1.1712 0.45116 2.7503 0.45117 4.7373-0.00001 2.3516-0.24155 4.2497-0.72461 5.6943-0.48309 1.4447-1.2054 2.5612-2.167 3.3496-0.9616 0.78842-2.1761 1.1826-3.6436 1.1826-1.9323 0-3.4499-0.69271-4.5527-2.0781-1.3216-1.668-1.9824-4.3841-1.9824-8.1484zm2.5293 0c0 3.2904 0.38509 5.4802 1.1553 6.5693 0.77017 1.0892 1.7204 1.6338 2.8506 1.6338 1.1302 0.00001 2.0804-0.54687 2.8506-1.6406 0.77017-1.0938 1.1553-3.2812 1.1553-6.5625-0.00001-3.2995-0.3851-5.4915-1.1553-6.5762-0.77019-1.0846-1.7295-1.6269-2.8779-1.627-1.1302 0.00002-2.0326 0.47854-2.707 1.4356-0.84766 1.2214-1.2715 3.4772-1.2715 6.7676z"/>
<path id="path3210" d="m712.22 290.04c0-2.3698 0.24381-4.277 0.73144-5.7217 0.48763-1.4446 1.2122-2.5589 2.1738-3.3428 0.96158-0.78383 2.1715-1.1758 3.6299-1.1758 1.0755 0.00002 2.0189 0.21649 2.8301 0.64942 0.81119 0.43296 1.4811 1.0573 2.0098 1.873 0.52863 0.81578 0.94334 1.8093 1.2441 2.9805 0.30077 1.1712 0.45116 2.7503 0.45117 4.7373-0.00001 2.3516-0.24155 4.2497-0.72461 5.6943-0.48309 1.4447-1.2054 2.5612-2.167 3.3496-0.9616 0.78841-2.1761 1.1826-3.6436 1.1826-1.9323 0-3.4499-0.69271-4.5527-2.0781-1.3216-1.668-1.9824-4.3841-1.9824-8.1484zm2.5293 0c0 3.2904 0.38509 5.4801 1.1553 6.5693 0.77017 1.0892 1.7204 1.6338 2.8506 1.6338s2.0804-0.54687 2.8506-1.6406c0.77017-1.0938 1.1553-3.2812 1.1553-6.5625-0.00001-3.2995-0.3851-5.4915-1.1553-6.5762-0.77019-1.0846-1.7295-1.6269-2.8779-1.627-1.1302 0.00002-2.0326 0.47853-2.707 1.4356-0.84766 1.2214-1.2715 3.4772-1.2715 6.7676z"/>
<path id="path3212" d="m686.49 268.59h-2.4609v-15.682c-0.59245 0.56512-1.3695 1.1302-2.331 1.6953-0.9616 0.56511-1.8252 0.98894-2.5908 1.2715v-2.3789c1.3763-0.64711 2.5794-1.431 3.6094-2.3516 1.0299-0.92055 1.7591-1.8138 2.1875-2.6797h1.5859z"/>
<path id="path3214" d="m677.22 290.04c0-2.3698 0.24381-4.277 0.73144-5.7217 0.48763-1.4446 1.2122-2.5589 2.1738-3.3428 0.96158-0.78383 2.1715-1.1758 3.6299-1.1758 1.0755 0.00002 2.0189 0.21649 2.8301 0.64942 0.81119 0.43296 1.4811 1.0573 2.0098 1.873 0.52863 0.81578 0.94334 1.8093 1.2441 2.9805 0.30077 1.1712 0.45116 2.7503 0.45117 4.7373-0.00001 2.3516-0.24155 4.2497-0.72461 5.6943-0.48309 1.4447-1.2054 2.5612-2.167 3.3496-0.9616 0.78841-2.1761 1.1826-3.6436 1.1826-1.9323 0-3.4499-0.69271-4.5527-2.0781-1.3216-1.668-1.9824-4.3841-1.9824-8.1484zm2.5293 0c0 3.2904 0.38509 5.4801 1.1553 6.5693 0.77017 1.0892 1.7204 1.6338 2.8506 1.6338s2.0804-0.54687 2.8506-1.6406c0.77017-1.0938 1.1553-3.2812 1.1553-6.5625-0.00001-3.2995-0.3851-5.4915-1.1553-6.5762-0.77019-1.0846-1.7295-1.6269-2.8779-1.627-1.1302 0.00002-2.0326 0.47853-2.707 1.4356-0.84766 1.2214-1.2715 3.4772-1.2715 6.7676z"/>
<path id="path3216" d="m651.49 268.59h-2.4609v-15.682c-0.59245 0.56512-1.3695 1.1302-2.331 1.6953-0.9616 0.56511-1.8252 0.98894-2.5908 1.2715v-2.3789c1.3763-0.64711 2.5794-1.431 3.6094-2.3516 1.0299-0.92055 1.7591-1.8138 2.1875-2.6797h1.5859z"/>
<path id="path3218" d="m651.49 299.93h-2.4609v-15.682c-0.59245 0.56512-1.3695 1.1302-2.331 1.6953-0.9616 0.56512-1.8252 0.98895-2.5908 1.2715v-2.3789c1.3763-0.64712 2.5794-1.431 3.6094-2.3516 1.0299-0.92055 1.7591-1.8138 2.1875-2.6797h1.5859z"/>
<path id="path3220" d="m607.22 258.71c0-2.3698 0.24381-4.277 0.73144-5.7217 0.48763-1.4446 1.2122-2.5589 2.1738-3.3428 0.96158-0.78384 2.1715-1.1758 3.6299-1.1758 1.0755 0.00002 2.0189 0.2165 2.8301 0.64942 0.81119 0.43296 1.4811 1.0573 2.0098 1.873 0.52863 0.81577 0.94334 1.8093 1.2441 2.9805 0.30077 1.1712 0.45116 2.7503 0.45117 4.7373-0.00001 2.3516-0.24155 4.2497-0.72461 5.6943-0.48309 1.4447-1.2054 2.5612-2.167 3.3496-0.9616 0.78842-2.1761 1.1826-3.6436 1.1826-1.9323 0-3.4499-0.69271-4.5527-2.0781-1.3216-1.668-1.9824-4.3841-1.9824-8.1484zm2.5293 0c0 3.2904 0.38509 5.4802 1.1553 6.5693 0.77017 1.0892 1.7204 1.6338 2.8506 1.6338 1.1302 0.00001 2.0804-0.54687 2.8506-1.6406 0.77017-1.0938 1.1553-3.2812 1.1553-6.5625-0.00001-3.2995-0.3851-5.4915-1.1553-6.5762-0.77019-1.0846-1.7295-1.6269-2.8779-1.627-1.1302 0.00002-2.0326 0.47854-2.707 1.4356-0.84766 1.2214-1.2715 3.4772-1.2715 6.7676z"/>
<path id="path3222" d="m616.49 299.93h-2.4609v-15.682c-0.59245 0.56512-1.3695 1.1302-2.331 1.6953-0.9616 0.56512-1.8252 0.98895-2.5908 1.2715v-2.3789c1.3763-0.64712 2.5794-1.431 3.6094-2.3516 1.0299-0.92055 1.7591-1.8138 2.1875-2.6797h1.5859z"/>
<path id="path3224" d="m572.22 258.71c0-2.3698 0.24381-4.277 0.73144-5.7217 0.48763-1.4446 1.2122-2.5589 2.1738-3.3428 0.96158-0.78384 2.1715-1.1758 3.6299-1.1758 1.0755 0.00002 2.0189 0.2165 2.8301 0.64942 0.81119 0.43296 1.4811 1.0573 2.0098 1.873 0.52863 0.81577 0.94334 1.8093 1.2441 2.9805 0.30077 1.1712 0.45116 2.7503 0.45117 4.7373-0.00001 2.3516-0.24155 4.2497-0.72461 5.6943-0.48309 1.4447-1.2054 2.5612-2.167 3.3496-0.9616 0.78842-2.1761 1.1826-3.6436 1.1826-1.9323 0-3.4499-0.69271-4.5527-2.0781-1.3216-1.668-1.9824-4.3841-1.9824-8.1484zm2.5293 0c0 3.2904 0.38509 5.4802 1.1553 6.5693 0.77017 1.0892 1.7204 1.6338 2.8506 1.6338 1.1302 0.00001 2.0804-0.54687 2.8506-1.6406 0.77017-1.0938 1.1553-3.2812 1.1553-6.5625-0.00001-3.2995-0.3851-5.4915-1.1553-6.5762-0.77019-1.0846-1.7295-1.6269-2.8779-1.627-1.1302 0.00002-2.0326 0.47854-2.707 1.4356-0.84766 1.2214-1.2715 3.4772-1.2715 6.7676z"/>
<path id="path3226" d="m572.22 290.04c0-2.3698 0.24381-4.277 0.73144-5.7217 0.48763-1.4446 1.2122-2.5589 2.1738-3.3428 0.96158-0.78383 2.1715-1.1758 3.6299-1.1758 1.0755 0.00002 2.0189 0.21649 2.8301 0.64942 0.81119 0.43296 1.4811 1.0573 2.0098 1.873 0.52863 0.81578 0.94334 1.8093 1.2441 2.9805 0.30077 1.1712 0.45116 2.7503 0.45117 4.7373-0.00001 2.3516-0.24155 4.2497-0.72461 5.6943-0.48309 1.4447-1.2054 2.5612-2.167 3.3496-0.9616 0.78841-2.1761 1.1826-3.6436 1.1826-1.9323 0-3.4499-0.69271-4.5527-2.0781-1.3216-1.668-1.9824-4.3841-1.9824-8.1484zm2.5293 0c0 3.2904 0.38509 5.4801 1.1553 6.5693 0.77017 1.0892 1.7204 1.6338 2.8506 1.6338s2.0804-0.54687 2.8506-1.6406c0.77017-1.0938 1.1553-3.2812 1.1553-6.5625-0.00001-3.2995-0.3851-5.4915-1.1553-6.5762-0.77019-1.0846-1.7295-1.6269-2.8779-1.627-1.1302 0.00002-2.0326 0.47853-2.707 1.4356-0.84766 1.2214-1.2715 3.4772-1.2715 6.7676z"/>
<path id="path3228" d="m546.49 268.59h-2.4609v-15.682c-0.59245 0.56512-1.3695 1.1302-2.331 1.6953-0.9616 0.56511-1.8252 0.98894-2.5908 1.2715v-2.3789c1.3763-0.64711 2.5794-1.431 3.6094-2.3516 1.0299-0.92055 1.7591-1.8138 2.1875-2.6797h1.5859z"/>
<path id="path3230" d="m537.22 290.04c0-2.3698 0.24381-4.277 0.73144-5.7217 0.48763-1.4446 1.2122-2.5589 2.1738-3.3428 0.96158-0.78383 2.1715-1.1758 3.6299-1.1758 1.0755 0.00002 2.0189 0.21649 2.8301 0.64942 0.81119 0.43296 1.4811 1.0573 2.0098 1.873 0.52863 0.81578 0.94334 1.8093 1.2441 2.9805 0.30077 1.1712 0.45116 2.7503 0.45117 4.7373-0.00001 2.3516-0.24155 4.2497-0.72461 5.6943-0.48309 1.4447-1.2054 2.5612-2.167 3.3496-0.9616 0.78841-2.1761 1.1826-3.6436 1.1826-1.9323 0-3.4499-0.69271-4.5527-2.0781-1.3216-1.668-1.9824-4.3841-1.9824-8.1484zm2.5293 0c0 3.2904 0.38509 5.4801 1.1553 6.5693 0.77017 1.0892 1.7204 1.6338 2.8506 1.6338s2.0804-0.54687 2.8506-1.6406c0.77017-1.0938 1.1553-3.2812 1.1553-6.5625-0.00001-3.2995-0.3851-5.4915-1.1553-6.5762-0.77019-1.0846-1.7295-1.6269-2.8779-1.627-1.1302 0.00002-2.0326 0.47853-2.707 1.4356-0.84766 1.2214-1.2715 3.4772-1.2715 6.7676z"/>
<path id="path3232" d="m511.49 268.59h-2.4609v-15.682c-0.59245 0.56512-1.3695 1.1302-2.331 1.6953-0.9616 0.56511-1.8252 0.98894-2.5908 1.2715v-2.3789c1.3763-0.64711 2.5794-1.431 3.6094-2.3516 1.0299-0.92055 1.7591-1.8138 2.1875-2.6797h1.5859z"/>
<path id="path3234" d="m511.49 299.93h-2.4609v-15.682c-0.59245 0.56512-1.3695 1.1302-2.331 1.6953-0.9616 0.56512-1.8252 0.98895-2.5908 1.2715v-2.3789c1.3763-0.64712 2.5794-1.431 3.6094-2.3516 1.0299-0.92055 1.7591-1.8138 2.1875-2.6797h1.5859z"/>
<path id="path3236" d="m467.22 258.71c0-2.3698 0.24381-4.277 0.73144-5.7217 0.48763-1.4446 1.2122-2.5589 2.1738-3.3428 0.96158-0.78384 2.1715-1.1758 3.6299-1.1758 1.0755 0.00002 2.0189 0.2165 2.8301 0.64942 0.81119 0.43296 1.4811 1.0573 2.0098 1.873 0.52863 0.81577 0.94334 1.8093 1.2441 2.9805 0.30077 1.1712 0.45116 2.7503 0.45117 4.7373-0.00001 2.3516-0.24155 4.2497-0.72461 5.6943-0.48309 1.4447-1.2054 2.5612-2.167 3.3496-0.9616 0.78842-2.1761 1.1826-3.6436 1.1826-1.9323 0-3.4499-0.69271-4.5527-2.0781-1.3216-1.668-1.9824-4.3841-1.9824-8.1484zm2.5293 0c0 3.2904 0.38509 5.4802 1.1553 6.5693 0.77017 1.0892 1.7204 1.6338 2.8506 1.6338 1.1302 0.00001 2.0804-0.54687 2.8506-1.6406 0.77017-1.0938 1.1553-3.2812 1.1553-6.5625-0.00001-3.2995-0.3851-5.4915-1.1553-6.5762-0.77019-1.0846-1.7295-1.6269-2.8779-1.627-1.1302 0.00002-2.0326 0.47854-2.707 1.4356-0.84766 1.2214-1.2715 3.4772-1.2715 6.7676z"/>
<path id="path3238" d="m476.49 299.93h-2.4609v-15.682c-0.59245 0.56512-1.3695 1.1302-2.331 1.6953-0.9616 0.56512-1.8252 0.98895-2.5908 1.2715v-2.3789c1.3763-0.64712 2.5794-1.431 3.6094-2.3516 1.0299-0.92055 1.7591-1.8138 2.1875-2.6797h1.5859z"/>
<path id="path3240" d="m432.22 258.71c0-2.3698 0.24381-4.277 0.73144-5.7217 0.48763-1.4446 1.2122-2.5589 2.1738-3.3428 0.96158-0.78384 2.1715-1.1758 3.6299-1.1758 1.0755 0.00002 2.0189 0.2165 2.8301 0.64942 0.81119 0.43296 1.4811 1.0573 2.0098 1.873 0.52863 0.81577 0.94334 1.8093 1.2441 2.9805 0.30077 1.1712 0.45116 2.7503 0.45117 4.7373-0.00001 2.3516-0.24155 4.2497-0.72461 5.6943-0.48309 1.4447-1.2054 2.5612-2.167 3.3496-0.9616 0.78842-2.1761 1.1826-3.6436 1.1826-1.9323 0-3.4499-0.69271-4.5527-2.0781-1.3216-1.668-1.9824-4.3841-1.9824-8.1484zm2.5293 0c0 3.2904 0.38509 5.4802 1.1553 6.5693 0.77017 1.0892 1.7204 1.6338 2.8506 1.6338 1.1302 0.00001 2.0804-0.54687 2.8506-1.6406 0.77017-1.0938 1.1553-3.2812 1.1553-6.5625-0.00001-3.2995-0.3851-5.4915-1.1553-6.5762-0.77019-1.0846-1.7295-1.6269-2.8779-1.627-1.1302 0.00002-2.0326 0.47854-2.707 1.4356-0.84766 1.2214-1.2715 3.4772-1.2715 6.7676z"/>
<path id="path3242" d="m441.49 299.93h-2.4609v-15.682c-0.59245 0.56512-1.3695 1.1302-2.331 1.6953-0.9616 0.56512-1.8252 0.98895-2.5908 1.2715v-2.3789c1.3763-0.64712 2.5794-1.431 3.6094-2.3516 1.0299-0.92055 1.7591-1.8138 2.1875-2.6797h1.5859z"/>
<path id="path3244" d="m406.49 268.59h-2.4609v-15.682c-0.59245 0.56512-1.3695 1.1302-2.331 1.6953-0.9616 0.56511-1.8252 0.98894-2.5908 1.2715v-2.3789c1.3763-0.64711 2.5794-1.431 3.6094-2.3516 1.0299-0.92055 1.7591-1.8138 2.1875-2.6797h1.5859z"/>
<path id="path3246" d="m406.49 299.93h-2.4609v-15.682c-0.59245 0.56512-1.3695 1.1302-2.331 1.6953-0.9616 0.56512-1.8252 0.98895-2.5908 1.2715v-2.3789c1.3763-0.64712 2.5794-1.431 3.6094-2.3516 1.0299-0.92055 1.7591-1.8138 2.1875-2.6797h1.5859z"/>
<path id="path3248" d="m371.49 268.59h-2.4609v-15.682c-0.59245 0.56512-1.3695 1.1302-2.331 1.6953-0.9616 0.56511-1.8252 0.98894-2.5908 1.2715v-2.3789c1.3763-0.64711 2.5794-1.431 3.6094-2.3516 1.0299-0.92055 1.7591-1.8138 2.1875-2.6797h1.5859z"/>
<path id="path3250" d="m362.22 290.04c0-2.3698 0.24381-4.277 0.73144-5.7217 0.48763-1.4446 1.2122-2.5589 2.1738-3.3428 0.96158-0.78383 2.1715-1.1758 3.6299-1.1758 1.0755 0.00002 2.0189 0.21649 2.8301 0.64942 0.81119 0.43296 1.4811 1.0573 2.0098 1.873 0.52863 0.81578 0.94334 1.8093 1.2441 2.9805 0.30077 1.1712 0.45116 2.7503 0.45117 4.7373-0.00001 2.3516-0.24155 4.2497-0.72461 5.6943-0.48309 1.4447-1.2054 2.5612-2.167 3.3496-0.9616 0.78841-2.1761 1.1826-3.6436 1.1826-1.9323 0-3.4499-0.69271-4.5527-2.0781-1.3216-1.668-1.9824-4.3841-1.9824-8.1484zm2.5293 0c0 3.2904 0.38509 5.4801 1.1553 6.5693 0.77017 1.0892 1.7204 1.6338 2.8506 1.6338s2.0804-0.54687 2.8506-1.6406c0.77017-1.0938 1.1553-3.2812 1.1553-6.5625-0.00001-3.2995-0.3851-5.4915-1.1553-6.5762-0.77019-1.0846-1.7295-1.6269-2.8779-1.627-1.1302 0.00002-2.0326 0.47853-2.707 1.4356-0.84766 1.2214-1.2715 3.4772-1.2715 6.7676z"/>
<path id="path3252" d="m327.22 258.71c0-2.3698 0.24381-4.277 0.73144-5.7217 0.48763-1.4446 1.2122-2.5589 2.1738-3.3428 0.96158-0.78384 2.1715-1.1758 3.6299-1.1758 1.0755 0.00002 2.0189 0.2165 2.8301 0.64942 0.81119 0.43296 1.4811 1.0573 2.0098 1.873 0.52863 0.81577 0.94334 1.8093 1.2441 2.9805 0.30077 1.1712 0.45116 2.7503 0.45117 4.7373-0.00001 2.3516-0.24155 4.2497-0.72461 5.6943-0.48309 1.4447-1.2054 2.5612-2.167 3.3496-0.9616 0.78842-2.1761 1.1826-3.6436 1.1826-1.9323 0-3.4499-0.69271-4.5527-2.0781-1.3216-1.668-1.9824-4.3841-1.9824-8.1484zm2.5293 0c0 3.2904 0.38509 5.4802 1.1553 6.5693 0.77017 1.0892 1.7204 1.6338 2.8506 1.6338 1.1302 0.00001 2.0804-0.54687 2.8506-1.6406 0.77017-1.0938 1.1553-3.2812 1.1553-6.5625-0.00001-3.2995-0.3851-5.4915-1.1553-6.5762-0.77019-1.0846-1.7295-1.6269-2.8779-1.627-1.1302 0.00002-2.0326 0.47854-2.707 1.4356-0.84766 1.2214-1.2715 3.4772-1.2715 6.7676z"/>
<path id="path3254" d="m327.22 290.04c0-2.3698 0.24381-4.277 0.73144-5.7217 0.48763-1.4446 1.2122-2.5589 2.1738-3.3428 0.96158-0.78383 2.1715-1.1758 3.6299-1.1758 1.0755 0.00002 2.0189 0.21649 2.8301 0.64942 0.81119 0.43296 1.4811 1.0573 2.0098 1.873 0.52863 0.81578 0.94334 1.8093 1.2441 2.9805 0.30077 1.1712 0.45116 2.7503 0.45117 4.7373-0.00001 2.3516-0.24155 4.2497-0.72461 5.6943-0.48309 1.4447-1.2054 2.5612-2.167 3.3496-0.9616 0.78841-2.1761 1.1826-3.6436 1.1826-1.9323 0-3.4499-0.69271-4.5527-2.0781-1.3216-1.668-1.9824-4.3841-1.9824-8.1484zm2.5293 0c0 3.2904 0.38509 5.4801 1.1553 6.5693 0.77017 1.0892 1.7204 1.6338 2.8506 1.6338s2.0804-0.54687 2.8506-1.6406c0.77017-1.0938 1.1553-3.2812 1.1553-6.5625-0.00001-3.2995-0.3851-5.4915-1.1553-6.5762-0.77019-1.0846-1.7295-1.6269-2.8779-1.627-1.1302 0.00002-2.0326 0.47853-2.707 1.4356-0.84766 1.2214-1.2715 3.4772-1.2715 6.7676z"/>
<path id="path3256" d="m292.22 258.71c0-2.3698 0.24381-4.277 0.73144-5.7217 0.48763-1.4446 1.2122-2.5589 2.1738-3.3428 0.96158-0.78384 2.1715-1.1758 3.6299-1.1758 1.0755 0.00002 2.0189 0.2165 2.8301 0.64942 0.81119 0.43296 1.4811 1.0573 2.0098 1.873 0.52863 0.81577 0.94334 1.8093 1.2441 2.9805 0.30077 1.1712 0.45116 2.7503 0.45117 4.7373-0.00001 2.3516-0.24155 4.2497-0.72461 5.6943-0.48309 1.4447-1.2054 2.5612-2.167 3.3496-0.9616 0.78842-2.1761 1.1826-3.6436 1.1826-1.9323 0-3.4499-0.69271-4.5527-2.0781-1.3216-1.668-1.9824-4.3841-1.9824-8.1484zm2.5293 0c0 3.2904 0.38509 5.4802 1.1553 6.5693 0.77017 1.0892 1.7204 1.6338 2.8506 1.6338 1.1302 0.00001 2.0804-0.54687 2.8506-1.6406 0.77017-1.0938 1.1553-3.2812 1.1553-6.5625-0.00001-3.2995-0.3851-5.4915-1.1553-6.5762-0.77019-1.0846-1.7295-1.6269-2.8779-1.627-1.1302 0.00002-2.0326 0.47854-2.707 1.4356-0.84766 1.2214-1.2715 3.4772-1.2715 6.7676z"/>
<path id="path3258" d="m301.49 299.93h-2.4609v-15.682c-0.59245 0.56512-1.3695 1.1302-2.331 1.6953-0.9616 0.56512-1.8252 0.98895-2.5908 1.2715v-2.3789c1.3763-0.64712 2.5794-1.431 3.6094-2.3516 1.0299-0.92055 1.7591-1.8138 2.1875-2.6797h1.5859z"/>
<path id="path3260" d="m266.49 268.59h-2.4609v-15.682c-0.59245 0.56512-1.3695 1.1302-2.331 1.6953-0.9616 0.56511-1.8252 0.98894-2.5908 1.2715v-2.3789c1.3763-0.64711 2.5794-1.431 3.6094-2.3516 1.0299-0.92055 1.7591-1.8138 2.1875-2.6797h1.5859z"/>
<path id="path3262" d="m266.49 299.93h-2.4609v-15.682c-0.59245 0.56512-1.3695 1.1302-2.331 1.6953-0.9616 0.56512-1.8252 0.98895-2.5908 1.2715v-2.3789c1.3763-0.64712 2.5794-1.431 3.6094-2.3516 1.0299-0.92055 1.7591-1.8138 2.1875-2.6797h1.5859z"/>
<path id="path3264" d="m231.49 268.59h-2.4609v-15.682c-0.59245 0.56512-1.3695 1.1302-2.331 1.6953-0.9616 0.56511-1.8252 0.98894-2.5908 1.2715v-2.3789c1.3763-0.64711 2.5794-1.431 3.6094-2.3516 1.0299-0.92055 1.7591-1.8138 2.1875-2.6797h1.5859z"/>
<path id="path3266" d="m222.22 290.04c0-2.3698 0.24381-4.277 0.73144-5.7217 0.48763-1.4446 1.2122-2.5589 2.1738-3.3428 0.96158-0.78383 2.1715-1.1758 3.6299-1.1758 1.0755 0.00002 2.0189 0.21649 2.8301 0.64942 0.81119 0.43296 1.4811 1.0573 2.0098 1.873 0.52863 0.81578 0.94334 1.8093 1.2441 2.9805 0.30077 1.1712 0.45116 2.7503 0.45117 4.7373-0.00001 2.3516-0.24155 4.2497-0.72461 5.6943-0.48309 1.4447-1.2054 2.5612-2.167 3.3496-0.9616 0.78841-2.1761 1.1826-3.6436 1.1826-1.9323 0-3.4499-0.69271-4.5527-2.0781-1.3216-1.668-1.9824-4.3841-1.9824-8.1484zm2.5293 0c0 3.2904 0.38509 5.4801 1.1553 6.5693 0.77017 1.0892 1.7204 1.6338 2.8506 1.6338s2.0804-0.54687 2.8506-1.6406c0.77017-1.0938 1.1553-3.2812 1.1553-6.5625-0.00001-3.2995-0.3851-5.4915-1.1553-6.5762-0.77019-1.0846-1.7295-1.6269-2.8779-1.627-1.1302 0.00002-2.0326 0.47853-2.707 1.4356-0.84766 1.2214-1.2715 3.4772-1.2715 6.7676z"/>
<path id="path3268" d="m187.22 258.71c0-2.3698 0.24381-4.277 0.73144-5.7217 0.48763-1.4446 1.2122-2.5589 2.1738-3.3428 0.96158-0.78384 2.1715-1.1758 3.6299-1.1758 1.0755 0.00002 2.0189 0.2165 2.8301 0.64942 0.81119 0.43296 1.4811 1.0573 2.0098 1.873 0.52863 0.81577 0.94334 1.8093 1.2441 2.9805 0.30077 1.1712 0.45116 2.7503 0.45117 4.7373-0.00001 2.3516-0.24155 4.2497-0.72461 5.6943-0.48309 1.4447-1.2054 2.5612-2.167 3.3496-0.9616 0.78842-2.1761 1.1826-3.6436 1.1826-1.9323 0-3.4499-0.69271-4.5527-2.0781-1.3216-1.668-1.9824-4.3841-1.9824-8.1484zm2.5293 0c0 3.2904 0.38509 5.4802 1.1553 6.5693 0.77017 1.0892 1.7204 1.6338 2.8506 1.6338 1.1302 0.00001 2.0804-0.54687 2.8506-1.6406 0.77017-1.0938 1.1553-3.2812 1.1553-6.5625-0.00001-3.2995-0.3851-5.4915-1.1553-6.5762-0.77019-1.0846-1.7295-1.6269-2.8779-1.627-1.1302 0.00002-2.0326 0.47854-2.707 1.4356-0.84766 1.2214-1.2715 3.4772-1.2715 6.7676z"/>
<path id="path3270" d="m187.22 290.04c0-2.3698 0.24381-4.277 0.73144-5.7217 0.48763-1.4446 1.2122-2.5589 2.1738-3.3428 0.96158-0.78383 2.1715-1.1758 3.6299-1.1758 1.0755 0.00002 2.0189 0.21649 2.8301 0.64942 0.81119 0.43296 1.4811 1.0573 2.0098 1.873 0.52863 0.81578 0.94334 1.8093 1.2441 2.9805 0.30077 1.1712 0.45116 2.7503 0.45117 4.7373-0.00001 2.3516-0.24155 4.2497-0.72461 5.6943-0.48309 1.4447-1.2054 2.5612-2.167 3.3496-0.9616 0.78841-2.1761 1.1826-3.6436 1.1826-1.9323 0-3.4499-0.69271-4.5527-2.0781-1.3216-1.668-1.9824-4.3841-1.9824-8.1484zm2.5293 0c0 3.2904 0.38509 5.4801 1.1553 6.5693 0.77017 1.0892 1.7204 1.6338 2.8506 1.6338s2.0804-0.54687 2.8506-1.6406c0.77017-1.0938 1.1553-3.2812 1.1553-6.5625-0.00001-3.2995-0.3851-5.4915-1.1553-6.5762-0.77019-1.0846-1.7295-1.6269-2.8779-1.627-1.1302 0.00002-2.0326 0.47853-2.707 1.4356-0.84766 1.2214-1.2715 3.4772-1.2715 6.7676z"/>
</g>
<g id="text3045">
<path id="path3171" d="m53.852 266.22v-20.043h14.492v2.3652h-11.84v6.1387h11.088v2.3516h-11.088v6.8223h12.305v2.3652z"/>
<path id="path3173" d="m72.186 266.22v-14.52h2.2148v2.0644c1.0664-1.595 2.6068-2.3926 4.6211-2.3926 0.87499 0.00002 1.6794 0.15724 2.4131 0.47168 0.73371 0.31447 1.2829 0.7269 1.6475 1.2373 0.36457 0.51043 0.61978 1.1166 0.76562 1.8184 0.09113 0.45574 0.1367 1.2533 0.13672 2.3926v8.9277h-2.4609v-8.832c-0.000011-1.0026-0.09571-1.7523-0.28711-2.249-0.19142-0.49674-0.53094-0.89322-1.0186-1.1895-0.48764-0.29621-1.0596-0.44432-1.7158-0.44433-1.0482 0.00001-1.9528 0.33269-2.7139 0.99804-0.76107 0.66538-1.1416 1.9278-1.1416 3.7871v7.9297z"/>
<path id="path3175" d="m93.145 264.02 0.35547 2.1738c-0.69272 0.14583-1.3125 0.21875-1.8594 0.21875-0.89323 0-1.5859-0.14128-2.0781-0.42383-0.49219-0.28255-0.83854-0.65397-1.0391-1.1143-0.20052-0.46028-0.30078-1.4287-0.30078-2.9053v-8.3535h-1.8047v-1.9141h1.8047v-3.5957l2.4473-1.4766v5.0723h2.4746v1.9141h-2.4746v8.4902c-0.000004 0.70182 0.04329 1.153 0.12988 1.3535 0.08658 0.20052 0.22786 0.36003 0.42383 0.47852 0.19596 0.11849 0.47623 0.17773 0.84082 0.17773 0.27343 0 0.63346-0.0319 1.0801-0.0957z"/>
<path id="path3177" d="m95.51 266.22v-14.52h2.2148v2.2012c0.5651-1.0299 1.0869-1.709 1.5654-2.0371 0.47851-0.32811 1.0049-0.49217 1.5791-0.49219 0.82941 0.00002 1.6725 0.26434 2.5293 0.79297l-0.84765 2.2832c-0.60157-0.35546-1.2031-0.5332-1.8047-0.53321-0.53777 0.00001-1.0208 0.1618-1.4492 0.48535-0.42839 0.32358-0.73373 0.77248-0.91602 1.3467-0.27344 0.87501-0.41016 1.832-0.41016 2.8711v7.6016z"/>
<path id="path3179" d="m114.36 264.43c-0.91147 0.77474-1.7888 1.3216-2.6318 1.6406-0.84311 0.31901-1.7477 0.47851-2.7139 0.47851-1.595 0-2.821-0.38964-3.6777-1.1689-0.85677-0.7793-1.2852-1.7751-1.2852-2.9873 0-0.71093 0.16178-1.3603 0.48535-1.9482 0.32357-0.58788 0.7474-1.0596 1.2715-1.415 0.52408-0.35546 1.1142-0.62434 1.7705-0.80664 0.48306-0.12759 1.2122-0.25064 2.1875-0.36914 1.987-0.23697 3.4499-0.51952 4.3887-0.84765 0.009-0.33723 0.0137-0.55143 0.0137-0.64258-0.00001-1.0026-0.23243-1.709-0.69727-2.1191-0.62891-0.55598-1.5632-0.83397-2.8027-0.83399-1.1576 0.00002-2.012 0.20282-2.5635 0.6084-0.55143 0.40561-0.95931 1.1234-1.2236 2.1533l-2.4062-0.32812c0.21875-1.0299 0.57877-1.8616 1.0801-2.4951 0.5013-0.63345 1.2259-1.1211 2.1738-1.4629 0.94791-0.34178 2.0462-0.51268 3.2949-0.5127 1.2396 0.00002 2.2467 0.14585 3.0215 0.4375 0.77473 0.29168 1.3444 0.65855 1.709 1.1006 0.36457 0.44207 0.61978 1.0003 0.76562 1.6748 0.082 0.41929 0.12304 1.1758 0.12305 2.2695v3.2812c-0.00001 2.2878 0.0524 3.7347 0.15723 4.3408 0.1048 0.60612 0.31216 1.1872 0.62207 1.7432h-2.5703c-0.25522-0.51042-0.41928-1.1074-0.49218-1.791zm-0.20508-5.4961c-0.89324 0.36459-2.2331 0.67449-4.0195 0.92969-1.0117 0.14584-1.7272 0.3099-2.1465 0.49219-0.41927 0.18229-0.74284 0.44889-0.9707 0.7998-0.22787 0.35092-0.3418 0.74056-0.3418 1.169 0 0.65625 0.24837 1.2031 0.74512 1.6406 0.49674 0.4375 1.2236 0.65625 2.1807 0.65625 0.94791 0 1.791-0.20735 2.5293-0.62207 0.73827-0.41471 1.2806-0.98209 1.627-1.7022 0.26432-0.55598 0.39648-1.3763 0.39649-2.4609z"/>
<path id="path3181" d="m129.9 266.22v-1.832c-0.92059 1.4401-2.2741 2.1602-4.0606 2.1602-1.1576 0-2.2217-0.31901-3.1924-0.95703-0.97071-0.63802-1.7227-1.529-2.2559-2.6728-0.53321-1.1439-0.79981-2.4586-0.79981-3.9443 0-1.4492 0.24154-2.764 0.72461-3.9443s1.2077-2.085 2.1738-2.7139c0.96614-0.62889 2.0462-0.94334 3.2402-0.94336 0.875 0.00002 1.6543 0.18459 2.3379 0.55371 0.68359 0.36916 1.2396 0.84995 1.668 1.4424v-7.1914h2.4473v20.043zm-7.7793-7.2461c0 1.8594 0.39192 3.2494 1.1758 4.1699 0.78385 0.92057 1.709 1.3809 2.7754 1.3809 1.0755 0 1.9892-0.43978 2.7412-1.3193 0.75194-0.87955 1.1279-2.2217 1.1279-4.0264-0.00001-1.987-0.38282-3.4453-1.1484-4.375-0.76563-0.92967-1.709-1.3945-2.8301-1.3945-1.0938 0.00002-2.0075 0.44663-2.7412 1.3398-0.73372 0.89324-1.1006 2.3014-1.1006 4.2246z"/>
<path id="path3183" d="m145.54 264.43c-0.91147 0.77474-1.7888 1.3216-2.6318 1.6406-0.8431 0.31901-1.7477 0.47851-2.7139 0.47851-1.5951 0-2.821-0.38964-3.6777-1.1689-0.85677-0.7793-1.2852-1.7751-1.2852-2.9873 0-0.71093 0.16178-1.3603 0.48535-1.9482 0.32356-0.58788 0.74739-1.0596 1.2715-1.415 0.52409-0.35546 1.1143-0.62434 1.7705-0.80664 0.48307-0.12759 1.2122-0.25064 2.1875-0.36914 1.987-0.23697 3.4499-0.51952 4.3887-0.84765 0.009-0.33723 0.0137-0.55143 0.0137-0.64258-0.00001-1.0026-0.23243-1.709-0.69726-2.1191-0.62892-0.55598-1.5632-0.83397-2.8027-0.83399-1.1576 0.00002-2.012 0.20282-2.5635 0.6084-0.55144 0.40561-0.95932 1.1234-1.2236 2.1533l-2.4062-0.32812c0.21874-1.0299 0.57877-1.8616 1.0801-2.4951 0.5013-0.63345 1.2259-1.1211 2.1738-1.4629 0.94791-0.34178 2.0462-0.51268 3.2949-0.5127 1.2396 0.00002 2.2467 0.14585 3.0215 0.4375 0.77473 0.29168 1.3444 0.65855 1.709 1.1006 0.36457 0.44207 0.61978 1.0003 0.76563 1.6748 0.082 0.41929 0.12303 1.1758 0.12304 2.2695v3.2812c-0.00001 2.2878 0.0524 3.7347 0.15723 4.3408 0.1048 0.60612 0.31216 1.1872 0.62207 1.7432h-2.5703c-0.25522-0.51042-0.41928-1.1074-0.49219-1.791zm-0.20508-5.4961c-0.89324 0.36459-2.2331 0.67449-4.0195 0.92969-1.0117 0.14584-1.7272 0.3099-2.1465 0.49219-0.41928 0.18229-0.74285 0.44889-0.97071 0.7998-0.22786 0.35092-0.3418 0.74056-0.34179 1.169-0.00001 0.65625 0.24837 1.2031 0.74511 1.6406s1.2236 0.65625 2.1807 0.65625c0.94791 0 1.791-0.20735 2.5293-0.62207 0.73827-0.41471 1.2806-0.98209 1.627-1.7022 0.26431-0.55598 0.39647-1.3763 0.39648-2.4609z"/>
<path id="path3185" d="m160.23 266.22h-2.4609v-15.682c-0.59246 0.56512-1.3695 1.1302-2.3311 1.6953-0.96159 0.56512-1.8252 0.98895-2.5908 1.2715v-2.3789c1.3763-0.64712 2.5794-1.431 3.6094-2.3516 1.0299-0.92056 1.7591-1.8138 2.1875-2.6797h1.5859z"/>
<path id="path3187" d="m167.92 254.5v-2.8027h2.8027v2.8027zm0 11.717v-2.8027h2.8027v2.8027z"/>
<path id="path3189" d="m53.852 301.22v-20.043h14.492v2.3652h-11.84v6.1387h11.088v2.3516h-11.088v6.8223h12.305v2.3652z"/>
<path id="path3191" d="m72.186 301.22v-14.52h2.2148v2.0644c1.0664-1.595 2.6068-2.3926 4.6211-2.3926 0.87499 0.00002 1.6794 0.15724 2.4131 0.47168 0.73371 0.31447 1.2829 0.7269 1.6475 1.2373 0.36457 0.51043 0.61978 1.1166 0.76562 1.8184 0.09113 0.45574 0.1367 1.2533 0.13672 2.3926v8.9277h-2.4609v-8.832c-0.000011-1.0026-0.09571-1.7523-0.28711-2.249-0.19142-0.49674-0.53094-0.89322-1.0186-1.1895-0.48764-0.29621-1.0596-0.44432-1.7158-0.44433-1.0482 0.00001-1.9528 0.33269-2.7139 0.99804-0.76107 0.66538-1.1416 1.9278-1.1416 3.7871v7.9297z"/>
<path id="path3193" d="m93.145 299.02 0.35547 2.1738c-0.69272 0.14583-1.3125 0.21875-1.8594 0.21875-0.89323 0-1.5859-0.14128-2.0781-0.42383-0.49219-0.28255-0.83854-0.65397-1.0391-1.1143-0.20052-0.46028-0.30078-1.4287-0.30078-2.9053v-8.3535h-1.8047v-1.9141h1.8047v-3.5957l2.4473-1.4766v5.0723h2.4746v1.9141h-2.4746v8.4902c-0.000004 0.70182 0.04329 1.153 0.12988 1.3535 0.08658 0.20052 0.22786 0.36003 0.42383 0.47852 0.19596 0.11849 0.47623 0.17773 0.84082 0.17773 0.27343 0 0.63346-0.0319 1.0801-0.0957z"/>
<path id="path3195" d="m95.51 301.22v-14.52h2.2148v2.2012c0.5651-1.0299 1.0869-1.709 1.5654-2.0371 0.47851-0.32811 1.0049-0.49217 1.5791-0.49219 0.82941 0.00002 1.6725 0.26434 2.5293 0.79297l-0.84765 2.2832c-0.60157-0.35546-1.2031-0.5332-1.8047-0.53321-0.53777 0.00001-1.0208 0.1618-1.4492 0.48535-0.42839 0.32358-0.73373 0.77248-0.91602 1.3467-0.27344 0.87501-0.41016 1.832-0.41016 2.8711v7.6016z"/>
<path id="path3197" d="m114.36 299.43c-0.91147 0.77474-1.7888 1.3216-2.6318 1.6406-0.84311 0.31901-1.7477 0.47851-2.7139 0.47851-1.595 0-2.821-0.38964-3.6777-1.1689-0.85677-0.7793-1.2852-1.7751-1.2852-2.9873 0-0.71093 0.16178-1.3603 0.48535-1.9482 0.32357-0.58788 0.7474-1.0596 1.2715-1.415 0.52408-0.35546 1.1142-0.62434 1.7705-0.80664 0.48306-0.12759 1.2122-0.25064 2.1875-0.36914 1.987-0.23697 3.4499-0.51952 4.3887-0.84765 0.009-0.33723 0.0137-0.55143 0.0137-0.64258-0.00001-1.0026-0.23243-1.709-0.69727-2.1191-0.62891-0.55598-1.5632-0.83397-2.8027-0.83399-1.1576 0.00002-2.012 0.20282-2.5635 0.6084-0.55143 0.40561-0.95931 1.1234-1.2236 2.1533l-2.4062-0.32812c0.21875-1.0299 0.57877-1.8616 1.0801-2.4951 0.5013-0.63345 1.2259-1.1211 2.1738-1.4629 0.94791-0.34178 2.0462-0.51268 3.2949-0.5127 1.2396 0.00002 2.2467 0.14585 3.0215 0.4375 0.77473 0.29168 1.3444 0.65855 1.709 1.1006 0.36457 0.44207 0.61978 1.0003 0.76562 1.6748 0.082 0.41929 0.12304 1.1758 0.12305 2.2695v3.2812c-0.00001 2.2878 0.0524 3.7347 0.15723 4.3408 0.1048 0.60612 0.31216 1.1872 0.62207 1.7432h-2.5703c-0.25522-0.51042-0.41928-1.1074-0.49218-1.791zm-0.20508-5.4961c-0.89324 0.36459-2.2331 0.67449-4.0195 0.92969-1.0117 0.14584-1.7272 0.3099-2.1465 0.49219-0.41927 0.18229-0.74284 0.44889-0.9707 0.7998-0.22787 0.35092-0.3418 0.74056-0.3418 1.169 0 0.65625 0.24837 1.2031 0.74512 1.6406 0.49674 0.4375 1.2236 0.65625 2.1807 0.65625 0.94791 0 1.791-0.20735 2.5293-0.62207 0.73827-0.41471 1.2806-0.98209 1.627-1.7022 0.26432-0.55598 0.39648-1.3763 0.39649-2.4609z"/>
<path id="path3199" d="m129.9 301.22v-1.832c-0.92059 1.4401-2.2741 2.1602-4.0606 2.1602-1.1576 0-2.2217-0.31901-3.1924-0.95703-0.97071-0.63802-1.7227-1.529-2.2559-2.6728-0.53321-1.1439-0.79981-2.4586-0.79981-3.9443 0-1.4492 0.24154-2.764 0.72461-3.9443s1.2077-2.085 2.1738-2.7139c0.96614-0.62889 2.0462-0.94334 3.2402-0.94336 0.875 0.00002 1.6543 0.18459 2.3379 0.55371 0.68359 0.36916 1.2396 0.84995 1.668 1.4424v-7.1914h2.4473v20.043zm-7.7793-7.2461c0 1.8594 0.39192 3.2494 1.1758 4.1699 0.78385 0.92057 1.709 1.3809 2.7754 1.3809 1.0755 0 1.9892-0.43978 2.7412-1.3193 0.75194-0.87955 1.1279-2.2217 1.1279-4.0264-0.00001-1.987-0.38282-3.4453-1.1484-4.375-0.76563-0.92967-1.709-1.3945-2.8301-1.3945-1.0938 0.00002-2.0075 0.44663-2.7412 1.3398-0.73372 0.89324-1.1006 2.3014-1.1006 4.2246z"/>
<path id="path3201" d="m145.54 299.43c-0.91147 0.77474-1.7888 1.3216-2.6318 1.6406-0.8431 0.31901-1.7477 0.47851-2.7139 0.47851-1.5951 0-2.821-0.38964-3.6777-1.1689-0.85677-0.7793-1.2852-1.7751-1.2852-2.9873 0-0.71093 0.16178-1.3603 0.48535-1.9482 0.32356-0.58788 0.74739-1.0596 1.2715-1.415 0.52409-0.35546 1.1143-0.62434 1.7705-0.80664 0.48307-0.12759 1.2122-0.25064 2.1875-0.36914 1.987-0.23697 3.4499-0.51952 4.3887-0.84765 0.009-0.33723 0.0137-0.55143 0.0137-0.64258-0.00001-1.0026-0.23243-1.709-0.69726-2.1191-0.62892-0.55598-1.5632-0.83397-2.8027-0.83399-1.1576 0.00002-2.012 0.20282-2.5635 0.6084-0.55144 0.40561-0.95932 1.1234-1.2236 2.1533l-2.4062-0.32812c0.21874-1.0299 0.57877-1.8616 1.0801-2.4951 0.5013-0.63345 1.2259-1.1211 2.1738-1.4629 0.94791-0.34178 2.0462-0.51268 3.2949-0.5127 1.2396 0.00002 2.2467 0.14585 3.0215 0.4375 0.77473 0.29168 1.3444 0.65855 1.709 1.1006 0.36457 0.44207 0.61978 1.0003 0.76563 1.6748 0.082 0.41929 0.12303 1.1758 0.12304 2.2695v3.2812c-0.00001 2.2878 0.0524 3.7347 0.15723 4.3408 0.1048 0.60612 0.31216 1.1872 0.62207 1.7432h-2.5703c-0.25522-0.51042-0.41928-1.1074-0.49219-1.791zm-0.20508-5.4961c-0.89324 0.36459-2.2331 0.67449-4.0195 0.92969-1.0117 0.14584-1.7272 0.3099-2.1465 0.49219-0.41928 0.18229-0.74285 0.44889-0.97071 0.7998-0.22786 0.35092-0.3418 0.74056-0.34179 1.169-0.00001 0.65625 0.24837 1.2031 0.74511 1.6406s1.2236 0.65625 2.1807 0.65625c0.94791 0 1.791-0.20735 2.5293-0.62207 0.73827-0.41471 1.2806-0.98209 1.627-1.7022 0.26431-0.55598 0.39647-1.3763 0.39648-2.4609z"/>
<path id="path3203" d="m163.9 298.85v2.3652h-13.248c-0.0182-0.59245 0.0775-1.1621 0.28711-1.709 0.33724-0.90235 0.87728-1.791 1.6201-2.666 0.74283-0.87499 1.8161-1.8867 3.2197-3.0352 2.1784-1.7864 3.6504-3.2015 4.416-4.2451 0.76561-1.0436 1.1484-2.0303 1.1484-2.96-0.00001-0.97525-0.34865-1.7978-1.0459-2.4678-0.69728-0.6699-1.6064-1.0049-2.7275-1.0049-1.1849 0.00002-2.1328 0.35549-2.8438 1.0664-0.71094 0.71095-1.071 1.6953-1.0801 2.9531l-2.5293-0.25977c0.17317-1.8867 0.82486-3.3245 1.9551-4.3135 1.1302-0.98891 2.6478-1.4834 4.5527-1.4834 1.9232 0.00002 3.4453 0.53322 4.5664 1.5996s1.6816 2.388 1.6816 3.9648c-0.00002 0.8021-0.16408 1.5905-0.49219 2.3652-0.32814 0.77475-0.87274 1.5905-1.6338 2.4473-0.76108 0.85678-2.0257 2.0326-3.794 3.5274-1.4766 1.2396-2.4245 2.0804-2.8438 2.5225-0.41927 0.44206-0.76563 0.88639-1.0391 1.333z"/>
<path id="path3205" d="m167.92 289.5v-2.8027h2.8027v2.8027zm0 11.717v-2.8027h2.8027v2.8027z"/>
</g>
<text id="text3051" style="word-spacing:0px;letter-spacing:0px;writing-mode:tb-rl" xml:space="preserve" font-size="40px" line-height="125%" y="788.79077" x="66.428574" font-family="Sans" fill="#000000"><tspan id="tspan3059" y="66.428574" x="788.79077"/></text>
<text id="text3063" style="word-spacing:0px;letter-spacing:0px;writing-mode:tb-rl" xml:space="preserve" font-size="28px" line-height="125%" y="788.79077" x="585" font-family="Sans" fill="#000000"><tspan id="tspan3065" y="585" x="788.79077"/></text>
<g id="text3067">
<path id="path3106" d="m712.65 335.73c-0.00001-2.3698 0.24381-4.277 0.73144-5.7217 0.48763-1.4446 1.2122-2.5589 2.1738-3.3428 0.96158-0.78384 2.1715-1.1758 3.6299-1.1758 1.0755 0.00002 2.0189 0.21649 2.8301 0.64941 0.81119 0.43296 1.4811 1.0573 2.0098 1.873 0.52863 0.81577 0.94334 1.8093 1.2441 2.9805s0.45115 2.7503 0.45117 4.7373c-0.00002 2.3516-0.24155 4.2497-0.72461 5.6943-0.48309 1.4447-1.2054 2.5612-2.167 3.3496-0.9616 0.78841-2.1761 1.1826-3.6436 1.1826-1.9323 0-3.4499-0.6927-4.5527-2.0781-1.3216-1.668-1.9824-4.3841-1.9824-8.1484zm2.5293 0c0 3.2904 0.38509 5.4802 1.1553 6.5693 0.77017 1.0892 1.7204 1.6338 2.8506 1.6338s2.0804-0.54688 2.8506-1.6406c0.77017-1.0937 1.1553-3.2812 1.1553-6.5625-0.00001-3.2995-0.3851-5.4915-1.1553-6.5762-0.77019-1.0846-1.7295-1.6269-2.8779-1.627-1.1302 0.00001-2.0326 0.47853-2.707 1.4355-0.84766 1.2214-1.2715 3.4772-1.2715 6.7676z"/>
<path id="path3108" d="m715.5 370.94v-2.4746h7.5605v2.4746z"/>
<path id="path3110" d="m686.92 345.62h-2.4609v-15.682c-0.59246 0.56512-1.3695 1.1302-2.3311 1.6953-0.96159 0.56512-1.8252 0.98894-2.5908 1.2715v-2.3789c1.3763-0.64712 2.5794-1.431 3.6094-2.3516 1.0299-0.92055 1.7591-1.8138 2.1875-2.6797h1.5859z"/>
<path id="path3112" d="m680.5 370.94v-2.4746h7.5605v2.4746z"/>
<path id="path3114" d="m655.59 343.25v2.3652h-13.248c-0.0182-0.59245 0.0775-1.1621 0.28711-1.709 0.33724-0.90234 0.87728-1.791 1.6201-2.666 0.74283-0.875 1.8161-1.8867 3.2197-3.0352 2.1784-1.7864 3.6504-3.2015 4.416-4.2451 0.76561-1.0436 1.1484-2.0303 1.1484-2.96-0.00001-0.97524-0.34865-1.7978-1.0459-2.4678-0.69728-0.6699-1.6064-1.0049-2.7275-1.0049-1.1849 0.00001-2.1328 0.35548-2.8438 1.0664-0.71094 0.71096-1.071 1.6953-1.0801 2.9531l-2.5293-0.25977c0.17317-1.8867 0.82486-3.3245 1.9551-4.3135 1.1302-0.98892 2.6478-1.4834 4.5527-1.4834 1.9232 0.00002 3.4453 0.53322 4.5664 1.5996s1.6816 2.388 1.6816 3.9648c-0.00002 0.8021-0.16408 1.5905-0.49219 2.3652-0.32814 0.77476-0.87274 1.5905-1.6338 2.4473-0.76108 0.85678-2.0257 2.0326-3.794 3.5273-1.4766 1.2396-2.4245 2.0804-2.8438 2.5225-0.41927 0.44206-0.76563 0.88639-1.0391 1.333z"/>
<path id="path3116" d="m645.5 370.94v-2.4746h7.5605v2.4746z"/>
<path id="path3118" d="m607.67 340.33 2.4609-0.32812c0.28255 1.3945 0.76335 2.3994 1.4424 3.0146 0.67903 0.61523 1.5062 0.92285 2.4814 0.92285 1.1576 0 2.1351-0.40104 2.9326-1.2031 0.79751-0.80208 1.1963-1.7956 1.1963-2.9805-0.00001-1.1302-0.36915-2.0622-1.1074-2.7959-0.73829-0.73371-1.6771-1.1006-2.8164-1.1006-0.46485 0.00001-1.0436 0.0912-1.7363 0.27344l0.27344-2.1602c0.16406 0.0182 0.29622 0.0274 0.39648 0.0273 1.0482 0.00002 1.9915-0.27342 2.8301-0.82031 0.83853-0.54686 1.2578-1.39 1.2578-2.5293-0.00002-0.90232-0.30535-1.6497-0.91602-2.2422-0.61069-0.59243-1.3991-0.88866-2.3652-0.88868-0.95704 0.00002-1.7546 0.3008-2.3926 0.90235-0.63803 0.60158-1.0482 1.5039-1.2305 2.707l-2.4609-0.4375c0.30078-1.6497 0.98437-2.928 2.0508-3.835 1.0664-0.90688 2.3926-1.3603 3.9785-1.3604 1.0937 0.00002 2.1009 0.23472 3.0215 0.7041 0.92056 0.46942 1.6247 1.1097 2.1123 1.9209 0.48761 0.81121 0.73143 1.6725 0.73144 2.584-0.00001 0.8659-0.23243 1.6543-0.69726 2.3652-0.46486 0.71095-1.153 1.276-2.0645 1.6953 1.1849 0.27345 2.1055 0.84083 2.7617 1.7022 0.65624 0.86133 0.98436 1.9391 0.98438 3.2334-0.00002 1.75-0.63804 3.2334-1.9141 4.4502-1.276 1.2168-2.8893 1.8252-4.8398 1.8252-1.7591 0-3.2197-0.52409-4.3818-1.5723s-1.8252-2.4062-1.9892-4.0742z"/>
<path id="path3120" d="m610.5 370.94v-2.4746h7.5605v2.4746z"/>
<path id="path3122" d="m572.65 335.73c-0.00001-2.3698 0.24381-4.277 0.73144-5.7217 0.48763-1.4446 1.2122-2.5589 2.1738-3.3428 0.96158-0.78384 2.1715-1.1758 3.6299-1.1758 1.0755 0.00002 2.0189 0.21649 2.8301 0.64941 0.81119 0.43296 1.4811 1.0573 2.0098 1.873 0.52863 0.81577 0.94334 1.8093 1.2441 2.9805s0.45115 2.7503 0.45117 4.7373c-0.00002 2.3516-0.24155 4.2497-0.72461 5.6943-0.48309 1.4447-1.2054 2.5612-2.167 3.3496-0.9616 0.78841-2.1761 1.1826-3.6436 1.1826-1.9323 0-3.4499-0.6927-4.5527-2.0781-1.3216-1.668-1.9824-4.3841-1.9824-8.1484zm2.5293 0c0 3.2904 0.38509 5.4802 1.1553 6.5693 0.77017 1.0892 1.7204 1.6338 2.8506 1.6338s2.0804-0.54688 2.8506-1.6406c0.77017-1.0937 1.1553-3.2812 1.1553-6.5625-0.00001-3.2995-0.3851-5.4915-1.1553-6.5762-0.77019-1.0846-1.7295-1.6269-2.8779-1.627-1.1302 0.00001-2.0326 0.47853-2.707 1.4355-0.84766 1.2214-1.2715 3.4772-1.2715 6.7676z"/>
<path id="path3124" d="m575.5 370.94v-2.4746h7.5605v2.4746z"/>
<path id="path3126" d="m546.92 345.62h-2.4609v-15.682c-0.59246 0.56512-1.3695 1.1302-2.3311 1.6953-0.96159 0.56512-1.8252 0.98894-2.5908 1.2715v-2.3789c1.3763-0.64712 2.5794-1.431 3.6094-2.3516 1.0299-0.92055 1.7591-1.8138 2.1875-2.6797h1.5859z"/>
<path id="path3128" d="m540.5 370.94v-2.4746h7.5605v2.4746z"/>
<path id="path3130" d="m515.59 343.25v2.3652h-13.248c-0.0182-0.59245 0.0775-1.1621 0.28711-1.709 0.33724-0.90234 0.87728-1.791 1.6201-2.666 0.74283-0.875 1.8161-1.8867 3.2197-3.0352 2.1784-1.7864 3.6504-3.2015 4.416-4.2451 0.76561-1.0436 1.1484-2.0303 1.1484-2.96-0.00001-0.97524-0.34865-1.7978-1.0459-2.4678-0.69728-0.6699-1.6064-1.0049-2.7275-1.0049-1.1849 0.00001-2.1328 0.35548-2.8438 1.0664-0.71094 0.71096-1.071 1.6953-1.0801 2.9531l-2.5293-0.25977c0.17317-1.8867 0.82486-3.3245 1.9551-4.3135 1.1302-0.98892 2.6478-1.4834 4.5527-1.4834 1.9232 0.00002 3.4453 0.53322 4.5664 1.5996s1.6816 2.388 1.6816 3.9648c-0.00002 0.8021-0.16408 1.5905-0.49219 2.3652-0.32814 0.77476-0.87274 1.5905-1.6338 2.4473-0.76108 0.85678-2.0257 2.0326-3.794 3.5273-1.4766 1.2396-2.4245 2.0804-2.8438 2.5225-0.41927 0.44206-0.76563 0.88639-1.0391 1.333z"/>
<path id="path3132" d="m505.5 370.94v-2.4746h7.5605v2.4746z"/>
<path id="path3134" d="m467.67 340.33 2.4609-0.32812c0.28255 1.3945 0.76335 2.3994 1.4424 3.0146 0.67903 0.61523 1.5062 0.92285 2.4814 0.92285 1.1576 0 2.1351-0.40104 2.9326-1.2031 0.79751-0.80208 1.1963-1.7956 1.1963-2.9805-0.00001-1.1302-0.36915-2.0622-1.1074-2.7959-0.73829-0.73371-1.6771-1.1006-2.8164-1.1006-0.46485 0.00001-1.0436 0.0912-1.7363 0.27344l0.27344-2.1602c0.16406 0.0182 0.29622 0.0274 0.39648 0.0273 1.0482 0.00002 1.9915-0.27342 2.8301-0.82031 0.83853-0.54686 1.2578-1.39 1.2578-2.5293-0.00002-0.90232-0.30535-1.6497-0.91602-2.2422-0.61069-0.59243-1.3991-0.88866-2.3652-0.88868-0.95704 0.00002-1.7546 0.3008-2.3926 0.90235-0.63803 0.60158-1.0482 1.5039-1.2305 2.707l-2.4609-0.4375c0.30078-1.6497 0.98437-2.928 2.0508-3.835 1.0664-0.90688 2.3926-1.3603 3.9785-1.3604 1.0937 0.00002 2.1009 0.23472 3.0215 0.7041 0.92056 0.46942 1.6247 1.1097 2.1123 1.9209 0.48761 0.81121 0.73143 1.6725 0.73144 2.584-0.00001 0.8659-0.23243 1.6543-0.69726 2.3652-0.46486 0.71095-1.153 1.276-2.0645 1.6953 1.1849 0.27345 2.1055 0.84083 2.7617 1.7022 0.65624 0.86133 0.98436 1.9391 0.98438 3.2334-0.00002 1.75-0.63804 3.2334-1.9141 4.4502-1.276 1.2168-2.8893 1.8252-4.8398 1.8252-1.7591 0-3.2197-0.52409-4.3818-1.5723s-1.8252-2.4062-1.9892-4.0742z"/>
<path id="path3136" d="m467.49 376.95 5.3047-7.5469-4.9082-6.9727h3.0762l2.2285 3.4043c0.41927 0.64715 0.75651 1.1895 1.0117 1.627 0.40104-0.60155 0.77018-1.1348 1.1074-1.5996l2.4473-3.4316h2.9394l-5.0176 6.8359 5.4004 7.6836h-3.0215l-2.9805-4.5117-0.79297-1.2168-3.8144 5.7285z"/>
<path id="path3138" d="m432.67 340.33 2.4609-0.32812c0.28255 1.3945 0.76335 2.3994 1.4424 3.0146 0.67903 0.61523 1.5062 0.92285 2.4814 0.92285 1.1576 0 2.1351-0.40104 2.9326-1.2031 0.79751-0.80208 1.1963-1.7956 1.1963-2.9805-0.00001-1.1302-0.36915-2.0622-1.1074-2.7959-0.73829-0.73371-1.6771-1.1006-2.8164-1.1006-0.46485 0.00001-1.0436 0.0912-1.7363 0.27344l0.27344-2.1602c0.16406 0.0182 0.29622 0.0274 0.39648 0.0273 1.0482 0.00002 1.9915-0.27342 2.8301-0.82031 0.83853-0.54686 1.2578-1.39 1.2578-2.5293-0.00002-0.90232-0.30535-1.6497-0.91602-2.2422-0.61069-0.59243-1.3991-0.88866-2.3652-0.88868-0.95704 0.00002-1.7546 0.3008-2.3926 0.90235-0.63803 0.60158-1.0482 1.5039-1.2305 2.707l-2.4609-0.4375c0.30078-1.6497 0.98437-2.928 2.0508-3.835 1.0664-0.90688 2.3926-1.3603 3.9785-1.3604 1.0937 0.00002 2.1009 0.23472 3.0215 0.7041 0.92056 0.46942 1.6247 1.1097 2.1123 1.9209 0.48761 0.81121 0.73143 1.6725 0.73144 2.584-0.00001 0.8659-0.23243 1.6543-0.69726 2.3652-0.46486 0.71095-1.153 1.276-2.0645 1.6953 1.1849 0.27345 2.1055 0.84083 2.7617 1.7022 0.65624 0.86133 0.98436 1.9391 0.98438 3.2334-0.00002 1.75-0.63804 3.2334-1.9141 4.4502-1.276 1.2168-2.8893 1.8252-4.8398 1.8252-1.7591 0-3.2197-0.52409-4.3818-1.5723s-1.8252-2.4062-1.9892-4.0742z"/>
<path id="path3140" d="m438.12 373.71v-5.4961h-5.4551v-2.2969h5.4551v-5.4551h2.3242v5.4551h5.4551v2.2969h-5.4551v5.4961z"/>
<path id="path3142" d="m410.59 343.25v2.3652h-13.248c-0.0182-0.59245 0.0775-1.1621 0.28711-1.709 0.33724-0.90234 0.87728-1.791 1.6201-2.666 0.74283-0.875 1.8161-1.8867 3.2197-3.0352 2.1784-1.7864 3.6504-3.2015 4.416-4.2451 0.76561-1.0436 1.1484-2.0303 1.1484-2.96-0.00001-0.97524-0.34865-1.7978-1.0459-2.4678-0.69728-0.6699-1.6064-1.0049-2.7275-1.0049-1.1849 0.00001-2.1328 0.35548-2.8438 1.0664-0.71094 0.71096-1.071 1.6953-1.0801 2.9531l-2.5293-0.25977c0.17317-1.8867 0.82486-3.3245 1.9551-4.3135 1.1302-0.98892 2.6478-1.4834 4.5527-1.4834 1.9232 0.00002 3.4453 0.53322 4.5664 1.5996s1.6816 2.388 1.6816 3.9648c-0.00002 0.8021-0.16408 1.5905-0.49219 2.3652-0.32814 0.77476-0.87274 1.5905-1.6338 2.4473-0.76108 0.85678-2.0257 2.0326-3.794 3.5273-1.4766 1.2396-2.4245 2.0804-2.8438 2.5225-0.41927 0.44206-0.76563 0.88639-1.0391 1.333z"/>
<path id="path3144" d="m403.12 373.71v-5.4961h-5.4551v-2.2969h5.4551v-5.4551h2.3242v5.4551h5.4551v2.2969h-5.4551v5.4961z"/>
<path id="path3146" d="m371.92 345.62h-2.4609v-15.682c-0.59246 0.56512-1.3695 1.1302-2.3311 1.6953-0.96159 0.56512-1.8252 0.98894-2.5908 1.2715v-2.3789c1.3763-0.64712 2.5794-1.431 3.6094-2.3516 1.0299-0.92055 1.7591-1.8138 2.1875-2.6797h1.5859z"/>
<path id="path3148" d="m368.12 373.71v-5.4961h-5.4551v-2.2969h5.4551v-5.4551h2.3242v5.4551h5.4551v2.2969h-5.4551v5.4961z"/>
<path id="path3150" d="m327.65 335.73c-0.00001-2.3698 0.24381-4.277 0.73144-5.7217 0.48763-1.4446 1.2122-2.5589 2.1738-3.3428 0.96158-0.78384 2.1715-1.1758 3.6299-1.1758 1.0755 0.00002 2.0189 0.21649 2.8301 0.64941 0.81119 0.43296 1.4811 1.0573 2.0098 1.873 0.52863 0.81577 0.94334 1.8093 1.2441 2.9805s0.45115 2.7503 0.45117 4.7373c-0.00002 2.3516-0.24155 4.2497-0.72461 5.6943-0.48309 1.4447-1.2054 2.5612-2.167 3.3496-0.9616 0.78841-2.1761 1.1826-3.6436 1.1826-1.9323 0-3.4499-0.6927-4.5527-2.0781-1.3216-1.668-1.9824-4.3841-1.9824-8.1484zm2.5293 0c0 3.2904 0.38509 5.4802 1.1553 6.5693 0.77017 1.0892 1.7204 1.6338 2.8506 1.6338s2.0804-0.54688 2.8506-1.6406c0.77017-1.0937 1.1553-3.2812 1.1553-6.5625-0.00001-3.2995-0.3851-5.4915-1.1553-6.5762-0.77019-1.0846-1.7295-1.6269-2.8779-1.627-1.1302 0.00001-2.0326 0.47853-2.707 1.4355-0.84766 1.2214-1.2715 3.4772-1.2715 6.7676z"/>
<path id="path3152" d="m333.12 373.71v-5.4961h-5.4551v-2.2969h5.4551v-5.4551h2.3242v5.4551h5.4551v2.2969h-5.4551v5.4961z"/>
<path id="path3154" d="m292.67 340.33 2.4609-0.32812c0.28255 1.3945 0.76335 2.3994 1.4424 3.0146 0.67903 0.61523 1.5062 0.92285 2.4814 0.92285 1.1576 0 2.1351-0.40104 2.9326-1.2031 0.79751-0.80208 1.1963-1.7956 1.1963-2.9805-0.00001-1.1302-0.36915-2.0622-1.1074-2.7959-0.73829-0.73371-1.6771-1.1006-2.8164-1.1006-0.46485 0.00001-1.0436 0.0912-1.7363 0.27344l0.27344-2.1602c0.16406 0.0182 0.29622 0.0274 0.39648 0.0273 1.0482 0.00002 1.9915-0.27342 2.8301-0.82031 0.83853-0.54686 1.2578-1.39 1.2578-2.5293-0.00002-0.90232-0.30535-1.6497-0.91602-2.2422-0.61069-0.59243-1.3991-0.88866-2.3652-0.88868-0.95704 0.00002-1.7546 0.3008-2.3926 0.90235-0.63803 0.60158-1.0482 1.5039-1.2305 2.707l-2.4609-0.4375c0.30078-1.6497 0.98437-2.928 2.0508-3.835 1.0664-0.90688 2.3926-1.3603 3.9785-1.3604 1.0937 0.00002 2.1009 0.23472 3.0215 0.7041 0.92056 0.46942 1.6247 1.1097 2.1123 1.9209 0.48761 0.81121 0.73143 1.6725 0.73144 2.584-0.00001 0.8659-0.23243 1.6543-0.69726 2.3652-0.46486 0.71095-1.153 1.276-2.0645 1.6953 1.1849 0.27345 2.1055 0.84083 2.7617 1.7022 0.65624 0.86133 0.98436 1.9391 0.98438 3.2334-0.00002 1.75-0.63804 3.2334-1.9141 4.4502-1.276 1.2168-2.8893 1.8252-4.8398 1.8252-1.7591 0-3.2197-0.52409-4.3818-1.5723s-1.8252-2.4062-1.9892-4.0742z"/>
<path id="path3156" d="m298.12 373.71v-5.4961h-5.4551v-2.2969h5.4551v-5.4551h2.3242v5.4551h5.4551v2.2969h-5.4551v5.4961z"/>
<path id="path3158" d="m270.59 343.25v2.3652h-13.248c-0.0182-0.59245 0.0775-1.1621 0.28711-1.709 0.33724-0.90234 0.87728-1.791 1.6201-2.666 0.74283-0.875 1.8161-1.8867 3.2197-3.0352 2.1784-1.7864 3.6504-3.2015 4.416-4.2451 0.76561-1.0436 1.1484-2.0303 1.1484-2.96-0.00001-0.97524-0.34865-1.7978-1.0459-2.4678-0.69728-0.6699-1.6064-1.0049-2.7275-1.0049-1.1849 0.00001-2.1328 0.35548-2.8438 1.0664-0.71094 0.71096-1.071 1.6953-1.0801 2.9531l-2.5293-0.25977c0.17317-1.8867 0.82486-3.3245 1.9551-4.3135 1.1302-0.98892 2.6478-1.4834 4.5527-1.4834 1.9232 0.00002 3.4453 0.53322 4.5664 1.5996s1.6816 2.388 1.6816 3.9648c-0.00002 0.8021-0.16408 1.5905-0.49219 2.3652-0.32814 0.77476-0.87274 1.5905-1.6338 2.4473-0.76108 0.85678-2.0257 2.0326-3.794 3.5273-1.4766 1.2396-2.4245 2.0804-2.8438 2.5225-0.41927 0.44206-0.76563 0.88639-1.0391 1.333z"/>
<path id="path3160" d="m263.12 373.71v-5.4961h-5.4551v-2.2969h5.4551v-5.4551h2.3242v5.4551h5.4551v2.2969h-5.4551v5.4961z"/>
<path id="path3162" d="m231.92 345.62h-2.4609v-15.682c-0.59246 0.56512-1.3695 1.1302-2.3311 1.6953-0.96159 0.56512-1.8252 0.98894-2.5908 1.2715v-2.3789c1.3763-0.64712 2.5794-1.431 3.6094-2.3516 1.0299-0.92055 1.7591-1.8138 2.1875-2.6797h1.5859z"/>
<path id="path3164" d="m228.12 373.71v-5.4961h-5.4551v-2.2969h5.4551v-5.4551h2.3242v5.4551h5.4551v2.2969h-5.4551v5.4961z"/>
<path id="path3166" d="m187.65 335.73c-0.00001-2.3698 0.24381-4.277 0.73144-5.7217 0.48763-1.4446 1.2122-2.5589 2.1738-3.3428 0.96158-0.78384 2.1715-1.1758 3.6299-1.1758 1.0755 0.00002 2.0189 0.21649 2.8301 0.64941 0.81119 0.43296 1.4811 1.0573 2.0098 1.873 0.52863 0.81577 0.94334 1.8093 1.2441 2.9805s0.45115 2.7503 0.45117 4.7373c-0.00002 2.3516-0.24155 4.2497-0.72461 5.6943-0.48309 1.4447-1.2054 2.5612-2.167 3.3496-0.9616 0.78841-2.1761 1.1826-3.6436 1.1826-1.9323 0-3.4499-0.6927-4.5527-2.0781-1.3216-1.668-1.9824-4.3841-1.9824-8.1484zm2.5293 0c0 3.2904 0.38509 5.4802 1.1553 6.5693 0.77017 1.0892 1.7204 1.6338 2.8506 1.6338s2.0804-0.54688 2.8506-1.6406c0.77017-1.0937 1.1553-3.2812 1.1553-6.5625-0.00001-3.2995-0.3851-5.4915-1.1553-6.5762-0.77019-1.0846-1.7295-1.6269-2.8779-1.627-1.1302 0.00001-2.0326 0.47853-2.707 1.4355-0.84766 1.2214-1.2715 3.4772-1.2715 6.7676z"/>
<path id="path3168" d="m187.49 376.95 5.3047-7.5469-4.9082-6.9727h3.0762l2.2285 3.4043c0.41927 0.64715 0.75651 1.1895 1.0117 1.627 0.40104-0.60155 0.77018-1.1348 1.1074-1.5996l2.4473-3.4316h2.9394l-5.0176 6.8359 5.4004 7.6836h-3.0215l-2.9805-4.5117-0.79297-1.2168-3.8144 5.7285z"/>
</g>
<g id="text3105">
<path id="path3071" d="m26.776 335.62 2.6523 0.66993c-0.55601 2.1784-1.5563 3.8395-3.001 4.9834s-3.2106 1.7158-5.2979 1.7158c-2.1602 0-3.917-0.43978-5.2705-1.3193-1.3535-0.87956-2.3835-2.1533-3.0898-3.8213-0.70638-1.668-1.0596-3.459-1.0596-5.373-0.000001-2.0872 0.39876-3.9079 1.1963-5.4619 0.79752-1.554 1.9323-2.7344 3.4043-3.541 1.472-0.80662 3.0921-1.2099 4.8604-1.21 2.0052 0.00002 3.6914 0.51044 5.0586 1.5312s2.3196 2.4564 2.8574 4.3066l-2.6113 0.61524c-0.46486-1.4583-1.1393-2.5202-2.0234-3.1856-0.88413-0.66535-1.9961-0.99803-3.3359-0.99805-1.5404 0.00002-2.8278 0.36916-3.8623 1.1074-1.0345 0.73829-1.7614 1.7295-2.1807 2.9736-0.41928 1.2442-0.62891 2.527-0.62891 3.8486-0.000004 1.7044 0.24837 3.1924 0.74512 4.4639 0.49674 1.2715 1.2692 2.2217 2.3174 2.8506 1.0482 0.62891 2.1829 0.94337 3.4043 0.94336 1.4857 0.00001 2.7435-0.42838 3.7734-1.2852 1.0299-0.85677 1.7272-2.1282 2.0918-3.8145z"/>
<path id="path3073" d="m31.479 335.39c-0.000001-2.6888 0.74739-4.6803 2.2422-5.9746 1.2487-1.0755 2.7708-1.6133 4.5664-1.6133 1.9961 0.00002 3.6276 0.65399 4.8945 1.9619 1.2669 1.308 1.9004 3.1149 1.9004 5.4209-0.000015 1.8685-0.28029 3.3382-0.84082 4.4092-0.56056 1.071-1.3763 1.9027-2.4473 2.4951-1.071 0.59245-2.2399 0.88867-3.5068 0.88867-2.0326 0-3.6755-0.65169-4.9287-1.9551-1.2533-1.3034-1.8799-3.181-1.8799-5.6328zm2.5293 0c-0.000003 1.8594 0.4056 3.2516 1.2168 4.1768 0.81119 0.92513 1.832 1.3877 3.0625 1.3877 1.2213 0 2.2376-0.46485 3.0488-1.3945 0.81119-0.92968 1.2168-2.347 1.2168-4.252-0.000012-1.7956-0.40789-3.1559-1.2236-4.081-0.81576-0.92512-1.8298-1.3877-3.042-1.3877-1.2305 0.00001-2.2513 0.4603-3.0625 1.3809-0.8112 0.92058-1.2168 2.3106-1.2168 4.1699zm2.9121-9.0644 1.8184-3.8281h3.2266l-3.0078 3.8281z"/>
<path id="path3075" d="m57.401 342.65v-1.832c-0.92058 1.4401-2.2741 2.1602-4.0605 2.1602-1.1576 0-2.2217-0.31901-3.1924-0.95703-0.97071-0.63802-1.7227-1.529-2.2559-2.6728-0.5332-1.1439-0.7998-2.4586-0.7998-3.9443-0.000001-1.4492 0.24154-2.764 0.72461-3.9443s1.2077-2.085 2.1738-2.7139c0.96614-0.62889 2.0462-0.94334 3.2402-0.94336 0.87499 0.00002 1.6543 0.18459 2.3379 0.55371 0.68358 0.36916 1.2396 0.84995 1.668 1.4424v-7.1914h2.4473v20.043zm-7.7793-7.2461c-0.000003 1.8594 0.39192 3.2494 1.1758 4.1699 0.78385 0.92057 1.709 1.3809 2.7754 1.3809 1.0755 0 1.9892-0.43978 2.7412-1.3193 0.75194-0.87955 1.1279-2.2217 1.1279-4.0264-0.000011-1.987-0.38282-3.4453-1.1484-4.375-0.76563-0.92967-1.709-1.3945-2.8301-1.3945-1.0938 0.00001-2.0075 0.44663-2.7412 1.3398-0.73373 0.89324-1.1006 2.3014-1.1006 4.2246z"/>
<path id="path3077" d="m63.58 325.44v-2.8301h2.4609v2.8301zm0 17.213v-14.52h2.4609v14.52z"/>
<path id="path3079" d="m69.35 343.85 2.3926 0.35547c0.10026 0.73828 0.37825 1.276 0.83398 1.6133 0.61067 0.45573 1.4447 0.68359 2.502 0.6836 1.1393-0.00001 2.0189-0.22787 2.6387-0.6836 0.61978-0.45573 1.0391-1.0938 1.2578-1.9141 0.12759-0.5013 0.18684-1.554 0.17773-3.1582-1.0755 1.2669-2.4154 1.9004-4.0195 1.9004-1.9961 0-3.541-0.72005-4.6348-2.1602-1.0938-1.4401-1.6406-3.1673-1.6406-5.1816-0.000001-1.3854 0.25065-2.6637 0.75195-3.835 0.5013-1.1712 1.2282-2.0758 2.1807-2.7139 0.95247-0.638 2.0713-0.95701 3.3564-0.95703 1.7135 0.00002 3.1263 0.69272 4.2383 2.0781v-1.75h2.2695v12.551c-0.000014 2.2604-0.23016 3.8623-0.69043 4.8057-0.4603 0.94336-1.1895 1.6885-2.1875 2.2354-0.99806 0.54687-2.2262 0.82031-3.6846 0.82032-1.7318-0.00001-3.1309-0.38966-4.1973-1.169-1.0664-0.7793-1.5814-1.9528-1.5449-3.5205zm2.0371-8.7226c-0.000003 1.905 0.37825 3.2949 1.1348 4.1699 0.7565 0.875 1.7044 1.3125 2.8438 1.3125 1.1302 0 2.0781-0.43522 2.8438-1.3057 0.76561-0.87044 1.1484-2.2354 1.1484-4.0947-0.000012-1.7773-0.39422-3.1172-1.1826-4.0195-0.78842-0.90233-1.7386-1.3535-2.8506-1.3535-1.0938 0.00001-2.0234 0.44435-2.7891 1.333-0.76563 0.88868-1.1484 2.208-1.1484 3.958z"/>
<path id="path3081" d="m84.471 335.39c-0.000001-2.6888 0.74739-4.6803 2.2422-5.9746 1.2487-1.0755 2.7708-1.6133 4.5664-1.6133 1.9961 0.00002 3.6276 0.65399 4.8945 1.9619 1.2669 1.308 1.9004 3.1149 1.9004 5.4209-0.000014 1.8685-0.28029 3.3382-0.84082 4.4092-0.56056 1.071-1.3763 1.9027-2.4473 2.4951-1.071 0.59245-2.2399 0.88867-3.5068 0.88867-2.0326 0-3.6755-0.65169-4.9287-1.9551-1.2533-1.3034-1.8799-3.181-1.8799-5.6328zm2.5293 0c-0.000004 1.8594 0.4056 3.2516 1.2168 4.1768 0.81119 0.92513 1.832 1.3877 3.0625 1.3877 1.2213 0 2.2376-0.46485 3.0488-1.3945 0.81119-0.92968 1.2168-2.347 1.2168-4.252-0.000012-1.7956-0.40789-3.1559-1.2236-4.081-0.81576-0.92512-1.8298-1.3877-3.042-1.3877-1.2305 0.00001-2.2513 0.4603-3.0625 1.3809-0.8112 0.92058-1.2168 2.3106-1.2168 4.1699z"/>
<path id="path3083" d="m118.43 334.79v-2.3516l8.4902-0.0137v7.4375c-1.3034 1.0391-2.6478 1.8206-4.0332 2.3447-1.3854 0.52409-2.8073 0.78614-4.2656 0.78614-1.9688 0-3.7575-0.42155-5.3662-1.2646-1.6087-0.8431-2.8232-2.0622-3.6436-3.6572-0.82032-1.595-1.2305-3.3769-1.2305-5.3457 0-1.9505 0.40787-3.7712 1.2236-5.4619 0.81575-1.6907 1.9892-2.9463 3.5205-3.7666 1.5312-0.82029 3.2949-1.2304 5.291-1.2305 1.4492 0.00002 2.7594 0.23472 3.9307 0.7041 1.1712 0.46942 2.0895 1.1234 2.7549 1.9619 0.66535 0.83856 1.1712 1.9323 1.5176 3.2812l-2.3926 0.65625c-0.3008-1.0208-0.6745-1.8229-1.1211-2.4062-0.44663-0.58332-1.0846-1.0504-1.9141-1.4014-0.82944-0.35089-1.75-0.52635-2.7617-0.52637-1.2122 0.00002-2.2604 0.18459-3.1445 0.55372-0.88412 0.36915-1.5973 0.8545-2.1396 1.456-0.54233 0.60158-0.96388 1.2624-1.2646 1.9824-0.51042 1.2396-0.76563 2.584-0.76563 4.0332 0 1.7865 0.30761 3.2813 0.92285 4.4844 0.61523 1.2031 1.5107 2.0964 2.6865 2.6797 1.1758 0.58333 2.4245 0.875 3.7461 0.875 1.1484 0 2.2695-0.22103 3.3633-0.66309 1.0937-0.44205 1.9232-0.91373 2.4883-1.415v-3.7324z"/>
<path id="path3085" d="m130.48 342.65v-14.52h2.2148v2.2012c0.5651-1.0299 1.0869-1.709 1.5654-2.0371 0.47851-0.32811 1.0049-0.49217 1.5791-0.49219 0.82942 0.00002 1.6725 0.26434 2.5293 0.79297l-0.84766 2.2832c-0.60157-0.35545-1.2031-0.53319-1.8047-0.5332-0.53777 0.00001-1.0208 0.1618-1.4492 0.48535-0.42839 0.32358-0.73373 0.77247-0.91602 1.3467-0.27344 0.87501-0.41016 1.832-0.41016 2.8711v7.6016z"/>
<path id="path3087" d="m149.33 340.86c-0.91147 0.77474-1.7887 1.3216-2.6318 1.6406-0.84311 0.31901-1.7477 0.47851-2.7139 0.47851-1.5951 0-2.821-0.38964-3.6777-1.1689-0.85678-0.7793-1.2852-1.7751-1.2852-2.9873 0-0.71093 0.16178-1.3603 0.48535-1.9482 0.32357-0.58788 0.74739-1.0596 1.2715-1.415 0.52409-0.35546 1.1143-0.62434 1.7705-0.80664 0.48307-0.12759 1.2122-0.25064 2.1875-0.36914 1.987-0.23697 3.4499-0.51952 4.3887-0.84766 0.009-0.33723 0.0137-0.55142 0.0137-0.64257-0.00001-1.0026-0.23244-1.709-0.69727-2.1191-0.62892-0.55598-1.5632-0.83398-2.8027-0.83399-1.1576 0.00001-2.012 0.20281-2.5635 0.6084-0.55144 0.40561-0.95931 1.1234-1.2236 2.1533l-2.4062-0.32812c0.21875-1.0299 0.57877-1.8616 1.0801-2.4951 0.50129-0.63345 1.2259-1.1211 2.1738-1.4629 0.94791-0.34178 2.0462-0.51268 3.2949-0.5127 1.2396 0.00002 2.2467 0.14585 3.0215 0.4375 0.77473 0.29168 1.3444 0.65854 1.709 1.1006 0.36457 0.44207 0.61978 1.0003 0.76563 1.6748 0.082 0.41929 0.12303 1.1758 0.12305 2.2695v3.2812c-0.00002 2.2878 0.0524 3.7347 0.15722 4.3408 0.10481 0.60613 0.31216 1.1872 0.62207 1.7432h-2.5703c-0.25522-0.51042-0.41928-1.1074-0.49219-1.791zm-0.20508-5.4961c-0.89323 0.36459-2.2331 0.67449-4.0195 0.92969-1.0117 0.14584-1.7272 0.3099-2.1465 0.49218-0.41928 0.1823-0.74284 0.4489-0.9707 0.79981-0.22787 0.35092-0.3418 0.74056-0.3418 1.1689 0 0.65626 0.24837 1.2031 0.74512 1.6406 0.49674 0.4375 1.2236 0.65625 2.1807 0.65625 0.94791 0 1.791-0.20736 2.5293-0.62207 0.73827-0.41471 1.2806-0.98209 1.627-1.7022 0.26431-0.55598 0.39647-1.3763 0.39648-2.4609z"/>
<path id="path3089" d="m155.33 348.24-0.27344-2.3106c0.53776 0.14583 1.0072 0.21875 1.4082 0.21875 0.54687 0 0.98437-0.0912 1.3125-0.27344 0.32812-0.18229 0.597-0.4375 0.80664-0.76562 0.15494-0.2461 0.4056-0.85678 0.75196-1.832 0.0456-0.13671 0.11848-0.33723 0.21875-0.60156l-5.5098-14.547h2.6523l3.0215 8.4082c0.39192 1.0664 0.74283 2.1875 1.0527 3.3633 0.28255-1.1302 0.61979-2.2331 1.0117-3.3086l3.1035-8.4629h2.4609l-5.5234 14.766c-0.59246 1.595-1.0528 2.6934-1.3809 3.2949-0.43751 0.8112-0.93881 1.4059-1.5039 1.7842-0.56511 0.37825-1.2396 0.56738-2.0234 0.56739-0.47396-0.00001-1.0026-0.10027-1.5859-0.30078z"/>
<path id="path3091" d="m170.13 330.93v-2.8027h2.8027v2.8027zm0 11.717v-2.8027h2.8027v2.8027z"/>
<path id="path3093" d="m91.881 377.65v-20.043h7.5605c1.3307 0.00002 2.347 0.0638 3.0488 0.19141 0.98436 0.16408 1.8092 0.47625 2.4746 0.93652 0.66535 0.4603 1.2008 1.1052 1.6064 1.9346 0.40559 0.82944 0.60838 1.7409 0.6084 2.7344-0.00002 1.7044-0.54233 3.1468-1.627 4.3272-1.0846 1.1804-3.0443 1.7705-5.8789 1.7705h-5.1406v8.1484zm2.6523-10.514h5.1816c1.7135 0.00001 2.9303-0.319 3.6504-0.95703 0.72004-0.63801 1.0801-1.5358 1.0801-2.6934-0.00002-0.83853-0.21193-1.5563-0.63575-2.1533-0.42384-0.59699-0.9821-0.9912-1.6748-1.1826-0.44663-0.11847-1.2715-0.17772-2.4746-0.17774h-5.127z"/>
<path id="path3095" d="m119.74 375.86c-0.91147 0.77474-1.7888 1.3216-2.6318 1.6406-0.84311 0.31901-1.7477 0.47851-2.7139 0.47851-1.595 0-2.821-0.38964-3.6777-1.1689-0.85677-0.7793-1.2852-1.7751-1.2852-2.9873 0-0.71093 0.16178-1.3603 0.48535-1.9482 0.32357-0.58788 0.7474-1.0596 1.2715-1.415 0.52408-0.35546 1.1142-0.62434 1.7705-0.80664 0.48306-0.12759 1.2122-0.25064 2.1875-0.36914 1.987-0.23697 3.4498-0.51952 4.3887-0.84766 0.009-0.33723 0.0137-0.55142 0.0137-0.64257-0.00001-1.0026-0.23243-1.709-0.69727-2.1191-0.62891-0.55598-1.5632-0.83398-2.8027-0.83399-1.1576 0.00001-2.012 0.20281-2.5635 0.6084-0.55143 0.40561-0.95931 1.1234-1.2236 2.1533l-2.4062-0.32812c0.21875-1.0299 0.57877-1.8616 1.0801-2.4951 0.5013-0.63345 1.2259-1.1211 2.1738-1.4629 0.94791-0.34178 2.0462-0.51268 3.2949-0.5127 1.2396 0.00002 2.2467 0.14585 3.0215 0.4375 0.77473 0.29168 1.3444 0.65854 1.709 1.1006 0.36457 0.44207 0.61977 1.0003 0.76562 1.6748 0.082 0.41929 0.12303 1.1758 0.12305 2.2695v3.2812c-0.00002 2.2878 0.0524 3.7347 0.15722 4.3408 0.10481 0.60613 0.31217 1.1872 0.62208 1.7432h-2.5703c-0.25522-0.51042-0.41928-1.1074-0.49218-1.791zm-0.20508-5.4961c-0.89324 0.36459-2.2331 0.67449-4.0195 0.92969-1.0117 0.14584-1.7272 0.3099-2.1465 0.49218-0.41927 0.1823-0.74284 0.4489-0.9707 0.79981-0.22787 0.35092-0.3418 0.74056-0.3418 1.1689 0 0.65626 0.24837 1.2031 0.74512 1.6406 0.49674 0.4375 1.2236 0.65625 2.1807 0.65625 0.94791 0 1.791-0.20736 2.5293-0.62207 0.73827-0.41471 1.2806-0.98209 1.627-1.7022 0.26431-0.55598 0.39648-1.3763 0.39649-2.4609z"/>
<path id="path3097" d="m124.87 373.31 2.4336-0.38281c0.13672 0.97527 0.51725 1.7227 1.1416 2.2422 0.62435 0.51953 1.4971 0.7793 2.6182 0.7793 1.1302 0 1.9687-0.23015 2.5156-0.69043 0.54687-0.46029 0.8203-1.0003 0.82032-1.6201-0.00002-0.55599-0.24155-0.99349-0.72461-1.3125-0.33725-0.21875-1.1758-0.49674-2.5156-0.83399-1.8047-0.45572-3.0557-0.84992-3.7529-1.1826-0.69727-0.33268-1.2259-0.79296-1.5859-1.3809-0.36002-0.58788-0.54004-1.2373-0.54004-1.9482 0-0.64713 0.14812-1.2464 0.44434-1.7979 0.29622-0.55141 0.69954-1.0094 1.21-1.374 0.38281-0.28254 0.90462-0.52179 1.5654-0.71777 0.6608-0.19595 1.3695-0.29393 2.126-0.29395 1.1393 0.00002 2.1396 0.16408 3.001 0.49219 0.86132 0.32814 1.4971 0.77247 1.9072 1.333 0.41015 0.56056 0.6927 1.3102 0.84766 2.249l-2.4062 0.32813c-0.10939-0.74739-0.42612-1.3307-0.9502-1.75-0.5241-0.41926-1.2646-0.6289-2.2217-0.62891-1.1302 0.00001-1.9368 0.18686-2.4199 0.56055-0.48308 0.37371-0.72461 0.81121-0.72461 1.3125 0 0.31902 0.10026 0.60613 0.30078 0.86132 0.20052 0.26434 0.51497 0.48309 0.94336 0.65625 0.24609 0.0912 0.9707 0.3008 2.1738 0.62891 1.7409 0.46485 2.9554 0.84539 3.6436 1.1416 0.68814 0.29623 1.2282 0.7269 1.6201 1.292 0.39192 0.56511 0.58788 1.2669 0.58789 2.1055-0.00001 0.82032-0.23927 1.5928-0.71777 2.3174-0.47853 0.72461-1.169 1.2852-2.0713 1.6816-0.90235 0.39648-1.9232 0.59472-3.0625 0.59472-1.8867 0-3.3246-0.39192-4.3135-1.1758-0.98893-0.78385-1.6201-1.946-1.8936-3.4863z"/>
<path id="path3099" d="m138.87 373.31 2.4336-0.38281c0.13672 0.97527 0.51725 1.7227 1.1416 2.2422 0.62435 0.51953 1.4971 0.7793 2.6182 0.7793 1.1302 0 1.9687-0.23015 2.5156-0.69043 0.54687-0.46029 0.8203-1.0003 0.82032-1.6201-0.00002-0.55599-0.24155-0.99349-0.72461-1.3125-0.33725-0.21875-1.1758-0.49674-2.5156-0.83399-1.8047-0.45572-3.0557-0.84992-3.7529-1.1826-0.69727-0.33268-1.2259-0.79296-1.5859-1.3809-0.36002-0.58788-0.54004-1.2373-0.54004-1.9482 0-0.64713 0.14812-1.2464 0.44434-1.7979 0.29622-0.55141 0.69954-1.0094 1.21-1.374 0.38281-0.28254 0.90462-0.52179 1.5654-0.71777 0.6608-0.19595 1.3695-0.29393 2.126-0.29395 1.1393 0.00002 2.1396 0.16408 3.001 0.49219 0.86132 0.32814 1.4971 0.77247 1.9072 1.333 0.41015 0.56056 0.6927 1.3102 0.84766 2.249l-2.4062 0.32813c-0.10939-0.74739-0.42612-1.3307-0.9502-1.75-0.5241-0.41926-1.2646-0.6289-2.2217-0.62891-1.1302 0.00001-1.9368 0.18686-2.4199 0.56055-0.48308 0.37371-0.72461 0.81121-0.72461 1.3125 0 0.31902 0.10026 0.60613 0.30078 0.86132 0.20052 0.26434 0.51497 0.48309 0.94336 0.65625 0.24609 0.0912 0.9707 0.3008 2.1738 0.62891 1.7409 0.46485 2.9554 0.84539 3.6436 1.1416 0.68814 0.29623 1.2282 0.7269 1.6201 1.292 0.39192 0.56511 0.58788 1.2669 0.58789 2.1055-0.00001 0.82032-0.23927 1.5928-0.71777 2.3174-0.47853 0.72461-1.169 1.2852-2.0713 1.6816-0.90235 0.39648-1.9232 0.59472-3.0625 0.59472-1.8867 0-3.3246-0.39192-4.3135-1.1758-0.98893-0.78385-1.6201-1.946-1.8936-3.4863z"/>
<path id="path3101" d="m152.94 370.39c0-2.6888 0.74739-4.6803 2.2422-5.9746 1.2487-1.0755 2.7708-1.6133 4.5664-1.6133 1.9961 0.00002 3.6276 0.65399 4.8945 1.9619 1.2669 1.308 1.9004 3.1149 1.9004 5.4209-0.00001 1.8685-0.28028 3.3382-0.84082 4.4092-0.56056 1.071-1.3763 1.9027-2.4473 2.4951-1.071 0.59245-2.2399 0.88867-3.5068 0.88867-2.0326 0-3.6755-0.65169-4.9287-1.9551-1.2533-1.3034-1.8799-3.181-1.8799-5.6328zm2.5293 0c0 1.8594 0.4056 3.2516 1.2168 4.1768 0.81119 0.92513 1.832 1.3877 3.0625 1.3877 1.2214 0 2.2376-0.46485 3.0488-1.3945 0.81119-0.92968 1.2168-2.347 1.2168-4.252-0.00002-1.7956-0.40789-3.1559-1.2236-4.081-0.81576-0.92512-1.8298-1.3877-3.042-1.3877-1.2305 0.00001-2.2513 0.4603-3.0625 1.3809-0.8112 0.92058-1.2168 2.3106-1.2168 4.1699z"/>
<path id="path3103" d="m170.13 365.93v-2.8027h2.8027v2.8027zm0 11.717v-2.8027h2.8027v2.8027z"/>
</g>
<path id="path3111" d="m9.2857 311.65h720.71" stroke="#000" stroke-width="1px" fill="none"/>
</g>
</svg>
