<?xml version="1.0" encoding="UTF-8" standalone="no"?>
<!DOCTYPE svg  PUBLIC '-//W3C//DTD SVG 1.1//EN'  'http://www.w3.org/Graphics/SVG/1.1/DTD/svg11.dtd'>
<svg xmlns="http://www.w3.org/2000/svg" height="100%" width="100%" version="1.1" preserveAspectRatio="xMinYMin meet" xmlns:xlink="http://www.w3.org/1999/xlink" viewBox="0 0 672.000 504.000">
<desc>Matlab Figure Converted by PLOT2SVG written by Juerg Schwizer</desc>
<g id="topgroup">
<rect height="504" width="672" y="0" x="0" fill="#fff"/>
<g id="ID000000">
<clipPath id="b">
<rect y="37.8" x="87.36" height="410.76" width="520.8"/>
</clipPath>
<polygon points="87.36 448.56 608.16 448.56 608.16 37.8 87.36 37.8" stroke-width=".5pt" fill="#fff"/>
<polygon points="87.36 37.8 608.16 37.8 608.16 37.8" stroke-width=".5pt" fill="#fff"/>
<polygon points="87.36 448.56 87.36 448.56 87.36 37.8 87.36 37.8" stroke-width=".5pt" fill="#fff"/>
<polyline stroke="#000" stroke-width=".5pt" stroke-dasharray="2.0pt,2.0pt" points="145.23 448.56 145.23 37.8" fill="none"/>
<polyline stroke="#000" stroke-width=".5pt" stroke-dasharray="2.0pt,2.0pt" points="203.09 448.56 203.09 37.8" fill="none"/>
<polyline stroke="#000" stroke-width=".5pt" stroke-dasharray="2.0pt,2.0pt" points="260.96 448.56 260.96 37.8" fill="none"/>
<polyline stroke="#000" stroke-width=".5pt" stroke-dasharray="2.0pt,2.0pt" points="318.83 448.56 318.83 37.8" fill="none"/>
<polyline stroke="#000" stroke-width=".5pt" stroke-dasharray="2.0pt,2.0pt" points="376.69 448.56 376.69 37.8" fill="none"/>
<polyline stroke="#000" stroke-width=".5pt" stroke-dasharray="2.0pt,2.0pt" points="434.56 448.56 434.56 37.8" fill="none"/>
<polyline stroke="#000" stroke-width=".5pt" stroke-dasharray="2.0pt,2.0pt" points="492.43 448.56 492.43 37.8" fill="none"/>
<polyline stroke="#000" stroke-width=".5pt" stroke-dasharray="2.0pt,2.0pt" points="550.29 448.56 550.29 37.8" fill="none"/>
<polyline stroke="#000" stroke-width=".5pt" stroke-dasharray="2.0pt,2.0pt" points="87.36 366.41 608.16 366.41" fill="none"/>
<polyline stroke="#000" stroke-width=".5pt" stroke-dasharray="2.0pt,2.0pt" points="87.36 284.26 608.16 284.26" fill="none"/>
<polyline stroke="#000" stroke-width=".5pt" stroke-dasharray="2.0pt,2.0pt" points="87.36 202.1 608.16 202.1" fill="none"/>
<polyline stroke="#000" stroke-width=".5pt" stroke-dasharray="2.0pt,2.0pt" points="87.36 119.95 608.16 119.95" fill="none"/>
<polyline stroke="#000" stroke-width=".5pt" stroke-dasharray="2.0pt,2.0pt" points="145.23 37.8 145.23 37.8" fill="none"/>
<polyline stroke="#000" stroke-width=".5pt" stroke-dasharray="2.0pt,2.0pt" points="203.09 37.8 203.09 37.8" fill="none"/>
<polyline stroke="#000" stroke-width=".5pt" stroke-dasharray="2.0pt,2.0pt" points="260.96 37.8 260.96 37.8" fill="none"/>
<polyline stroke="#000" stroke-width=".5pt" stroke-dasharray="2.0pt,2.0pt" points="318.83 37.8 318.83 37.8" fill="none"/>
<polyline stroke="#000" stroke-width=".5pt" stroke-dasharray="2.0pt,2.0pt" points="376.69 37.8 376.69 37.8" fill="none"/>
<polyline stroke="#000" stroke-width=".5pt" stroke-dasharray="2.0pt,2.0pt" points="434.56 37.8 434.56 37.8" fill="none"/>
<polyline stroke="#000" stroke-width=".5pt" stroke-dasharray="2.0pt,2.0pt" points="492.43 37.8 492.43 37.8" fill="none"/>
<polyline stroke="#000" stroke-width=".5pt" stroke-dasharray="2.0pt,2.0pt" points="550.29 37.8 550.29 37.8" fill="none"/>
<polyline stroke="#000" stroke-width=".5pt" stroke-dasharray="2.0pt,2.0pt" points="87.36 37.8 608.16 37.8" fill="none"/>
<polyline stroke="#000" stroke-width=".5pt" stroke-dasharray="2.0pt,2.0pt" points="87.36 366.41 87.36 366.41" fill="none"/>
<polyline stroke="#000" stroke-width=".5pt" stroke-dasharray="2.0pt,2.0pt" points="87.36 284.26 87.36 284.26" fill="none"/>
<polyline stroke="#000" stroke-width=".5pt" stroke-dasharray="2.0pt,2.0pt" points="87.36 202.1 87.36 202.1" fill="none"/>
<polyline stroke="#000" stroke-width=".5pt" stroke-dasharray="2.0pt,2.0pt" points="87.36 119.95 87.36 119.95" fill="none"/>
<polyline stroke="#000" stroke-width=".5pt" stroke-dasharray="2.0pt,2.0pt" points="87.36 448.56 87.36 37.8" fill="none"/>
<g id="ID000002" clip-path="url(#b)">
<g stroke-width=".5pt" fill="#00f">
<circle r="1.667" cy="447.74" cx="87.36"/>
<circle r="1.667" cy="447.74" cx="88.517"/>
<circle r="1.667" cy="447.74" cx="89.675"/>
<circle r="1.667" cy="447.74" cx="90.832"/>
<circle r="1.667" cy="447.74" cx="91.989"/>
<circle r="1.667" cy="392.37" cx="93.147"/>
<circle r="1.667" cy="392.37" cx="94.304"/>
<circle r="1.667" cy="392.37" cx="95.461"/>
<circle r="1.667" cy="392.37" cx="96.619"/>
<circle r="1.667" cy="392.37" cx="97.776"/>
<circle r="1.667" cy="383.33" cx="98.933"/>
<circle r="1.667" cy="383.33" cx="100.09"/>
<circle r="1.667" cy="383.33" cx="100.09"/>
<circle r="1.667" cy="383.33" cx="101.25"/>
<circle r="1.667" cy="383.33" cx="102.4"/>
<circle r="1.667" cy="399.93" cx="103.56"/>
<circle r="1.667" cy="399.93" cx="104.72"/>
<circle r="1.667" cy="399.93" cx="105.88"/>
<circle r="1.667" cy="399.93" cx="107.04"/>
<circle r="1.667" cy="375.61" cx="108.19"/>
<circle r="1.667" cy="375.61" cx="109.35"/>
<circle r="1.667" cy="375.61" cx="110.51"/>
<circle r="1.667" cy="357.86" cx="111.66"/>
<circle r="1.667" cy="357.86" cx="112.82"/>
<circle r="1.667" cy="357.86" cx="113.98"/>
<circle r="1.667" cy="336.5" cx="115.14"/>
<circle r="1.667" cy="336.5" cx="116.29"/>
<circle r="1.667" cy="332.73" cx="117.45"/>
<circle r="1.667" cy="332.73" cx="117.45"/>
<circle r="1.667" cy="325.17" cx="118.61"/>
<circle r="1.667" cy="325.17" cx="119.76"/>
<circle r="1.667" cy="322.54" cx="120.92"/>
<circle r="1.667" cy="322.54" cx="122.08"/>
<circle r="1.667" cy="309.56" cx="123.24"/>
<circle r="1.667" cy="309.56" cx="124.4"/>
<circle r="1.667" cy="318.76" cx="125.55"/>
<circle r="1.667" cy="318.76" cx="126.71"/>
<circle r="1.667" cy="303.48" cx="129.02"/>
<circle r="1.667" cy="303.48" cx="130.18"/>
<circle r="1.667" cy="318.6" cx="131.34"/>
<circle r="1.667" cy="318.6" cx="132.5"/>
<circle r="1.667" cy="284.42" cx="133.65"/>
<circle r="1.667" cy="284.42" cx="134.81"/>
<circle r="1.667" cy="282.78" cx="135.97"/>
<circle r="1.667" cy="294.61" cx="137.12"/>
<circle r="1.667" cy="294.61" cx="138.28"/>
<circle r="1.667" cy="272.1" cx="138.28"/>
<circle r="1.667" cy="273.9" cx="140.6"/>
<circle r="1.667" cy="273.9" cx="141.76"/>
<circle r="1.667" cy="260.6" cx="142.91"/>
<circle r="1.667" cy="270.13" cx="144.07"/>
<circle r="1.667" cy="268.81" cx="145.23"/>
<circle r="1.667" cy="268.81" cx="146.38"/>
<circle r="1.667" cy="266.18" cx="147.54"/>
<circle r="1.667" cy="247.94" cx="148.7"/>
<circle r="1.667" cy="259.45" cx="149.86"/>
<circle r="1.667" cy="239.73" cx="152.17"/>
<circle r="1.667" cy="267.83" cx="153.33"/>
<circle r="1.667" cy="229.38" cx="154.48"/>
<circle r="1.667" cy="229.38" cx="155.64"/>
<circle r="1.667" cy="236.44" cx="156.8"/>
<circle r="1.667" cy="256.82" cx="157.96"/>
<circle r="1.667" cy="234.47" cx="159.12"/>
<circle r="1.667" cy="238.42" cx="160.27"/>
<circle r="1.667" cy="224.28" cx="161.43"/>
<circle r="1.667" cy="235.79" cx="162.59"/>
<circle r="1.667" cy="233.65" cx="164.9"/>
<circle r="1.667" cy="230.2" cx="166.06"/>
<circle r="1.667" cy="207.03" cx="167.22"/>
<circle r="1.667" cy="221.16" cx="168.37"/>
<circle r="1.667" cy="198.82" cx="169.53"/>
<circle r="1.667" cy="233.65" cx="170.69"/>
<circle r="1.667" cy="190.11" cx="171.84"/>
<circle r="1.667" cy="200.79" cx="173"/>
<circle r="1.667" cy="227.24" cx="175.32"/>
<circle r="1.667" cy="203.42" cx="177.63"/>
<circle r="1.667" cy="210.48" cx="178.79"/>
<circle r="1.667" cy="197.01" cx="179.95"/>
<circle r="1.667" cy="212.29" cx="181.1"/>
<circle r="1.667" cy="211.3" cx="182.26"/>
<circle r="1.667" cy="208.84" cx="183.42"/>
<circle r="1.667" cy="186" cx="184.58"/>
<circle r="1.667" cy="199.8" cx="185.73"/>
<circle r="1.667" cy="176.31" cx="186.89"/>
<circle r="1.667" cy="165.79" cx="189.2"/>
<circle r="1.667" cy="176.31" cx="190.36"/>
<circle r="1.667" cy="206.21" cx="191.52"/>
<circle r="1.667" cy="179.59" cx="192.68"/>
<circle r="1.667" cy="189.12" cx="193.84"/>
<circle r="1.667" cy="175.16" cx="194.99"/>
<circle r="1.667" cy="191.1" cx="196.15"/>
<circle r="1.667" cy="190.11" cx="197.31"/>
<circle r="1.667" cy="165.79" cx="199.62"/>
<circle r="1.667" cy="182.72" cx="200.78"/>
<circle r="1.667" cy="158.24" cx="201.94"/>
<circle r="1.667" cy="199.8" cx="203.09"/>
<circle r="1.667" cy="162.01" cx="204.25"/>
<circle r="1.667" cy="194.05" cx="205.41"/>
<circle r="1.667" cy="166.94" cx="206.56"/>
<circle r="1.667" cy="177.29" cx="207.72"/>
<circle r="1.667" cy="163.33" cx="210.04"/>
<circle r="1.667" cy="180.58" cx="211.2"/>
<circle r="1.667" cy="178.44" cx="212.35"/>
<circle r="1.667" cy="153.14" cx="213.51"/>
<circle r="1.667" cy="171.71" cx="214.67"/>
<circle r="1.667" cy="144.93" cx="215.82"/>
<circle r="1.667" cy="187.97" cx="216.98"/>
<circle r="1.667" cy="149.2" cx="218.14"/>
<circle r="1.667" cy="181.73" cx="219.3"/>
<circle r="1.667" cy="153.14" cx="221.61"/>
<circle r="1.667" cy="149.2" cx="222.77"/>
<circle r="1.667" cy="166.94" cx="223.92"/>
<circle r="1.667" cy="166.94" cx="225.08"/>
<circle r="1.667" cy="166.94" cx="227.4"/>
<circle r="1.667" cy="159.55" cx="228.56"/>
<circle r="1.667" cy="133.42" cx="229.71"/>
<circle r="1.667" cy="177.29" cx="230.87"/>
<circle r="1.667" cy="124.22" cx="233.18"/>
<circle r="1.667" cy="170.56" cx="234.34"/>
<circle r="1.667" cy="144.93" cx="235.5"/>
<circle r="1.667" cy="154.46" cx="236.66"/>
<circle r="1.667" cy="160.86" cx="237.81"/>
<circle r="1.667" cy="160.86" cx="238.97"/>
<circle r="1.667" cy="160.86" cx="240.13"/>
<circle r="1.667" cy="133.42" cx="241.28"/>
<circle r="1.667" cy="127.35" cx="242.44"/>
<circle r="1.667" cy="172.86" cx="244.76"/>
<circle r="1.667" cy="119.3" cx="245.92"/>
<circle r="1.667" cy="168.09" cx="247.07"/>
<circle r="1.667" cy="139.34" cx="248.23"/>
<circle r="1.667" cy="150.51" cx="249.39"/>
<circle r="1.667" cy="154.46" cx="250.54"/>
<circle r="1.667" cy="155.77" cx="251.7"/>
<circle r="1.667" cy="154.46" cx="254.02"/>
<circle r="1.667" cy="146.4" cx="255.17"/>
<circle r="1.667" cy="119.3" cx="256.33"/>
<circle r="1.667" cy="165.79" cx="257.49"/>
<circle r="1.667" cy="124.22" cx="258.64"/>
<circle r="1.667" cy="158.24" cx="259.8"/>
<circle r="1.667" cy="130.47" cx="260.96"/>
<circle r="1.667" cy="125.7" cx="262.12"/>
<circle r="1.667" cy="146.4" cx="264.43"/>
<circle r="1.667" cy="146.4" cx="265.59"/>
<circle r="1.667" cy="117.65" cx="266.75"/>
<circle r="1.667" cy="139.34" cx="267.9"/>
<circle r="1.667" cy="159.55" cx="269.06"/>
<circle r="1.667" cy="103.85" cx="270.22"/>
<circle r="1.667" cy="117.65" cx="271.38"/>
<circle r="1.667" cy="125.7" cx="272.53"/>
<circle r="1.667" cy="136.38" cx="274.85"/>
<circle r="1.667" cy="142.13" cx="277.16"/>
<circle r="1.667" cy="143.61" cx="278.32"/>
<circle r="1.667" cy="142.13" cx="279.48"/>
<circle r="1.667" cy="134.9" cx="280.64"/>
<circle r="1.667" cy="107.46" cx="281.79"/>
<circle r="1.667" cy="155.77" cx="282.95"/>
<circle r="1.667" cy="112.56" cx="284.11"/>
<circle r="1.667" cy="149.2" cx="286.42"/>
<circle r="1.667" cy="130.47" cx="287.58"/>
<circle r="1.667" cy="114.37" cx="288.74"/>
<circle r="1.667" cy="136.38" cx="289.89"/>
<circle r="1.667" cy="136.38" cx="291.05"/>
<circle r="1.667" cy="109.27" cx="292.21"/>
<circle r="1.667" cy="100.24" cx="293.36"/>
<circle r="1.667" cy="150.51" cx="294.52"/>
<circle r="1.667" cy="107.46" cx="296.84"/>
<circle r="1.667" cy="143.61" cx="298"/>
<circle r="1.667" cy="116.01" cx="299.15"/>
<circle r="1.667" cy="110.92" cx="300.31"/>
<circle r="1.667" cy="131.95" cx="301.47"/>
<circle r="1.667" cy="131.95" cx="302.62"/>
<circle r="1.667" cy="105.66" cx="303.78"/>
<circle r="1.667" cy="98.428" cx="306.1"/>
<circle r="1.667" cy="149.2" cx="307.25"/>
<circle r="1.667" cy="105.66" cx="308.41"/>
<circle r="1.667" cy="143.61" cx="309.57"/>
<circle r="1.667" cy="114.37" cx="310.72"/>
<circle r="1.667" cy="110.92" cx="311.88"/>
<circle r="1.667" cy="131.95" cx="313.04"/>
<circle r="1.667" cy="131.95" cx="314.2"/>
<circle r="1.667" cy="103.85" cx="316.51"/>
<circle r="1.667" cy="94.649" cx="317.67"/>
<circle r="1.667" cy="146.4" cx="318.83"/>
<circle r="1.667" cy="86.927" cx="319.98"/>
<circle r="1.667" cy="139.34" cx="321.14"/>
<circle r="1.667" cy="110.92" cx="322.3"/>
<circle r="1.667" cy="107.46" cx="323.46"/>
<circle r="1.667" cy="127.35" cx="326.93"/>
<circle r="1.667" cy="127.35" cx="328.08"/>
<circle r="1.667" cy="98.428" cx="329.24"/>
<circle r="1.667" cy="90.87" cx="330.4"/>
<circle r="1.667" cy="142.13" cx="331.56"/>
<circle r="1.667" cy="100.24" cx="332.72"/>
<circle r="1.667" cy="136.38" cx="333.87"/>
<circle r="1.667" cy="107.46" cx="335.03"/>
<circle r="1.667" cy="103.85" cx="336.19"/>
<circle r="1.667" cy="124.22" cx="338.5"/>
<circle r="1.667" cy="127.35" cx="339.66"/>
<circle r="1.667" cy="98.428" cx="340.82"/>
<circle r="1.667" cy="92.842" cx="341.97"/>
<circle r="1.667" cy="142.13" cx="343.13"/>
<circle r="1.667" cy="100.24" cx="344.29"/>
<circle r="1.667" cy="137.86" cx="345.44"/>
<circle r="1.667" cy="119.3" cx="347.76"/>
<circle r="1.667" cy="105.66" cx="348.92"/>
<circle r="1.667" cy="127.35" cx="350.08"/>
<circle r="1.667" cy="127.35" cx="351.23"/>
<circle r="1.667" cy="96.621" cx="352.39"/>
<circle r="1.667" cy="90.87" cx="353.55"/>
<circle r="1.667" cy="140.82" cx="354.7"/>
<circle r="1.667" cy="96.621" cx="357.02"/>
<circle r="1.667" cy="136.38" cx="358.18"/>
<circle r="1.667" cy="117.65" cx="359.33"/>
<circle r="1.667" cy="102.04" cx="360.49"/>
<circle r="1.667" cy="124.22" cx="361.65"/>
<circle r="1.667" cy="124.22" cx="362.8"/>
<circle r="1.667" cy="116.01" cx="365.12"/>
<circle r="1.667" cy="86.927" cx="366.28"/>
<circle r="1.667" cy="78.876" cx="367.44"/>
<circle r="1.667" cy="94.649" cx="368.59"/>
<circle r="1.667" cy="102.04" cx="369.75"/>
<circle r="1.667" cy="114.37" cx="370.91"/>
<circle r="1.667" cy="122.58" cx="372.06"/>
<circle r="1.667" cy="122.58" cx="375.54"/>
<circle r="1.667" cy="92.842" cx="376.69"/>
<circle r="1.667" cy="114.37" cx="377.85"/>
<circle r="1.667" cy="136.38" cx="379.01"/>
<circle r="1.667" cy="76.74" cx="380.16"/>
<circle r="1.667" cy="131.95" cx="381.32"/>
<circle r="1.667" cy="100.24" cx="382.48"/>
<circle r="1.667" cy="96.621" cx="384.8"/>
<circle r="1.667" cy="119.3" cx="385.95"/>
<circle r="1.667" cy="119.3" cx="387.11"/>
<circle r="1.667" cy="90.87" cx="388.27"/>
<circle r="1.667" cy="82.984" cx="389.42"/>
<circle r="1.667" cy="72.632" cx="390.58"/>
<circle r="1.667" cy="90.87" cx="391.74"/>
<circle r="1.667" cy="98.428" cx="394.05"/>
<circle r="1.667" cy="109.27" cx="395.21"/>
<circle r="1.667" cy="117.65" cx="396.37"/>
<circle r="1.667" cy="119.3" cx="397.52"/>
<circle r="1.667" cy="117.65" cx="398.68"/>
<circle r="1.667" cy="112.56" cx="399.84"/>
<circle r="1.667" cy="80.848" cx="401"/>
<circle r="1.667" cy="72.632" cx="403.31"/>
<circle r="1.667" cy="130.47" cx="404.47"/>
<circle r="1.667" cy="98.428" cx="405.63"/>
<circle r="1.667" cy="94.649" cx="406.78"/>
<circle r="1.667" cy="116.01" cx="407.94"/>
<circle r="1.667" cy="119.3" cx="409.1"/>
<circle r="1.667" cy="88.899" cx="410.26"/>
<circle r="1.667" cy="80.848" cx="411.41"/>
<circle r="1.667" cy="134.9" cx="413.73"/>
<circle r="1.667" cy="90.87" cx="414.88"/>
<circle r="1.667" cy="128.82" cx="416.04"/>
<circle r="1.667" cy="98.428" cx="417.2"/>
<circle r="1.667" cy="96.621" cx="418.36"/>
<circle r="1.667" cy="116.01" cx="419.52"/>
<circle r="1.667" cy="117.65" cx="420.67"/>
<circle r="1.667" cy="110.92" cx="422.99"/>
<circle r="1.667" cy="82.984" cx="425.3"/>
<circle r="1.667" cy="74.604" cx="426.46"/>
<circle r="1.667" cy="92.842" cx="427.62"/>
<circle r="1.667" cy="102.04" cx="428.77"/>
<circle r="1.667" cy="112.56" cx="429.93"/>
<circle r="1.667" cy="120.94" cx="431.09"/>
<circle r="1.667" cy="120.94" cx="432.24"/>
<circle r="1.667" cy="90.87" cx="434.56"/>
<circle r="1.667" cy="114.37" cx="435.72"/>
<circle r="1.667" cy="82.984" cx="436.88"/>
<circle r="1.667" cy="76.74" cx="438.03"/>
<circle r="1.667" cy="130.47" cx="439.19"/>
<circle r="1.667" cy="100.24" cx="440.35"/>
<circle r="1.667" cy="96.621" cx="441.5"/>
<circle r="1.667" cy="117.65" cx="443.82"/>
<circle r="1.667" cy="119.3" cx="444.98"/>
<circle r="1.667" cy="88.899" cx="446.13"/>
<circle r="1.667" cy="80.848" cx="447.29"/>
<circle r="1.667" cy="134.9" cx="448.45"/>
<circle r="1.667" cy="90.87" cx="449.6"/>
<circle r="1.667" cy="128.82" cx="450.76"/>
<circle r="1.667" cy="109.27" cx="451.92"/>
<circle r="1.667" cy="94.649" cx="454.24"/>
<circle r="1.667" cy="117.65" cx="455.39"/>
<circle r="1.667" cy="117.65" cx="456.55"/>
<circle r="1.667" cy="110.92" cx="457.71"/>
<circle r="1.667" cy="78.876" cx="458.86"/>
<circle r="1.667" cy="72.632" cx="460.02"/>
<circle r="1.667" cy="86.927" cx="461.18"/>
<circle r="1.667" cy="94.649" cx="462.34"/>
<circle r="1.667" cy="109.27" cx="464.65"/>
<circle r="1.667" cy="114.37" cx="465.81"/>
<circle r="1.667" cy="117.65" cx="466.96"/>
<circle r="1.667" cy="84.955" cx="468.12"/>
<circle r="1.667" cy="109.27" cx="469.28"/>
<circle r="1.667" cy="78.876" cx="470.44"/>
<circle r="1.667" cy="70.332" cx="471.6"/>
<circle r="1.667" cy="127.35" cx="475.07"/>
<circle r="1.667" cy="94.649" cx="476.22"/>
<circle r="1.667" cy="90.87" cx="477.38"/>
<circle r="1.667" cy="114.37" cx="478.54"/>
<circle r="1.667" cy="116.01" cx="479.7"/>
<circle r="1.667" cy="84.955" cx="480.85"/>
<circle r="1.667" cy="78.876" cx="482.01"/>
<circle r="1.667" cy="130.47" cx="483.17"/>
<circle r="1.667" cy="86.927" cx="485.48"/>
<circle r="1.667" cy="125.7" cx="486.64"/>
<circle r="1.667" cy="107.46" cx="487.8"/>
<circle r="1.667" cy="90.87" cx="488.96"/>
<circle r="1.667" cy="114.37" cx="490.11"/>
<circle r="1.667" cy="114.37" cx="491.27"/>
<circle r="1.667" cy="107.46" cx="492.43"/>
<circle r="1.667" cy="76.74" cx="493.58"/>
<circle r="1.667" cy="68.196" cx="494.74"/>
<circle r="1.667" cy="84.955" cx="497.06"/>
<circle r="1.667" cy="94.649" cx="498.21"/>
<circle r="1.667" cy="103.85" cx="499.37"/>
<circle r="1.667" cy="110.92" cx="500.53"/>
<circle r="1.667" cy="114.37" cx="501.68"/>
<circle r="1.667" cy="82.984" cx="502.84"/>
<circle r="1.667" cy="105.66" cx="504"/>
<circle r="1.667" cy="128.82" cx="505.16"/>
<circle r="1.667" cy="68.196" cx="507.47"/>
<circle r="1.667" cy="124.22" cx="508.63"/>
<circle r="1.667" cy="92.842" cx="509.79"/>
<circle r="1.667" cy="88.899" cx="510.94"/>
<circle r="1.667" cy="110.92" cx="512.1"/>
<circle r="1.667" cy="112.56" cx="513.26"/>
<circle r="1.667" cy="82.984" cx="514.42"/>
<circle r="1.667" cy="74.604" cx="515.57"/>
<circle r="1.667" cy="128.82" cx="516.73"/>
<circle r="1.667" cy="82.984" cx="519.04"/>
<circle r="1.667" cy="124.22" cx="520.2"/>
<circle r="1.667" cy="103.85" cx="521.36"/>
<circle r="1.667" cy="90.87" cx="523.68"/>
<circle r="1.667" cy="116.01" cx="524.83"/>
<circle r="1.667" cy="112.56" cx="525.99"/>
<circle r="1.667" cy="109.27" cx="527.15"/>
<circle r="1.667" cy="76.74" cx="528.3"/>
<circle r="1.667" cy="68.196" cx="529.46"/>
<circle r="1.667" cy="86.927" cx="531.78"/>
<circle r="1.667" cy="94.649" cx="532.93"/>
<circle r="1.667" cy="107.46" cx="534.09"/>
<circle r="1.667" cy="112.56" cx="535.25"/>
<circle r="1.667" cy="117.65" cx="536.4"/>
<circle r="1.667" cy="86.927" cx="537.56"/>
<circle r="1.667" cy="107.46" cx="538.72"/>
<circle r="1.667" cy="78.876" cx="539.88"/>
<circle r="1.667" cy="70.332" cx="542.19"/>
<circle r="1.667" cy="125.7" cx="543.35"/>
<circle r="1.667" cy="94.649" cx="544.51"/>
<circle r="1.667" cy="90.87" cx="545.66"/>
<circle r="1.667" cy="114.37" cx="546.82"/>
<circle r="1.667" cy="114.37" cx="547.98"/>
<circle r="1.667" cy="84.955" cx="549.14"/>
<circle r="1.667" cy="76.74" cx="550.29"/>
<circle r="1.667" cy="130.47" cx="552.61"/>
<circle r="1.667" cy="84.955" cx="553.76"/>
<circle r="1.667" cy="125.7" cx="554.92"/>
<circle r="1.667" cy="105.66" cx="556.08"/>
<circle r="1.667" cy="90.87" cx="557.24"/>
<circle r="1.667" cy="114.37" cx="558.4"/>
<circle r="1.667" cy="114.37" cx="559.55"/>
<circle r="1.667" cy="107.46" cx="560.71"/>
<circle r="1.667" cy="76.74" cx="561.87"/>
<circle r="1.667" cy="68.196" cx="564.18"/>
<circle r="1.667" cy="84.955" cx="565.34"/>
<circle r="1.667" cy="92.842" cx="566.5"/>
<circle r="1.667" cy="105.66" cx="567.65"/>
<circle r="1.667" cy="112.56" cx="568.81"/>
<circle r="1.667" cy="112.56" cx="569.97"/>
<circle r="1.667" cy="84.955" cx="571.12"/>
<circle r="1.667" cy="105.66" cx="573.44"/>
<circle r="1.667" cy="130.47" cx="574.6"/>
<circle r="1.667" cy="66.06" cx="576.91"/>
<circle r="1.667" cy="124.22" cx="578.07"/>
<circle r="1.667" cy="92.842" cx="579.23"/>
<circle r="1.667" cy="88.899" cx="580.38"/>
<circle r="1.667" cy="110.92" cx="581.54"/>
<circle r="1.667" cy="112.56" cx="582.7"/>
<circle r="1.667" cy="82.984" cx="583.86"/>
<circle r="1.667" cy="74.604" cx="585.01"/>
<circle r="1.667" cy="128.82" cx="587.33"/>
<circle r="1.667" cy="82.984" cx="588.48"/>
<circle r="1.667" cy="124.22" cx="589.64"/>
<circle r="1.667" cy="103.85" cx="590.8"/>
<circle r="1.667" cy="86.927" cx="591.96"/>
<circle r="1.667" cy="112.56" cx="593.12"/>
<circle r="1.667" cy="112.56" cx="594.27"/>
<circle r="1.667" cy="105.66" cx="595.43"/>
<circle r="1.667" cy="74.604" cx="596.59"/>
<circle r="1.667" cy="66.06" cx="598.9"/>
<circle r="1.667" cy="82.984" cx="600.06"/>
<circle r="1.667" cy="90.87" cx="601.22"/>
<circle r="1.667" cy="103.85" cx="602.37"/>
<circle r="1.667" cy="110.92" cx="603.53"/>
<circle r="1.667" cy="112.56" cx="604.69"/>
<circle r="1.667" cy="80.848" cx="605.84"/>
<circle r="1.667" cy="103.85" cx="607"/>
<circle r="1.667" cy="127.35" cx="608.16"/>
</g>
</g>
<g id="ID000003">
<g transform="translate(346.76 485.54)">
<g>
<text font-size="10pt" text-anchor="middle" y="0.000" x="0.000" font-family="Helvetica" fill="#000000">Tempo[s]</text>
</g>
</g>
</g>
<g id="ID000004">
<g transform="translate(54.372 244.18)">
<g transform="rotate(-90)">
<text font-size="10pt" text-anchor="middle" y="0.000" x="0.000" font-family="Helvetica" fill="#000000">Velocidade[rad/s]</text>
</g>
</g>
</g>
<g id="ID000005" clip-path="url(#b)">
<polyline stroke="#0f0" stroke-width=".5pt" points="87.36 448.56 88.517 443.42 89.675 438.36 90.832 433.37 91.989 428.46 93.147 423.61 94.304 418.84 95.461 414.14 96.619 409.51 97.776 404.95 98.933 400.45 100.09 396.02 100.09 396.02 101.25 391.66 102.4 387.35 103.56 383.12 104.72 378.94 105.88 374.83 107.04 370.77 108.19 366.78 109.35 362.85 110.51 358.97 111.66 355.15 112.82 351.39 113.98 347.68 115.14 344.02 116.29 340.42 117.45 336.88 117.45 336.88 118.61 333.38 119.76 329.94 120.92 326.55 122.08 323.2 123.24 319.91 124.4 316.67 125.55 313.47 126.71 310.32 129.02 304.16 130.18 301.14 131.34 298.18 132.5 295.25 133.65 292.37 134.81 289.53 135.97 286.73 137.12 283.97 138.28 281.26 138.28 281.26 140.6 275.94 141.76 273.35 142.91 270.79 144.07 268.26 145.23 265.78 146.38 263.33 147.54 260.92 148.7 258.54 149.86 256.2 152.17 251.62 153.33 249.38 154.48 247.17 155.64 245 156.8 242.86 157.96 240.74 159.12 238.66 160.27 236.62 161.43 234.6 162.59 232.61 164.9 228.72 166.06 226.81 167.22 224.94 168.37 223.09 169.53 221.27 170.69 219.48 171.84 217.71 173 215.97 175.32 212.56 177.63 209.26 178.79 207.64 179.95 206.05 181.1 204.48 182.26 202.93 183.42 201.41 184.58 199.91 185.73 198.43 186.89 196.97 189.2 194.12 190.36 192.73 191.52 191.36 192.68 190 193.84 188.67 194.99 187.36 196.15 186.06 197.31 184.79 199.62 182.29 200.78 181.07 201.94 179.87 203.09 178.69 204.25 177.52 205.41 176.37 206.56 175.24 207.72 174.12 210.04 171.94 211.2 170.87 212.35 169.82 213.51 168.78 214.67 167.76 215.82 166.76 216.98 165.77 218.14 164.79 219.3 163.83 221.61 161.95 222.77 161.02 223.92 160.12 225.08 159.22 227.4 157.48 228.56 156.62 229.71 155.78 230.87 154.95 233.18 153.33 234.34 152.54 235.5 151.75 236.66 150.98 237.81 150.22 238.97 149.48 240.13 148.74 241.28 148.01 242.44 147.3 244.76 145.9 245.92 145.22 247.07 144.54 248.23 143.88 249.39 143.22 250.54 142.58 251.7 141.94 254.02 140.7 255.17 140.09 256.33 139.5 257.49 138.9 258.64 138.32 259.8 137.75 260.96 137.19 262.12 136.63 264.43 135.54 265.59 135.01 266.75 134.49 267.9 133.97 269.06 133.46 270.22 132.96 271.38 132.47 272.53 131.98 274.85 131.03 277.16 130.11 278.32 129.66 279.48 129.21 280.64 128.77 281.79 128.34 282.95 127.91 284.11 127.49 286.42 126.67 287.58 126.27 288.74 125.88 289.89 125.49 291.05 125.1 292.21 124.73 293.36 124.35 294.52 123.99 296.84 123.27 298 122.92 299.15 122.57 300.31 122.23 301.47 121.9 302.62 121.56 303.78 121.24 306.1 120.6 307.25 120.29 308.41 119.98 309.57 119.68 310.72 119.38 311.88 119.09 313.04 118.8 314.2 118.51 316.51 117.95 317.67 117.68 318.83 117.41 319.98 117.15 321.14 116.89 322.3 116.63 323.46 116.38 326.93 115.64 328.08 115.4 329.24 115.16 330.4 114.93 331.56 114.7 332.72 114.48 333.87 114.26 335.03 114.04 336.19 113.82 338.5 113.4 339.66 113.2 340.82 112.99 341.97 112.79 343.13 112.6 344.29 112.4 345.44 112.21 347.76 111.84 348.92 111.66 350.08 111.48 351.23 111.3 352.39 111.12 353.55 110.95 354.7 110.78 357.02 110.45 358.18 110.29 359.33 110.13 360.49 109.97 361.65 109.81 362.8 109.66 365.12 109.36 366.28 109.21 367.44 109.07 368.59 108.93 369.75 108.79 370.91 108.65 372.06 108.51 375.54 108.12 376.69 107.99 377.85 107.86 379.01 107.74 380.16 107.62 381.32 107.5 382.48 107.38 384.8 107.14 385.95 107.03 387.11 106.92 388.27 106.81 389.42 106.7 390.58 106.59 391.74 106.49 394.05 106.28 395.21 106.18 396.37 106.08 397.52 105.98 398.68 105.88 399.84 105.79 401 105.7 403.31 105.51 404.47 105.42 405.63 105.33 406.78 105.25 407.94 105.16 409.1 105.08 410.26 104.99 411.41 104.91 413.73 104.75 414.88 104.67 416.04 104.6 417.2 104.52 418.36 104.44 419.52 104.37 420.67 104.3 422.99 104.15 425.3 104.02 426.46 103.95 427.62 103.88 428.77 103.82 429.93 103.75 431.09 103.69 432.24 103.62 434.56 103.5 435.72 103.44 436.88 103.38 438.03 103.32 439.19 103.26 440.35 103.21 441.5 103.15 443.82 103.04 444.98 102.99 446.13 102.94 447.29 102.89 448.45 102.83 449.6 102.78 450.76 102.74 451.92 102.69 454.24 102.59 455.39 102.54 456.55 102.5 457.71 102.45 458.86 102.41 460.02 102.36 461.18 102.32 462.34 102.28 464.65 102.19 465.81 102.15 466.96 102.11 468.12 102.07 469.28 102.03 470.44 102 471.6 101.96 475.07 101.85 476.22 101.81 477.38 101.78 478.54 101.74 479.7 101.71 480.85 101.67 482.01 101.64 483.17 101.61 485.48 101.54 486.64 101.51 487.8 101.48 488.96 101.45 490.11 101.42 491.27 101.39 492.43 101.36 493.58 101.33 494.74 101.3 497.06 101.25 498.21 101.22 499.37 101.2 500.53 101.17 501.68 101.14 502.84 101.12 504 101.09 505.16 101.07 507.47 101.02 508.63 101 509.79 100.97 510.94 100.95 512.1 100.93 513.26 100.9 514.42 100.88 515.57 100.86 516.73 100.84 519.04 100.8 520.2 100.78 521.36 100.76 523.68 100.72 524.83 100.7 525.99 100.68 527.15 100.66 528.3 100.64 529.46 100.63 531.78 100.59 532.93 100.57 534.09 100.56 535.25 100.54 536.4 100.52 537.56 100.51 538.72 100.49 539.88 100.47 542.19 100.44 543.35 100.43 544.51 100.41 545.66 100.4 546.82 100.38 547.98 100.37 549.14 100.36 550.29 100.34 552.61 100.32 553.76 100.3 554.92 100.29 556.08 100.28 557.24 100.26 558.4 100.25 559.55 100.24 560.71 100.23 561.87 100.21 564.18 100.19 565.34 100.18 566.5 100.17 567.65 100.16 568.81 100.15 569.97 100.14 571.12 100.12 573.44 100.1 574.6 100.09 576.91 100.07 578.07 100.06 579.23 100.05 580.38 100.04 581.54 100.04 582.7 100.03 583.86 100.02 585.01 100.01 587.33 99.991 588.48 99.983 589.64 99.974 590.8 99.966 591.96 99.958 593.12 99.95 594.27 99.942 595.43 99.934 596.59 99.927 598.9 99.912 600.06 99.904 601.22 99.897 602.37 99.89 603.53 99.883 604.69 99.876 605.84 99.869 607 99.863 608.16 99.856" fill="none"/>
</g>
<polyline stroke="#000" stroke-width=".5pt" points="145.23 448.56 145.23 443.35" fill="none"/>
<polyline stroke="#000" stroke-width=".5pt" points="203.09 448.56 203.09 443.35" fill="none"/>
<polyline stroke="#000" stroke-width=".5pt" points="260.96 448.56 260.96 443.35" fill="none"/>
<polyline stroke="#000" stroke-width=".5pt" points="318.83 448.56 318.83 443.35" fill="none"/>
<polyline stroke="#000" stroke-width=".5pt" points="376.69 448.56 376.69 443.35" fill="none"/>
<polyline stroke="#000" stroke-width=".5pt" points="434.56 448.56 434.56 443.35" fill="none"/>
<polyline stroke="#000" stroke-width=".5pt" points="492.43 448.56 492.43 443.35" fill="none"/>
<polyline stroke="#000" stroke-width=".5pt" points="550.29 448.56 550.29 443.35" fill="none"/>
<polyline stroke="#000" stroke-width=".5pt" points="87.36 448.56 608.16 448.56" fill="none"/>
<polyline stroke="#000" stroke-width=".5pt" points="145.23 37.8 145.23 43.008" fill="none"/>
<polyline stroke="#000" stroke-width=".5pt" points="203.09 37.8 203.09 43.008" fill="none"/>
<polyline stroke="#000" stroke-width=".5pt" points="260.96 37.8 260.96 43.008" fill="none"/>
<polyline stroke="#000" stroke-width=".5pt" points="318.83 37.8 318.83 43.008" fill="none"/>
<polyline stroke="#000" stroke-width=".5pt" points="376.69 37.8 376.69 43.008" fill="none"/>
<polyline stroke="#000" stroke-width=".5pt" points="434.56 37.8 434.56 43.008" fill="none"/>
<polyline stroke="#000" stroke-width=".5pt" points="492.43 37.8 492.43 43.008" fill="none"/>
<polyline stroke="#000" stroke-width=".5pt" points="550.29 37.8 550.29 43.008" fill="none"/>
<polyline stroke="#000" stroke-width=".5pt" points="87.36 37.8 608.16 37.8" fill="none"/>
<g transform="translate(87.36 468.58)">
<g>
<text font-size="10pt" text-anchor="middle" y="0.000" x="0.000" font-family="Helvetica" fill="#000000">0</text>
</g>
</g>
<g transform="translate(145.23 468.58)">
<g>
<text font-size="10pt" text-anchor="middle" y="0.000" x="0.000" font-family="Helvetica" fill="#000000">0.05</text>
</g>
</g>
<g transform="translate(203.09 468.58)">
<g>
<text font-size="10pt" text-anchor="middle" y="0.000" x="0.000" font-family="Helvetica" fill="#000000">0.1</text>
</g>
</g>
<g transform="translate(260.96 468.58)">
<g>
<text font-size="10pt" text-anchor="middle" y="0.000" x="0.000" font-family="Helvetica" fill="#000000">0.15</text>
</g>
</g>
<g transform="translate(318.83 468.58)">
<g>
<text font-size="10pt" text-anchor="middle" y="0.000" x="0.000" font-family="Helvetica" fill="#000000">0.2</text>
</g>
</g>
<g transform="translate(376.69 468.58)">
<g>
<text font-size="10pt" text-anchor="middle" y="0.000" x="0.000" font-family="Helvetica" fill="#000000">0.25</text>
</g>
</g>
<g transform="translate(434.56 468.58)">
<g>
<text font-size="10pt" text-anchor="middle" y="0.000" x="0.000" font-family="Helvetica" fill="#000000">0.3</text>
</g>
</g>
<g transform="translate(492.43 468.58)">
<g>
<text font-size="10pt" text-anchor="middle" y="0.000" x="0.000" font-family="Helvetica" fill="#000000">0.35</text>
</g>
</g>
<g transform="translate(550.29 468.58)">
<g>
<text font-size="10pt" text-anchor="middle" y="0.000" x="0.000" font-family="Helvetica" fill="#000000">0.4</text>
</g>
</g>
<g transform="translate(608.16 468.58)">
<g>
<text font-size="10pt" text-anchor="middle" y="0.000" x="0.000" font-family="Helvetica" fill="#000000">0.45</text>
</g>
</g>
<polyline stroke="#000" stroke-width=".5pt" points="87.36 366.41 92.568 366.41" fill="none"/>
<polyline stroke="#000" stroke-width=".5pt" points="87.36 284.26 92.568 284.26" fill="none"/>
<polyline stroke="#000" stroke-width=".5pt" points="87.36 202.1 92.568 202.1" fill="none"/>
<polyline stroke="#000" stroke-width=".5pt" points="87.36 119.95 92.568 119.95" fill="none"/>
<polyline stroke="#000" stroke-width=".5pt" points="87.36 448.56 87.36 37.8" fill="none"/>
<polyline stroke="#000" stroke-width=".5pt" points="608.16 366.41 602.95 366.41" fill="none"/>
<polyline stroke="#000" stroke-width=".5pt" points="608.16 284.26 602.95 284.26" fill="none"/>
<polyline stroke="#000" stroke-width=".5pt" points="608.16 202.1 602.95 202.1" fill="none"/>
<polyline stroke="#000" stroke-width=".5pt" points="608.16 119.95 602.95 119.95" fill="none"/>
<polyline stroke="#000" stroke-width=".5pt" points="608.16 448.56 608.16 37.8" fill="none"/>
<g transform="translate(76.944 453.06)">
<g>
<text font-size="10pt" text-anchor="end" y="0.000" x="0.000" font-family="Helvetica" fill="#000000">0</text>
</g>
</g>
<g transform="translate(76.944 370.91)">
<g>
<text font-size="10pt" text-anchor="end" y="0.000" x="0.000" font-family="Helvetica" fill="#000000">5</text>
</g>
</g>
<g transform="translate(76.944 288.76)">
<g>
<text font-size="10pt" text-anchor="end" y="0.000" x="0.000" font-family="Helvetica" fill="#000000">10</text>
</g>
</g>
<g transform="translate(76.944 206.6)">
<g>
<text font-size="10pt" text-anchor="end" y="0.000" x="0.000" font-family="Helvetica" fill="#000000">15</text>
</g>
</g>
<g transform="translate(76.944 124.45)">
<g>
<text font-size="10pt" text-anchor="end" y="0.000" x="0.000" font-family="Helvetica" fill="#000000">20</text>
</g>
</g>
<g transform="translate(76.944 42.3)">
<g>
<text font-size="10pt" text-anchor="end" y="0.000" x="0.000" font-family="Helvetica" fill="#000000">25</text>
</g>
</g>
<polyline stroke="#000" stroke-width=".5pt" points="87.36 448.56 87.36 444.45" fill="none"/>
<polyline stroke="#000" stroke-width=".5pt" points="87.36 448.56 87.36 448.56" fill="none"/>
</g>
<g id="ID000009">
<clipPath id="a">
<rect y="395.19" x="372.78" height="47.25" width="228.67"/>
</clipPath>
<polygon points="372.78 442.44 601.44 442.44 601.44 395.19 372.78 395.19" stroke-width=".5pt" fill="#fff"/>
<polygon points="372.78 395.19 601.44 395.19 601.44 395.19" stroke-width=".5pt" fill="#fff"/>
<polygon points="372.78 442.44 372.78 442.44 372.78 395.19 372.78 395.19" stroke-width=".5pt" fill="#fff"/>
<g id="ID000011">
<g transform="translate(436.46 413.27)">
<g>
<text font-size="10pt" y="0.000" x="0.000" font-family="Helvetica" fill="#000000">pontos do experimento</text>
</g>
</g>
</g>
<g id="ID000012" clip-path="url(#a)"></g>
<g id="ID000013" clip-path="url(#a)">
<circle r="1.667" cy="408.42" cx="406.61" stroke-width=".5pt" fill="#00f"/>
</g>
<g id="ID000014">
<g transform="translate(436.46 435.38)">
<g>
<text font-size="10pt" y="0.000" x="0.000" font-family="Helvetica" fill="#000000">regressão exponencial</text>
</g>
</g>
</g>
<g id="ID000015" clip-path="url(#a)">
<polyline stroke="#0f0" stroke-width=".5pt" points="382.44 429.22 430.78 429.22" fill="none"/>
</g>
<g id="ID000016" clip-path="url(#a)"></g>
<g stroke="#000" stroke-width=".5pt" fill="none">
<polyline points="372.78 442.44 601.44 442.44"/>
<polyline points="372.78 395.19 601.44 395.19"/>
<polyline points="372.78 442.44 372.78 395.19"/>
<polyline points="601.44 442.44 601.44 395.19"/>
<polyline points="372.78 442.44 372.78 441.97"/>
<polyline points="372.78 442.44 372.78 442.44"/>
</g>
</g>
</g>
</svg>
