<?xml version="1.0" encoding="UTF-8" standalone="no"?>
<!-- Created with Inkscape (http://www.inkscape.org/) -->

<svg
   xmlns:dc="http://purl.org/dc/elements/1.1/"
   xmlns:cc="http://creativecommons.org/ns#"
   xmlns:rdf="http://www.w3.org/1999/02/22-rdf-syntax-ns#"
   xmlns:svg="http://www.w3.org/2000/svg"
   xmlns="http://www.w3.org/2000/svg"
   xmlns:sodipodi="http://sodipodi.sourceforge.net/DTD/sodipodi-0.dtd"
   xmlns:inkscape="http://www.inkscape.org/namespaces/inkscape"
   width="761.70837"
   height="266.17902"
   id="svg2"
   version="1.1"
   inkscape:version="0.48.1 "
   sodipodi:docname="encoder_borda.svg">
  <title
     id="title4766">Encoder de Quadratura</title>
  <defs
     id="defs4">
    <marker
       inkscape:stockid="Arrow1Mend"
       orient="auto"
       refY="0"
       refX="0"
       id="Arrow1Mend"
       style="overflow:visible">
      <path
         id="path4310"
         d="M 0,0 5,-5 -12.5,0 5,5 0,0 z"
         style="fill-rule:evenodd;stroke:#000000;stroke-width:1pt;marker-start:none"
         transform="matrix(-0.4,0,0,-0.4,-4,0)"
         inkscape:connector-curvature="0" />
    </marker>
    <marker
       inkscape:stockid="Arrow2Send"
       orient="auto"
       refY="0"
       refX="0"
       id="Arrow2Send"
       style="overflow:visible">
      <path
         id="path4334"
         style="font-size:12px;fill-rule:evenodd;stroke-width:0.625;stroke-linejoin:round"
         d="M 8.7185878,4.0337352 -2.2072895,0.01601326 8.7185884,-4.0017078 c -1.7454984,2.3720609 -1.7354408,5.6174519 -6e-7,8.035443 z"
         transform="matrix(-0.3,0,0,-0.3,0.69,0)"
         inkscape:connector-curvature="0" />
    </marker>
    <marker
       inkscape:stockid="Arrow2Lend"
       orient="auto"
       refY="0"
       refX="0"
       id="Arrow2Lend"
       style="overflow:visible">
      <path
         id="path4322"
         style="font-size:12px;fill-rule:evenodd;stroke-width:0.625;stroke-linejoin:round"
         d="M 8.7185878,4.0337352 -2.2072895,0.01601326 8.7185884,-4.0017078 c -1.7454984,2.3720609 -1.7354408,5.6174519 -6e-7,8.035443 z"
         transform="matrix(-1.1,0,0,-1.1,-1.1,0)"
         inkscape:connector-curvature="0" />
    </marker>
    <marker
       inkscape:stockid="Arrow1Lstart"
       orient="auto"
       refY="0"
       refX="0"
       id="Arrow1Lstart"
       style="overflow:visible">
      <path
         id="path4301"
         d="M 0,0 5,-5 -12.5,0 5,5 0,0 z"
         style="fill-rule:evenodd;stroke:#000000;stroke-width:1pt;marker-start:none"
         transform="matrix(0.8,0,0,0.8,10,0)"
         inkscape:connector-curvature="0" />
    </marker>
    <marker
       inkscape:stockid="Arrow1Lend"
       orient="auto"
       refY="0"
       refX="0"
       id="Arrow1Lend"
       style="overflow:visible">
      <path
         id="path4304"
         d="M 0,0 5,-5 -12.5,0 5,5 0,0 z"
         style="fill-rule:evenodd;stroke:#000000;stroke-width:1pt;marker-start:none"
         transform="matrix(-0.8,0,0,-0.8,-10,0)"
         inkscape:connector-curvature="0" />
    </marker>
  </defs>
  <sodipodi:namedview
     id="base"
     pagecolor="#ffffff"
     bordercolor="#666666"
     borderopacity="1.0"
     inkscape:pageopacity="0.0"
     inkscape:pageshadow="2"
     inkscape:zoom="0.7"
     inkscape:cx="254.72757"
     inkscape:cy="339.43403"
     inkscape:document-units="px"
     inkscape:current-layer="text4105"
     showgrid="false"
     showguides="true"
     inkscape:guide-bbox="true"
     inkscape:window-width="1920"
     inkscape:window-height="1005"
     inkscape:window-x="-9"
     inkscape:window-y="-9"
     inkscape:window-maximized="1"
     fit-margin-top="0"
     fit-margin-left="0"
     fit-margin-right="0"
     fit-margin-bottom="0" />
  <metadata
     id="metadata7">
    <rdf:RDF>
      <cc:Work
         rdf:about="">
        <dc:format>image/svg+xml</dc:format>
        <dc:type
           rdf:resource="http://purl.org/dc/dcmitype/StillImage" />
        <dc:title>Encoder de Quadratura</dc:title>
      </cc:Work>
    </rdf:RDF>
  </metadata>
  <g
     inkscape:label="Camada 1"
     inkscape:groupmode="layer"
     id="layer1"
     transform="translate(25.941391,-447.62714)">
    <text
       xml:space="preserve"
       style="font-size:40px;font-style:normal;font-weight:normal;line-height:125%;letter-spacing:0px;word-spacing:0px;writing-mode:tb-rl;fill:#000000;fill-opacity:1;stroke:none;font-family:Sans"
       x="85.862968"
       y="733.15399"
       id="text2993"
       sodipodi:linespacing="125%"><tspan
         sodipodi:role="line"
         id="tspan2995"
         x="733.15399"
         y="85.862968" /></text>
    <text
       xml:space="preserve"
       style="font-size:40px;font-style:normal;font-weight:normal;line-height:125%;letter-spacing:0px;word-spacing:0px;writing-mode:tb-rl;fill:#000000;fill-opacity:1;stroke:none;font-family:Sans"
       x="66.428574"
       y="788.79077"
       id="text3051"
       sodipodi:linespacing="125%"><tspan
         sodipodi:role="line"
         x="788.79077"
         y="66.428574"
         id="tspan3059" /></text>
    <text
       xml:space="preserve"
       style="font-size:28px;font-style:normal;font-weight:normal;line-height:125%;letter-spacing:0px;word-spacing:0px;writing-mode:tb-rl;fill:#000000;fill-opacity:1;stroke:none;font-family:Sans"
       x="585"
       y="788.79077"
       id="text3063"
       sodipodi:linespacing="125%"><tspan
         sodipodi:role="line"
         id="tspan3065"
         x="788.79077"
         y="585" /></text>
    <path
       sodipodi:nodetypes="cccccccccccccccccc"
       inkscape:connector-curvature="0"
       id="path4061"
       d="m 149.46773,530.77192 60.67007,0 0,-82.64478 65.599,0 0,82.64478 68.62946,0 0,-82.64478 70.69037,0 0,82.64478 72.53736,0 0,-82.64478 67.03772,0 0,82.64478 70.08921,0 0,-82.64478 69.12982,0 0,82.64478 41.41626,0"
       style="fill:none;stroke:#000000;stroke-width:1;stroke-linecap:butt;stroke-linejoin:miter;stroke-miterlimit:4;stroke-opacity:1;stroke-dasharray:none;marker-start:none" />
    <path
       sodipodi:nodetypes="cccccccccccccc"
       style="fill:none;stroke:#000000;stroke-width:1;stroke-linecap:butt;stroke-linejoin:miter;stroke-miterlimit:4;stroke-opacity:1;stroke-dasharray:none;marker-start:none"
       d="m 176.74185,630.8697 66.67007,0 0,-82.64478 63.599,0 0,82.64478 74.62946,0 0,-82.64478 136.69037,0 0,82.64478 71.68022,0 0,-82.64478 70.60915,0 0,82.64478 67.51778,0"
       id="path4063"
       inkscape:connector-curvature="0" />
    <g
       style="font-size:28px;font-style:normal;font-weight:normal;text-align:end;line-height:125%;letter-spacing:0px;word-spacing:0px;writing-mode:lr-tb;text-anchor:end;fill:#000000;fill-opacity:1;stroke:none;font-family:Sans"
       id="text4099">
      <path
         d="m -25.941391,671.93365 0,-20.04296 7.519531,0 c 1.531239,2e-5 2.759428,0.20282 3.684571,0.60839 0.925116,0.40562 1.649724,1.02997 2.173828,1.87305 0.524072,0.84312 0.786116,1.72495 0.786133,2.64551 -1.7e-5,0.85678 -0.232438,1.66342 -0.697266,2.41992 -0.464859,0.75652 -1.166681,1.3672 -2.105469,1.83203 1.212225,0.35548 2.14419,0.9616 2.795899,1.81836 0.651675,0.85678 0.977521,1.8685 0.977539,3.03516 -1.8e-5,0.9388 -0.19826,1.81153 -0.594727,2.61816 -0.3965,0.80664 -0.886409,1.42871 -1.469726,1.86621 -0.583348,0.4375 -1.314793,0.76791 -2.194336,0.99121 -0.87957,0.22331 -1.957368,0.33496 -3.233399,0.33496 z m 2.652344,-11.62109 4.333984,0 c 1.175771,1e-5 2.018869,-0.0775 2.529297,-0.23242 0.674467,-0.20051 1.182604,-0.53319 1.524414,-0.99805 0.341784,-0.46483 0.512682,-1.04816 0.512695,-1.75 -1.3e-5,-0.66535 -0.159518,-1.25096 -0.478515,-1.75683 -0.319023,-0.50585 -0.774752,-0.8522 -1.367188,-1.03907 -0.592459,-0.18683 -1.608734,-0.28025 -3.048828,-0.28027 l -4.005859,0 z m 0,9.25586 4.990234,0 c 0.85676,0 1.458322,-0.0319 1.804688,-0.0957 0.610665,-0.10938 1.121081,-0.29167 1.53125,-0.54688 0.410142,-0.2552 0.747382,-0.62662 1.011718,-1.11426 0.264309,-0.48762 0.39647,-1.05045 0.396485,-1.68847 -1.5e-5,-0.74739 -0.191421,-1.3968 -0.574219,-1.94824 -0.382826,-0.55143 -0.91375,-0.9388 -1.592773,-1.16211 -0.679048,-0.2233 -1.656587,-0.33496 -2.932618,-0.33496 l -4.634765,0 z"
         style=""
         id="path3093" />
      <path
         d="m -8.3593597,664.67389 c -10e-7,-2.68879 0.7473941,-4.68033 2.2421875,-5.97461 1.2486935,-1.07551 2.7708273,-1.61327 4.5664062,-1.61328 1.99608402,10e-6 3.6275928,0.65398 4.8945313,1.96191 1.2669131,1.30796 1.9003761,3.11492 1.9003906,5.4209 -1.45e-5,1.8685 -0.2802877,3.33822 -0.8408203,4.40918 -0.56056,1.07097 -1.3763144,1.90267 -2.4472657,2.49512 -1.07097367,0.59245 -2.23991781,0.88867 -3.5068359,0.88867 -2.0325578,0 -3.6754598,-0.65169 -4.9287109,-1.95508 -1.2532568,-1.30338 -1.8798838,-3.18098 -1.8798828,-5.63281 z m 2.5292968,0 c -3.4e-6,1.85938 0.4055951,3.25163 1.2167969,4.17676 0.8111924,0.92513 1.8320248,1.38769 3.0625,1.38769 1.22134522,0 2.23762024,-0.46484 3.0488281,-1.39453 0.8111864,-0.92968 1.2167849,-2.347 1.2167969,-4.25195 -1.2e-5,-1.79557 -0.4078892,-3.15592 -1.2236328,-4.08106 -0.81576518,-0.92511 -1.82976156,-1.38768 -3.0419922,-1.38769 -1.2304752,10e-6 -2.2513076,0.4603 -3.0625,1.38086 -0.8112018,0.92058 -1.2168003,2.31055 -1.2167969,4.16992 z"
         style=""
         id="path3095" />
      <path
         d="m 8.1152496,671.93365 0,-14.51953 2.2148434,0 0,2.20118 c 0.5651,-1.02994 1.086909,-1.70897 1.56543,-2.03711 0.47851,-0.32811 1.004876,-0.49218 1.579102,-0.49219 0.829419,10e-6 1.672517,0.26434 2.529297,0.79297 l -0.847657,2.2832 c -0.60157,-0.35546 -1.203132,-0.53319 -1.804687,-0.5332 -0.537767,10e-6 -1.02084,0.16179 -1.449219,0.48535 -0.428391,0.32358 -0.733729,0.77247 -0.916016,1.34668 -0.273442,0.87501 -0.41016,1.83204 -0.410156,2.87109 l 0,7.60156 z"
         style=""
         id="path3097" />
      <path
         d="m 26.914078,671.93365 0,-1.83203 c -0.920584,1.44011 -2.274098,2.16016 -4.060547,2.16016 -1.157558,0 -2.221685,-0.31901 -3.192383,-0.95703 -0.970706,-0.63802 -1.722658,-1.52897 -2.255859,-2.67285 -0.533205,-1.14388 -0.799806,-2.45866 -0.799805,-3.94434 -1e-6,-1.44921 0.241535,-2.76399 0.724609,-3.94433 0.483071,-1.18033 1.20768,-2.08495 2.173829,-2.71387 0.966141,-0.62889 2.046218,-0.94335 3.240234,-0.94336 0.874992,10e-6 1.654288,0.18458 2.337891,0.55371 0.683583,0.36915 1.239572,0.84995 1.667968,1.44238 l 0,-7.1914 2.447266,0 0,20.04296 z m -7.779297,-7.24609 c -4e-6,1.85938 0.391923,3.24935 1.175781,4.16992 0.783849,0.92058 1.708978,1.38086 2.775391,1.38086 1.075512,0 1.989248,-0.43977 2.741211,-1.31933 0.751942,-0.87956 1.127918,-2.22168 1.127929,-4.02637 -1.1e-5,-1.98697 -0.382823,-3.4453 -1.148437,-4.375 -0.765635,-0.92968 -1.708993,-1.39452 -2.830078,-1.39453 -1.093756,10e-6 -2.007493,0.44662 -2.741211,1.33984 -0.733728,0.89324 -1.10059,2.30144 -1.100586,4.22461 z"
         style=""
         id="path3099" />
      <path
         d="m 42.554703,670.14264 c -0.911469,0.77474 -1.788747,1.32161 -2.631836,1.64062 -0.843107,0.31901 -1.747728,0.47852 -2.713867,0.47852 -1.595057,0 -2.820967,-0.38965 -3.677735,-1.16895 -0.856772,-0.77929 -1.285157,-1.77506 -1.285156,-2.9873 -10e-7,-0.71093 0.161783,-1.36035 0.485352,-1.94824 0.323565,-0.58789 0.747393,-1.05957 1.271484,-1.41504 0.524085,-0.35546 1.114254,-0.62434 1.770508,-0.80664 0.483068,-0.1276 1.212234,-0.25064 2.1875,-0.36914 1.98697,-0.23697 3.449859,-0.51953 4.388672,-0.84766 0.0091,-0.33723 0.01366,-0.55142 0.01367,-0.64258 -1.2e-5,-1.00259 -0.232433,-1.70897 -0.697266,-2.11914 -0.628916,-0.55597 -1.56316,-0.83397 -2.802734,-0.83398 -1.157559,10e-6 -2.01205,0.20281 -2.563477,0.6084 -0.551437,0.40561 -0.959314,1.12338 -1.223633,2.15332 l -2.40625,-0.32813 c 0.218748,-1.02993 0.578774,-1.86164 1.080078,-2.49512 0.501299,-0.63345 1.225908,-1.12108 2.173828,-1.46289 0.947911,-0.34178 2.046218,-0.51268 3.294922,-0.51269 1.239574,10e-6 2.246735,0.14585 3.021485,0.4375 0.774727,0.29168 1.344388,0.65854 1.708984,1.10058 0.36457,0.44207 0.619778,1.00034 0.765625,1.67481 0.08202,0.41928 0.123033,1.17579 0.123047,2.26953 l 0,3.28125 c -1.4e-5,2.28776 0.0524,3.7347 0.157226,4.34082 0.104804,0.60612 0.312161,1.18718 0.622071,1.74316 l -2.570313,0 c -0.25522,-0.51041 -0.419282,-1.10742 -0.492187,-1.79101 z m -0.205078,-5.49609 c -0.89324,0.36459 -2.233082,0.67448 -4.019532,0.92968 -1.011724,0.14584 -1.727219,0.3099 -2.146484,0.49219 -0.419275,0.1823 -0.742843,0.4489 -0.970703,0.79981 -0.227868,0.35091 -0.341801,0.74056 -0.341797,1.16894 -4e-6,0.65625 0.248369,1.20313 0.745117,1.64063 0.49674,0.4375 1.223627,0.65625 2.180664,0.65625 0.947909,0 1.791008,-0.20736 2.529297,-0.62207 0.738272,-0.41472 1.280589,-0.9821 1.626953,-1.70215 0.264312,-0.55599 0.396474,-1.3763 0.396485,-2.46094 z"
         style=""
         id="path3101" />
      <path
         d="m 65.851578,671.93365 0,-1.83203 c -0.920584,1.44011 -2.274098,2.16016 -4.060547,2.16016 -1.157558,0 -2.221685,-0.31901 -3.192383,-0.95703 -0.970706,-0.63802 -1.722658,-1.52897 -2.255859,-2.67285 -0.533205,-1.14388 -0.799806,-2.45866 -0.799805,-3.94434 -10e-7,-1.44921 0.241535,-2.76399 0.724609,-3.94433 0.483071,-1.18033 1.20768,-2.08495 2.173829,-2.71387 0.966141,-0.62889 2.046218,-0.94335 3.240234,-0.94336 0.874992,10e-6 1.654288,0.18458 2.337891,0.55371 0.683583,0.36915 1.239572,0.84995 1.667968,1.44238 l 0,-7.1914 2.447266,0 0,20.04296 z m -7.779297,-7.24609 c -4e-6,1.85938 0.391923,3.24935 1.175781,4.16992 0.783849,0.92058 1.708978,1.38086 2.775391,1.38086 1.075512,0 1.989248,-0.43977 2.741211,-1.31933 0.751942,-0.87956 1.127918,-2.22168 1.127929,-4.02637 -1.1e-5,-1.98697 -0.382823,-3.4453 -1.148437,-4.375 -0.765635,-0.92968 -1.708993,-1.39452 -2.830078,-1.39453 -1.093756,10e-6 -2.007493,0.44662 -2.741211,1.33984 -0.733728,0.89324 -1.10059,2.30144 -1.100586,4.22461 z"
         style=""
         id="path3103" />
      <path
         d="m 81.957047,667.25787 2.542968,0.31446 c -0.401055,1.48568 -1.143893,2.63867 -2.228515,3.45898 -1.084647,0.82031 -2.470062,1.23047 -4.15625,1.23047 -2.123704,0 -3.807622,-0.65397 -5.051758,-1.96191 -1.244142,-1.30794 -1.866212,-3.14225 -1.866211,-5.50293 -10e-7,-2.4427 0.628904,-4.33853 1.886719,-5.6875 1.257808,-1.34895 2.889317,-2.02343 4.894531,-2.02344 1.941396,10e-6 3.527332,0.66082 4.757812,1.98242 1.230455,1.32163 1.845689,3.181 1.845704,5.57813 -1.5e-5,0.14584 -0.0046,0.36459 -0.01367,0.65625 l -10.828125,0 c 0.09114,1.59505 0.542313,2.81641 1.353515,3.66406 0.811192,0.84766 1.82291,1.27148 3.035157,1.27148 0.902334,0 1.672516,-0.23697 2.310546,-0.71094 0.63801,-0.47395 1.143869,-1.23046 1.517579,-2.26953 z m -8.080079,-3.97851 8.107422,0 c -0.109386,-1.22135 -0.419282,-2.13736 -0.929687,-2.74805 -0.783865,-0.9479 -1.80014,-1.42186 -3.048828,-1.42187 -1.130215,1e-5 -2.08041,0.37826 -2.850586,1.13476 -0.770187,0.75652 -1.196293,1.76824 -1.278321,3.03516 z"
         style=""
         id="path3105" />
      <path
         d="m 94.384781,667.59967 2.433594,-0.38281 c 0.136715,0.97526 0.517248,1.72266 1.141601,2.24219 0.624344,0.51953 1.497065,0.77929 2.618164,0.77929 1.1302,0 1.96874,-0.23014 2.51563,-0.69043 0.54686,-0.46028 0.8203,-1.00032 0.82031,-1.62011 -1e-5,-0.55599 -0.24155,-0.99349 -0.72461,-1.3125 -0.33725,-0.21875 -1.17579,-0.49674 -2.51563,-0.83399 -1.804689,-0.45572 -3.055665,-0.84993 -3.752926,-1.18262 -0.697269,-0.33267 -1.225914,-0.79296 -1.585938,-1.38086 -0.360027,-0.58788 -0.54004,-1.23729 -0.540039,-1.94824 -10e-7,-0.64712 0.148111,-1.24641 0.444336,-1.79785 0.296222,-0.55142 0.699542,-1.00943 1.209961,-1.37402 0.382809,-0.28254 0.904619,-0.5218 1.56543,-0.71778 0.660802,-0.19594 1.36946,-0.29393 2.125976,-0.29394 1.13932,10e-6 2.13964,0.16408 3.00098,0.49219 0.86131,0.32814 1.49706,0.77247 1.90722,1.333 0.41015,0.56056 0.6927,1.31024 0.84766,2.24903 l -2.40625,0.32812 c -0.10939,-0.74738 -0.42612,-1.33072 -0.9502,-1.75 -0.52409,-0.41926 -1.26465,-0.62889 -2.22168,-0.6289 -1.130209,1e-5 -1.936849,0.18686 -2.419917,0.56054 -0.483077,0.37371 -0.724613,0.81121 -0.72461,1.3125 -3e-6,0.31902 0.100257,0.60613 0.300782,0.86133 0.200516,0.26433 0.514969,0.48308 0.943359,0.65625 0.246089,0.0912 0.970697,0.30079 2.173826,0.62891 1.74088,0.46485 2.9554,0.84538 3.64356,1.1416 0.68814,0.29623 1.22817,0.72689 1.62011,1.29199 0.39192,0.56511 0.58788,1.26693 0.58789,2.10547 -1e-5,0.82032 -0.23927,1.59278 -0.71777,2.31738 -0.47853,0.72461 -1.16896,1.28516 -2.07129,1.68164 -0.90235,0.39649 -1.92318,0.59473 -3.0625,0.59473 -1.886722,0 -3.324546,-0.39193 -4.313474,-1.17578 -0.988934,-0.78385 -1.620119,-1.94596 -1.893555,-3.48633 z"
         style=""
         id="path3107" />
      <path
         d="m 118.88478,671.93365 0,-2.13281 c -1.13022,1.64063 -2.66602,2.46094 -4.60742,2.46094 -0.85678,0 -1.65658,-0.16406 -2.39942,-0.49219 -0.74284,-0.32812 -1.29427,-0.74056 -1.65429,-1.2373 -0.36003,-0.49675 -0.61296,-1.10514 -0.75879,-1.8252 -0.10026,-0.48307 -0.15039,-1.24869 -0.15039,-2.29687 l 0,-8.9961 2.46094,0 0,8.05274 c -10e-6,1.28516 0.0501,2.15104 0.15039,2.59765 0.15494,0.64714 0.48306,1.15528 0.98437,1.52442 0.5013,0.36914 1.12109,0.55371 1.85938,0.55371 0.73827,0 1.43098,-0.18913 2.07812,-0.56738 0.64713,-0.37826 1.10513,-0.89323 1.37402,-1.54493 0.26887,-0.65168 0.40331,-1.59732 0.40333,-2.83691 l 0,-7.7793 2.46093,0 0,14.51953 z"
         style=""
         id="path3109" />
      <path
         d="m 127.22462,671.93365 -2.2832,0 0,-20.04296 2.46094,0 0,7.15039 c 1.03906,-1.30337 2.36523,-1.95507 3.97851,-1.95508 0.89322,10e-6 1.7386,0.18003 2.53614,0.54004 0.79751,0.36004 1.45376,0.8659 1.96875,1.51758 0.51496,0.6517 0.91828,1.43783 1.20996,2.35839 0.29165,0.92059 0.43748,1.90496 0.4375,2.95313 -2e-5,2.48829 -0.61525,4.41146 -1.8457,5.76953 -1.23048,1.35807 -2.70705,2.03711 -4.42969,2.03711 -1.71355,0 -3.05795,-0.71549 -4.03321,-2.14648 z m -0.0273,-7.36914 c 0,1.7409 0.23698,2.99871 0.71094,3.77344 0.77473,1.26693 1.82291,1.90039 3.14453,1.90039 1.07551,0 2.0052,-0.46712 2.78906,-1.40136 0.78384,-0.93425 1.17577,-2.3265 1.17578,-4.17676 -1e-5,-1.89583 -0.37598,-3.29491 -1.12793,-4.19727 -0.75196,-0.90233 -1.66114,-1.3535 -2.72754,-1.35351 -1.07552,1e-5 -2.00521,0.46713 -2.78906,1.40136 -0.78386,0.93426 -1.17578,2.28549 -1.17578,4.05371 z"
         style=""
         id="path3111" />
      <path
         d="m 140.5547,654.72076 0,-2.83007 2.46094,0 0,2.83007 z m 0,17.21289 0,-14.51953 2.46094,0 0,14.51953 z"
         style=""
         id="path3113" />
      <path
         d="m 156.19533,671.93365 0,-1.83203 c -0.92059,1.44011 -2.2741,2.16016 -4.06055,2.16016 -1.15756,0 -2.22168,-0.31901 -3.19238,-0.95703 -0.97071,-0.63802 -1.72266,-1.52897 -2.25586,-2.67285 -0.53321,-1.14388 -0.79981,-2.45866 -0.79981,-3.94434 0,-1.44921 0.24154,-2.76399 0.72461,-3.94433 0.48307,-1.18033 1.20768,-2.08495 2.17383,-2.71387 0.96614,-0.62889 2.04622,-0.94335 3.24024,-0.94336 0.87499,10e-6 1.65428,0.18458 2.33789,0.55371 0.68358,0.36915 1.23957,0.84995 1.66797,1.44238 l 0,-7.1914 2.44726,0 0,20.04296 z m -7.7793,-7.24609 c 0,1.85938 0.39192,3.24935 1.17578,4.16992 0.78385,0.92058 1.70898,1.38086 2.77539,1.38086 1.07552,0 1.98925,-0.43977 2.74121,-1.31933 0.75195,-0.87956 1.12792,-2.22168 1.12793,-4.02637 -1e-5,-1.98697 -0.38282,-3.4453 -1.14843,-4.375 -0.76564,-0.92968 -1.709,-1.39452 -2.83008,-1.39453 -1.09376,10e-6 -2.00749,0.44662 -2.74121,1.33984 -0.73373,0.89324 -1.10059,2.30144 -1.10059,4.22461 z"
         style=""
         id="path3115" />
      <path
         d="m 171.83595,670.14264 c -0.91147,0.77474 -1.78874,1.32161 -2.63183,1.64062 -0.84311,0.31901 -1.74773,0.47852 -2.71387,0.47852 -1.59506,0 -2.82097,-0.38965 -3.67773,-1.16895 -0.85678,-0.77929 -1.28516,-1.77506 -1.28516,-2.9873 0,-0.71093 0.16178,-1.36035 0.48535,-1.94824 0.32357,-0.58789 0.74739,-1.05957 1.27148,-1.41504 0.52409,-0.35546 1.11426,-0.62434 1.77051,-0.80664 0.48307,-0.1276 1.21224,-0.25064 2.1875,-0.36914 1.98697,-0.23697 3.44986,-0.51953 4.38867,-0.84766 0.009,-0.33723 0.0137,-0.55142 0.0137,-0.64258 -1e-5,-1.00259 -0.23244,-1.70897 -0.69727,-2.11914 -0.62892,-0.55597 -1.56316,-0.83397 -2.80273,-0.83398 -1.15756,10e-6 -2.01205,0.20281 -2.56348,0.6084 -0.55144,0.40561 -0.95931,1.12338 -1.22363,2.15332 l -2.40625,-0.32813 c 0.21875,-1.02993 0.57877,-1.86164 1.08008,-2.49512 0.50129,-0.63345 1.2259,-1.12108 2.17382,-1.46289 0.94791,-0.34178 2.04622,-0.51268 3.29493,-0.51269 1.23957,10e-6 2.24673,0.14585 3.02148,0.4375 0.77473,0.29168 1.34439,0.65854 1.70898,1.10058 0.36457,0.44207 0.61978,1.00034 0.76563,1.67481 0.082,0.41928 0.12303,1.17579 0.12305,2.26953 l 0,3.28125 c -2e-5,2.28776 0.0524,3.7347 0.15722,4.34082 0.10481,0.60612 0.31216,1.18718 0.62207,1.74316 l -2.57031,0 c -0.25522,-0.51041 -0.41928,-1.10742 -0.49219,-1.79101 z m -0.20508,-5.49609 c -0.89323,0.36459 -2.23308,0.67448 -4.01953,0.92968 -1.01172,0.14584 -1.72722,0.3099 -2.14648,0.49219 -0.41928,0.1823 -0.74284,0.4489 -0.9707,0.79981 -0.22787,0.35091 -0.3418,0.74056 -0.3418,1.16894 0,0.65625 0.24837,1.20313 0.74512,1.64063 0.49674,0.4375 1.22362,0.65625 2.18066,0.65625 0.94791,0 1.79101,-0.20736 2.5293,-0.62207 0.73827,-0.41472 1.28059,-0.9821 1.62695,-1.70215 0.26431,-0.55599 0.39647,-1.3763 0.39648,-2.46094 z"
         style=""
         id="path3117" />
      <path
         d="m 178.63087,660.21686 0,-2.80274 2.80274,0 0,2.80274 z m 0,11.71679 0,-2.80273 2.80274,0 0,2.80273 z"
         style=""
         id="path3119" />
    </g>
    <g
       style="font-size:28px;font-style:normal;font-weight:normal;line-height:125%;letter-spacing:0px;word-spacing:0px;writing-mode:tb-rl;fill:#000000;fill-opacity:1;stroke:none;font-family:Sans"
       id="text4105">
      <path
         d="m 623.35571,711.03076 0,-2.47461 7.56055,0 0,2.47461 z"
         style=""
         id="path3084" />
      <path
         d="m 483.35571,711.03076 0,-2.47461 7.56055,0 0,2.47461 z"
         style=""
         id="path3086" />
      <path
         d="m 345.98071,713.80615 0,-5.49609 -5.45508,0 0,-2.29688 5.45508,0 0,-5.45507 2.32422,0 0,5.45507 5.45508,0 0,2.29688 -5.45508,0 0,5.49609 z"
         style=""
         id="path3088" />
      <path
         d="m 205.98071,713.80615 0,-5.49609 -5.45508,0 0,-2.29688 5.45508,0 0,-5.45507 2.32422,0 0,5.45507 5.45508,0 0,2.29688 -5.45508,0 0,5.49609 z"
         style=""
         id="path3090" />
    </g>
    <g
       style="font-size:28px;font-style:normal;font-weight:normal;text-align:end;line-height:125%;letter-spacing:0px;word-spacing:0px;writing-mode:lr-tb;text-anchor:end;fill:#000000;fill-opacity:1;stroke:none;font-family:Sans"
       id="text4139">
      <path
         d="m 100.45258,712.64795 0,-20.04297 7.56054,0 c 1.33072,2e-5 2.347,0.0638 3.04883,0.19141 0.98436,0.16408 1.80923,0.47625 2.47461,0.93652 0.66535,0.46031 1.20083,1.10516 1.60645,1.93457 0.40558,0.82944 0.60838,1.7409 0.60839,2.73438 -1e-5,1.70444 -0.54233,3.14682 -1.62695,4.32714 -1.08465,1.18035 -3.04428,1.77052 -5.87891,1.77051 l -5.14062,0 0,8.14844 z m 2.65234,-10.51367 5.18164,0 c 1.71353,10e-6 2.93033,-0.319 3.65039,-0.95703 0.72004,-0.63801 1.08006,-1.5358 1.08008,-2.69336 -2e-5,-0.83853 -0.21193,-1.5563 -0.63574,-2.15332 -0.42385,-0.59699 -0.98211,-0.9912 -1.67481,-1.18262 -0.44662,-0.11847 -1.27149,-0.17772 -2.47461,-0.17774 l -5.12695,0 z"
         style=""
         id="path3071" />
      <path
         d="m 128.31586,710.85693 c -0.91147,0.77474 -1.78875,1.32162 -2.63184,1.64063 -0.84311,0.31901 -1.74773,0.47851 -2.71387,0.47851 -1.59505,0 -2.82096,-0.38964 -3.67773,-1.16894 -0.85677,-0.7793 -1.28516,-1.77506 -1.28516,-2.98731 0,-0.71093 0.16179,-1.36034 0.48535,-1.94824 0.32357,-0.58788 0.7474,-1.05956 1.27149,-1.41504 0.52408,-0.35546 1.11425,-0.62434 1.77051,-0.80664 0.48306,-0.12759 1.21223,-0.25064 2.1875,-0.36914 1.98697,-0.23697 3.44986,-0.51952 4.38867,-0.84765 0.009,-0.33723 0.0137,-0.55143 0.0137,-0.64258 -1e-5,-1.0026 -0.23243,-1.70898 -0.69726,-2.11914 -0.62892,-0.55598 -1.56316,-0.83397 -2.80274,-0.83399 -1.15756,2e-5 -2.01205,0.20281 -2.56348,0.6084 -0.55143,0.40561 -0.95931,1.12338 -1.22363,2.15332 l -2.40625,-0.32812 c 0.21875,-1.02994 0.57878,-1.86165 1.08008,-2.49512 0.5013,-0.63345 1.22591,-1.12108 2.17383,-1.46289 0.94791,-0.34178 2.04621,-0.51268 3.29492,-0.5127 1.23957,2e-5 2.24673,0.14585 3.02148,0.4375 0.77473,0.29168 1.34439,0.65855 1.70899,1.10059 0.36457,0.44207 0.61978,1.00034 0.76562,1.6748 0.082,0.41929 0.12304,1.1758 0.12305,2.26953 l 0,3.28125 c -1e-5,2.28777 0.0524,3.73471 0.15723,4.34083 0.1048,0.60612 0.31216,1.18717 0.62207,1.74316 l -2.57032,0 c -0.25522,-0.51042 -0.41928,-1.10742 -0.49218,-1.79102 z m -0.20508,-5.49609 c -0.89324,0.36459 -2.23308,0.67449 -4.01953,0.92969 -1.01173,0.14584 -1.72722,0.3099 -2.14649,0.49218 -0.41927,0.1823 -0.74284,0.4489 -0.9707,0.79981 -0.22787,0.35092 -0.3418,0.74056 -0.3418,1.16894 0,0.65626 0.24837,1.20313 0.74512,1.64063 0.49674,0.4375 1.22363,0.65625 2.18066,0.65625 0.94791,0 1.79101,-0.20736 2.5293,-0.62207 0.73827,-0.41471 1.28059,-0.98209 1.62695,-1.70215 0.26432,-0.55598 0.39648,-1.3763 0.39649,-2.46094 z"
         style=""
         id="path3073" />
      <path
         d="m 133.44281,708.31396 2.43359,-0.38281 c 0.13672,0.97527 0.51725,1.72266 1.14161,2.24219 0.62434,0.51953 1.49706,0.7793 2.61816,0.7793 1.1302,0 1.96874,-0.23014 2.51562,-0.69043 0.54687,-0.46029 0.82031,-1.00033 0.82032,-1.62012 -10e-6,-0.55599 -0.24155,-0.99348 -0.72461,-1.3125 -0.33725,-0.21874 -1.17579,-0.49674 -2.51563,-0.83398 -1.80469,-0.45573 -3.05567,-0.84993 -3.75293,-1.18262 -0.69727,-0.33268 -1.22591,-0.79296 -1.58593,-1.38086 -0.36003,-0.58788 -0.54004,-1.2373 -0.54004,-1.94824 0,-0.64713 0.14811,-1.24641 0.44433,-1.79785 0.29622,-0.55142 0.69954,-1.00943 1.20996,-1.37403 0.38281,-0.28254 0.90462,-0.52179 1.56543,-0.71777 0.66081,-0.19595 1.36946,-0.29393 2.12598,-0.29395 1.13931,2e-5 2.13964,0.16408 3.00098,0.49219 0.86131,0.32814 1.49706,0.77247 1.90722,1.33301 0.41015,0.56056 0.6927,1.31023 0.84766,2.24902 l -2.40625,0.32813 c -0.10939,-0.74739 -0.42612,-1.33072 -0.9502,-1.75 -0.52409,-0.41926 -1.26465,-0.6289 -2.22168,-0.62891 -1.13021,1e-5 -1.93685,0.18686 -2.41992,0.56055 -0.48307,0.37371 -0.72461,0.81121 -0.72461,1.3125 0,0.31902 0.10026,0.60613 0.30078,0.86133 0.20052,0.26433 0.51497,0.48308 0.94336,0.65625 0.24609,0.0911 0.9707,0.30079 2.17383,0.6289 1.74088,0.46485 2.95539,0.84539 3.64356,1.1416 0.68814,0.29623 1.22817,0.7269 1.62011,1.292 0.39192,0.56511 0.58788,1.26693 0.58789,2.10546 -1e-5,0.82032 -0.23927,1.59278 -0.71777,2.31739 -0.47853,0.72461 -1.16896,1.28515 -2.07129,1.68164 -0.90235,0.39648 -1.92318,0.59472 -3.0625,0.59472 -1.88672,0 -3.32455,-0.39192 -4.31348,-1.17578 -0.98893,-0.78385 -1.62011,-1.94596 -1.89355,-3.48633 z"
         style=""
         id="path3075" />
      <path
         d="m 147.44281,708.31396 2.43359,-0.38281 c 0.13672,0.97527 0.51725,1.72266 1.14161,2.24219 0.62434,0.51953 1.49706,0.7793 2.61816,0.7793 1.1302,0 1.96874,-0.23014 2.51562,-0.69043 0.54687,-0.46029 0.82031,-1.00033 0.82032,-1.62012 -10e-6,-0.55599 -0.24155,-0.99348 -0.72461,-1.3125 -0.33725,-0.21874 -1.17579,-0.49674 -2.51563,-0.83398 -1.80469,-0.45573 -3.05567,-0.84993 -3.75293,-1.18262 -0.69727,-0.33268 -1.22591,-0.79296 -1.58593,-1.38086 -0.36003,-0.58788 -0.54004,-1.2373 -0.54004,-1.94824 0,-0.64713 0.14811,-1.24641 0.44433,-1.79785 0.29622,-0.55142 0.69954,-1.00943 1.20996,-1.37403 0.38281,-0.28254 0.90462,-0.52179 1.56543,-0.71777 0.66081,-0.19595 1.36946,-0.29393 2.12598,-0.29395 1.13931,2e-5 2.13964,0.16408 3.00098,0.49219 0.86131,0.32814 1.49706,0.77247 1.90722,1.33301 0.41015,0.56056 0.6927,1.31023 0.84766,2.24902 l -2.40625,0.32813 c -0.10939,-0.74739 -0.42612,-1.33072 -0.9502,-1.75 -0.52409,-0.41926 -1.26465,-0.6289 -2.22168,-0.62891 -1.13021,1e-5 -1.93685,0.18686 -2.41992,0.56055 -0.48307,0.37371 -0.72461,0.81121 -0.72461,1.3125 0,0.31902 0.10026,0.60613 0.30078,0.86133 0.20052,0.26433 0.51497,0.48308 0.94336,0.65625 0.24609,0.0911 0.9707,0.30079 2.17383,0.6289 1.74088,0.46485 2.95539,0.84539 3.64356,1.1416 0.68814,0.29623 1.22817,0.7269 1.62011,1.292 0.39192,0.56511 0.58788,1.26693 0.58789,2.10546 -1e-5,0.82032 -0.23927,1.59278 -0.71777,2.31739 -0.47853,0.72461 -1.16896,1.28515 -2.07129,1.68164 -0.90235,0.39648 -1.92318,0.59472 -3.0625,0.59472 -1.88672,0 -3.32455,-0.39192 -4.31348,-1.17578 -0.98893,-0.78385 -1.62011,-1.94596 -1.89355,-3.48633 z"
         style=""
         id="path3077" />
      <path
         d="m 161.51117,705.38818 c 0,-2.68879 0.74739,-4.68032 2.24219,-5.97461 1.24869,-1.0755 2.77082,-1.61326 4.5664,-1.61328 1.99609,2e-5 3.6276,0.65399 4.89453,1.96192 1.26692,1.30795 1.90038,3.11492 1.9004,5.4209 -2e-5,1.86849 -0.28029,3.33822 -0.84083,4.40918 -0.56056,1.07096 -1.37631,1.90267 -2.44726,2.49511 -1.07097,0.59245 -2.23992,0.88867 -3.50684,0.88867 -2.03255,0 -3.67546,-0.65169 -4.92871,-1.95507 -1.25325,-1.30339 -1.87988,-3.18099 -1.87988,-5.63282 z m 2.5293,0 c -1e-5,1.85938 0.40559,3.25164 1.21679,4.17676 0.8112,0.92513 1.83203,1.3877 3.0625,1.3877 1.22135,0 2.23762,-0.46484 3.04883,-1.39453 0.81119,-0.92969 1.21679,-2.347 1.2168,-4.25196 -1e-5,-1.79556 -0.40789,-3.15591 -1.22363,-4.08105 -0.81577,-0.92512 -1.82977,-1.38768 -3.042,-1.3877 -1.23047,2e-5 -2.2513,0.4603 -3.0625,1.38086 -0.8112,0.92059 -1.2168,2.31056 -1.21679,4.16992 z"
         style=""
         id="path3079" />
      <path
         d="m 178.69672,700.93115 0,-2.80273 2.80273,0 0,2.80273 z m 0,11.7168 0,-2.80274 2.80273,0 0,2.80274 z"
         style=""
         id="path3081" />
    </g>
    <path
       style="fill:none;stroke:#000000;stroke-width:1;stroke-linecap:butt;stroke-linejoin:miter;stroke-miterlimit:4;stroke-opacity:1;stroke-dasharray:8, 4;stroke-dashoffset:0;marker-end:none"
       d="m 624.28571,539.50504 0,134.28571"
       id="path4296"
       inkscape:connector-curvature="0" />
    <path
       inkscape:connector-curvature="0"
       id="path4742"
       d="m 487.85714,539.50504 0,134.28571"
       style="fill:none;stroke:#000000;stroke-width:1;stroke-linecap:butt;stroke-linejoin:miter;stroke-miterlimit:4;stroke-opacity:1;stroke-dasharray:8, 4;stroke-dashoffset:0;marker-end:none" />
    <path
       style="fill:none;stroke:#000000;stroke-width:1;stroke-linecap:butt;stroke-linejoin:miter;stroke-miterlimit:4;stroke-opacity:1;stroke-dasharray:8, 4;stroke-dashoffset:0;marker-end:none"
       d="m 345,539.50504 0,134.28571"
       id="path4744"
       inkscape:connector-curvature="0" />
    <path
       inkscape:connector-curvature="0"
       id="path4746"
       d="m 210,539.50504 0,134.28571"
       style="fill:none;stroke:#000000;stroke-width:1;stroke-linecap:butt;stroke-linejoin:miter;stroke-miterlimit:4;stroke-opacity:1;stroke-dasharray:8, 4;stroke-dashoffset:0;marker-end:none" />
    <path
       style="fill:none;stroke:#000000;stroke-width:3.5;stroke-linecap:butt;stroke-linejoin:miter;stroke-miterlimit:4;stroke-opacity:1;stroke-dasharray:none;marker-start:none;marker-end:url(#Arrow1Mend)"
       d="m 209.60665,530.61839 0,-76.77159"
       id="path4950"
       inkscape:connector-curvature="0"
       sodipodi:nodetypes="cc" />
    <path
       sodipodi:nodetypes="cc"
       inkscape:connector-curvature="0"
       id="path6444"
       d="m 343.95694,530.61839 0,-76.77159"
       style="fill:none;stroke:#000000;stroke-width:3.5;stroke-linecap:butt;stroke-linejoin:miter;stroke-miterlimit:4;stroke-opacity:1;stroke-dasharray:none;marker-start:none;marker-end:url(#Arrow1Mend)" />
    <path
       style="fill:none;stroke:#000000;stroke-width:3.5;stroke-linecap:butt;stroke-linejoin:miter;stroke-miterlimit:4;stroke-opacity:1;stroke-dasharray:none;marker-start:none;marker-end:url(#Arrow1Mend)"
       d="m 487.90368,530.61839 0,-76.77159"
       id="path6446"
       inkscape:connector-curvature="0"
       sodipodi:nodetypes="cc" />
    <path
       sodipodi:nodetypes="cc"
       inkscape:connector-curvature="0"
       id="path6448"
       d="m 624.77935,530.61839 0,-76.77159"
       style="fill:none;stroke:#000000;stroke-width:3.5;stroke-linecap:butt;stroke-linejoin:miter;stroke-miterlimit:4;stroke-opacity:1;stroke-dasharray:none;marker-start:none;marker-end:url(#Arrow1Mend)" />
  </g>
</svg>
