<?xml version="1.0" encoding="UTF-8" standalone="no"?>
<svg
   xmlns:dc="http://purl.org/dc/elements/1.1/"
   xmlns:cc="http://creativecommons.org/ns#"
   xmlns:rdf="http://www.w3.org/1999/02/22-rdf-syntax-ns#"
   xmlns:svg="http://www.w3.org/2000/svg"
   xmlns="http://www.w3.org/2000/svg"
   version="1.1"
   id="svg2"
   height="328.92032"
   width="732.69556">
  <title
     id="title4766">Encoder de Quadratura</title>
  <defs
     id="defs4">
    <marker
       style="overflow:visible"
       id="Arrow1Mend"
       refX="0"
       refY="0"
       orient="auto">
      <path
         transform="matrix(-0.4,0,0,-0.4,-4,0)"
         style="fill-rule:evenodd;stroke:#000000;stroke-width:1pt;marker-start:none"
         d="M 0,0 5,-5 -12.5,0 5,5 0,0 z"
         id="path4310" />
    </marker>
    <marker
       style="overflow:visible"
       id="Arrow2Send"
       refX="0"
       refY="0"
       orient="auto">
      <path
         transform="matrix(-0.3,0,0,-0.3,0.69,0)"
         d="M 8.7185878,4.0337352 -2.2072895,0.01601326 8.7185884,-4.0017078 c -1.7454984,2.3720609 -1.7354408,5.6174519 -6e-7,8.035443 z"
         style="font-size:12px;fill-rule:evenodd;stroke-width:0.625;stroke-linejoin:round"
         id="path4334" />
    </marker>
    <marker
       style="overflow:visible"
       id="Arrow2Lend"
       refX="0"
       refY="0"
       orient="auto">
      <path
         transform="matrix(-1.1,0,0,-1.1,-1.1,0)"
         d="M 8.7185878,4.0337352 -2.2072895,0.01601326 8.7185884,-4.0017078 c -1.7454984,2.3720609 -1.7354408,5.6174519 -6e-7,8.035443 z"
         style="font-size:12px;fill-rule:evenodd;stroke-width:0.625;stroke-linejoin:round"
         id="path4322" />
    </marker>
    <marker
       style="overflow:visible"
       id="Arrow1Lstart"
       refX="0"
       refY="0"
       orient="auto">
      <path
         transform="matrix(0.8,0,0,0.8,10,0)"
         style="fill-rule:evenodd;stroke:#000000;stroke-width:1pt;marker-start:none"
         d="M 0,0 5,-5 -12.5,0 5,5 0,0 z"
         id="path4301" />
    </marker>
    <marker
       style="overflow:visible"
       id="Arrow1Lend"
       refX="0"
       refY="0"
       orient="auto">
      <path
         transform="matrix(-0.8,0,0,-0.8,-10,0)"
         style="fill-rule:evenodd;stroke:#000000;stroke-width:1pt;marker-start:none"
         d="M 0,0 5,-5 -12.5,0 5,5 0,0 z"
         id="path4304" />
    </marker>
  </defs>
  <metadata
     id="metadata7">
    <rdf:RDF>
      <cc:Work
         rdf:about="">
        <dc:format>image/svg+xml</dc:format>
        <dc:type
           rdf:resource="http://purl.org/dc/dcmitype/StillImage" />
        <dc:title>Encoder de Quadratura</dc:title>
      </cc:Work>
    </rdf:RDF>
  </metadata>
  <g
     transform="translate(-8.7857129,-49.055711)"
     id="layer1">
    <path
       id="path2989"
       d="m 155.18202,132.20049 60.67007,0 0,-82.644779 65.599,0 0,82.644779 68.62946,0 0,-82.644779 70.69037,0 0,82.644779 72.53736,0 0,-82.644779 67.03772,0 0,82.644779 70.08921,0 0,-82.644779 69.12982,0 0,82.644779 41.41626,0"
       style="fill:none;stroke:#000000;stroke-width:1;stroke-linecap:butt;stroke-linejoin:miter;stroke-miterlimit:4;stroke-opacity:1;stroke-dasharray:none;marker-start:none" />
    <path
       style="fill:none;stroke:#000000;stroke-width:1;stroke-linecap:butt;stroke-linejoin:miter;stroke-miterlimit:4;stroke-opacity:1;stroke-dasharray:none;marker-start:none"
       d="m 182.45614,232.29827 66.67007,0 0,-82.64478 63.599,0 0,82.64478 74.62946,0 0,-82.64478 136.69037,0 0,82.64478 71.68022,0 0,-82.64478 70.60915,0 0,82.64478 67.51778,0"
       id="path2991" />
    <text
       id="text2993"
       y="733.15399"
       x="85.862968"
       style="font-size:40px;font-style:normal;font-weight:normal;line-height:125%;letter-spacing:0px;word-spacing:0px;writing-mode:tb-rl;fill:#000000;fill-opacity:1;stroke:none;font-family:Sans"
       xml:space="preserve"><tspan
         y="85.862968"
         x="733.15399"
         id="tspan2995" /></text>
    <g
       id="text2999"
       style="font-size:40px;font-style:normal;font-weight:normal;line-height:125%;letter-spacing:0px;word-spacing:0px;writing-mode:tb-rl;fill:#000000;fill-opacity:1;stroke:none;font-family:Sans">
      <path
         id="path3208"
         style="font-size:28px"
         d="m 712.21625,258.70897 c 0,-2.36978 0.24381,-4.277 0.73144,-5.72168 0.48763,-1.44464 1.21224,-2.5589 2.17383,-3.34277 0.96158,-0.78384 2.17154,-1.17577 3.62988,-1.17579 1.07552,2e-5 2.01887,0.2165 2.83008,0.64942 0.81119,0.43296 1.48111,1.05731 2.00977,1.87305 0.52863,0.81577 0.94334,1.80926 1.24414,2.98046 0.30077,1.17124 0.45116,2.75034 0.45117,4.73731 -10e-6,2.35157 -0.24155,4.24968 -0.72461,5.69434 -0.48309,1.44466 -1.20542,2.56119 -2.16699,3.3496 -0.9616,0.78842 -2.17612,1.18262 -3.64356,1.18262 -1.93229,0 -3.44987,-0.69271 -4.55273,-2.07812 -1.32162,-1.66797 -1.98242,-4.38411 -1.98242,-8.14844 z m 2.52929,0 c 0,3.29037 0.38509,5.48015 1.15528,6.56934 0.77017,1.08919 1.72037,1.63379 2.85058,1.63378 1.1302,1e-5 2.0804,-0.54687 2.85059,-1.64062 0.77017,-1.09375 1.15526,-3.28124 1.15527,-6.5625 -10e-6,-3.29947 -0.3851,-5.49152 -1.15527,-6.57617 -0.77019,-1.08462 -1.7295,-1.62694 -2.87793,-1.62696 -1.13021,2e-5 -2.03256,0.47854 -2.70703,1.43555 -0.84766,1.22137 -1.27149,3.47723 -1.27149,6.76758 z" />
      <path
         id="path3210"
         style="font-size:28px"
         d="m 712.21625,290.04491 c 0,-2.36978 0.24381,-4.27701 0.73144,-5.72168 0.48763,-1.44465 1.21224,-2.5589 2.17383,-3.34278 0.96158,-0.78383 2.17154,-1.17576 3.62988,-1.17578 1.07552,2e-5 2.01887,0.21649 2.83008,0.64942 0.81119,0.43296 1.48111,1.05731 2.00977,1.87304 0.52863,0.81578 0.94334,1.80926 1.24414,2.98047 0.30077,1.17124 0.45116,2.75034 0.45117,4.73731 -10e-6,2.35157 -0.24155,4.24968 -0.72461,5.69433 -0.48309,1.44467 -1.20542,2.5612 -2.16699,3.34961 -0.9616,0.78841 -2.17612,1.18262 -3.64356,1.18262 -1.93229,0 -3.44987,-0.69271 -4.55273,-2.07813 -1.32162,-1.66796 -1.98242,-4.3841 -1.98242,-8.14843 z m 2.52929,0 c 0,3.29037 0.38509,5.48014 1.15528,6.56933 0.77017,1.0892 1.72037,1.63379 2.85058,1.63379 1.1302,0 2.0804,-0.54687 2.85059,-1.64062 0.77017,-1.09375 1.15526,-3.28125 1.15527,-6.5625 -10e-6,-3.29947 -0.3851,-5.49152 -1.15527,-6.57618 -0.77019,-1.08461 -1.7295,-1.62693 -2.87793,-1.62695 -1.13021,2e-5 -2.03256,0.47853 -2.70703,1.43555 -0.84766,1.22137 -1.27149,3.47723 -1.27149,6.76758 z" />
      <path
         id="path3212"
         style="font-size:28px"
         d="m 686.48578,268.59373 -2.46094,0 0,-15.68164 c -0.59245,0.56512 -1.36947,1.13023 -2.33105,1.69532 -0.9616,0.56511 -1.8252,0.98894 -2.59082,1.27148 l 0,-2.37891 c 1.37629,-0.64711 2.57942,-1.43097 3.60937,-2.35156 1.02994,-0.92055 1.75911,-1.81378 2.1875,-2.67969 l 1.58594,0 z" />
      <path
         id="path3214"
         style="font-size:28px"
         d="m 677.21625,290.04491 c 0,-2.36978 0.24381,-4.27701 0.73144,-5.72168 0.48763,-1.44465 1.21224,-2.5589 2.17383,-3.34278 0.96158,-0.78383 2.17154,-1.17576 3.62988,-1.17578 1.07552,2e-5 2.01887,0.21649 2.83008,0.64942 0.81119,0.43296 1.48111,1.05731 2.00977,1.87304 0.52863,0.81578 0.94334,1.80926 1.24414,2.98047 0.30077,1.17124 0.45116,2.75034 0.45117,4.73731 -10e-6,2.35157 -0.24155,4.24968 -0.72461,5.69433 -0.48309,1.44467 -1.20542,2.5612 -2.16699,3.34961 -0.9616,0.78841 -2.17612,1.18262 -3.64356,1.18262 -1.93229,0 -3.44987,-0.69271 -4.55273,-2.07813 -1.32162,-1.66796 -1.98242,-4.3841 -1.98242,-8.14843 z m 2.52929,0 c 0,3.29037 0.38509,5.48014 1.15528,6.56933 0.77017,1.0892 1.72037,1.63379 2.85058,1.63379 1.1302,0 2.0804,-0.54687 2.85059,-1.64062 0.77017,-1.09375 1.15526,-3.28125 1.15527,-6.5625 -10e-6,-3.29947 -0.3851,-5.49152 -1.15527,-6.57618 -0.77019,-1.08461 -1.7295,-1.62693 -2.87793,-1.62695 -1.13021,2e-5 -2.03256,0.47853 -2.70703,1.43555 -0.84766,1.22137 -1.27149,3.47723 -1.27149,6.76758 z" />
      <path
         id="path3216"
         style="font-size:28px"
         d="m 651.48578,268.59373 -2.46094,0 0,-15.68164 c -0.59245,0.56512 -1.36947,1.13023 -2.33105,1.69532 -0.9616,0.56511 -1.8252,0.98894 -2.59082,1.27148 l 0,-2.37891 c 1.37629,-0.64711 2.57942,-1.43097 3.60937,-2.35156 1.02994,-0.92055 1.75911,-1.81378 2.1875,-2.67969 l 1.58594,0 z" />
      <path
         id="path3218"
         style="font-size:28px"
         d="m 651.48578,299.92967 -2.46094,0 0,-15.68164 c -0.59245,0.56512 -1.36947,1.13022 -2.33105,1.69531 -0.9616,0.56512 -1.8252,0.98895 -2.59082,1.27149 l 0,-2.37891 c 1.37629,-0.64712 2.57942,-1.43097 3.60937,-2.35156 1.02994,-0.92055 1.75911,-1.81378 2.1875,-2.67969 l 1.58594,0 z" />
      <path
         id="path3220"
         style="font-size:28px"
         d="m 607.21625,258.70897 c 0,-2.36978 0.24381,-4.277 0.73144,-5.72168 0.48763,-1.44464 1.21224,-2.5589 2.17383,-3.34277 0.96158,-0.78384 2.17154,-1.17577 3.62988,-1.17579 1.07552,2e-5 2.01887,0.2165 2.83008,0.64942 0.81119,0.43296 1.48111,1.05731 2.00977,1.87305 0.52863,0.81577 0.94334,1.80926 1.24414,2.98046 0.30077,1.17124 0.45116,2.75034 0.45117,4.73731 -10e-6,2.35157 -0.24155,4.24968 -0.72461,5.69434 -0.48309,1.44466 -1.20542,2.56119 -2.16699,3.3496 -0.9616,0.78842 -2.17612,1.18262 -3.64356,1.18262 -1.93229,0 -3.44987,-0.69271 -4.55273,-2.07812 -1.32162,-1.66797 -1.98242,-4.38411 -1.98242,-8.14844 z m 2.52929,0 c 0,3.29037 0.38509,5.48015 1.15528,6.56934 0.77017,1.08919 1.72037,1.63379 2.85058,1.63378 1.1302,1e-5 2.0804,-0.54687 2.85059,-1.64062 0.77017,-1.09375 1.15526,-3.28124 1.15527,-6.5625 -10e-6,-3.29947 -0.3851,-5.49152 -1.15527,-6.57617 -0.77019,-1.08462 -1.7295,-1.62694 -2.87793,-1.62696 -1.13021,2e-5 -2.03256,0.47854 -2.70703,1.43555 -0.84766,1.22137 -1.27149,3.47723 -1.27149,6.76758 z" />
      <path
         id="path3222"
         style="font-size:28px"
         d="m 616.48578,299.92967 -2.46094,0 0,-15.68164 c -0.59245,0.56512 -1.36947,1.13022 -2.33105,1.69531 -0.9616,0.56512 -1.8252,0.98895 -2.59082,1.27149 l 0,-2.37891 c 1.37629,-0.64712 2.57942,-1.43097 3.60937,-2.35156 1.02994,-0.92055 1.75911,-1.81378 2.1875,-2.67969 l 1.58594,0 z" />
      <path
         id="path3224"
         style="font-size:28px"
         d="m 572.21625,258.70897 c 0,-2.36978 0.24381,-4.277 0.73144,-5.72168 0.48763,-1.44464 1.21224,-2.5589 2.17383,-3.34277 0.96158,-0.78384 2.17154,-1.17577 3.62988,-1.17579 1.07552,2e-5 2.01887,0.2165 2.83008,0.64942 0.81119,0.43296 1.48111,1.05731 2.00977,1.87305 0.52863,0.81577 0.94334,1.80926 1.24414,2.98046 0.30077,1.17124 0.45116,2.75034 0.45117,4.73731 -10e-6,2.35157 -0.24155,4.24968 -0.72461,5.69434 -0.48309,1.44466 -1.20542,2.56119 -2.16699,3.3496 -0.9616,0.78842 -2.17612,1.18262 -3.64356,1.18262 -1.93229,0 -3.44987,-0.69271 -4.55273,-2.07812 -1.32162,-1.66797 -1.98242,-4.38411 -1.98242,-8.14844 z m 2.52929,0 c 0,3.29037 0.38509,5.48015 1.15528,6.56934 0.77017,1.08919 1.72037,1.63379 2.85058,1.63378 1.1302,1e-5 2.0804,-0.54687 2.85059,-1.64062 0.77017,-1.09375 1.15526,-3.28124 1.15527,-6.5625 -10e-6,-3.29947 -0.3851,-5.49152 -1.15527,-6.57617 -0.77019,-1.08462 -1.7295,-1.62694 -2.87793,-1.62696 -1.13021,2e-5 -2.03256,0.47854 -2.70703,1.43555 -0.84766,1.22137 -1.27149,3.47723 -1.27149,6.76758 z" />
      <path
         id="path3226"
         style="font-size:28px"
         d="m 572.21625,290.04491 c 0,-2.36978 0.24381,-4.27701 0.73144,-5.72168 0.48763,-1.44465 1.21224,-2.5589 2.17383,-3.34278 0.96158,-0.78383 2.17154,-1.17576 3.62988,-1.17578 1.07552,2e-5 2.01887,0.21649 2.83008,0.64942 0.81119,0.43296 1.48111,1.05731 2.00977,1.87304 0.52863,0.81578 0.94334,1.80926 1.24414,2.98047 0.30077,1.17124 0.45116,2.75034 0.45117,4.73731 -10e-6,2.35157 -0.24155,4.24968 -0.72461,5.69433 -0.48309,1.44467 -1.20542,2.5612 -2.16699,3.34961 -0.9616,0.78841 -2.17612,1.18262 -3.64356,1.18262 -1.93229,0 -3.44987,-0.69271 -4.55273,-2.07813 -1.32162,-1.66796 -1.98242,-4.3841 -1.98242,-8.14843 z m 2.52929,0 c 0,3.29037 0.38509,5.48014 1.15528,6.56933 0.77017,1.0892 1.72037,1.63379 2.85058,1.63379 1.1302,0 2.0804,-0.54687 2.85059,-1.64062 0.77017,-1.09375 1.15526,-3.28125 1.15527,-6.5625 -10e-6,-3.29947 -0.3851,-5.49152 -1.15527,-6.57618 -0.77019,-1.08461 -1.7295,-1.62693 -2.87793,-1.62695 -1.13021,2e-5 -2.03256,0.47853 -2.70703,1.43555 -0.84766,1.22137 -1.27149,3.47723 -1.27149,6.76758 z" />
      <path
         id="path3228"
         style="font-size:28px"
         d="m 546.48578,268.59373 -2.46094,0 0,-15.68164 c -0.59245,0.56512 -1.36947,1.13023 -2.33105,1.69532 -0.9616,0.56511 -1.8252,0.98894 -2.59082,1.27148 l 0,-2.37891 c 1.37629,-0.64711 2.57942,-1.43097 3.60937,-2.35156 1.02994,-0.92055 1.75911,-1.81378 2.1875,-2.67969 l 1.58594,0 z" />
      <path
         id="path3230"
         style="font-size:28px"
         d="m 537.21625,290.04491 c 0,-2.36978 0.24381,-4.27701 0.73144,-5.72168 0.48763,-1.44465 1.21224,-2.5589 2.17383,-3.34278 0.96158,-0.78383 2.17154,-1.17576 3.62988,-1.17578 1.07552,2e-5 2.01887,0.21649 2.83008,0.64942 0.81119,0.43296 1.48111,1.05731 2.00977,1.87304 0.52863,0.81578 0.94334,1.80926 1.24414,2.98047 0.30077,1.17124 0.45116,2.75034 0.45117,4.73731 -10e-6,2.35157 -0.24155,4.24968 -0.72461,5.69433 -0.48309,1.44467 -1.20542,2.5612 -2.16699,3.34961 -0.9616,0.78841 -2.17612,1.18262 -3.64356,1.18262 -1.93229,0 -3.44987,-0.69271 -4.55273,-2.07813 -1.32162,-1.66796 -1.98242,-4.3841 -1.98242,-8.14843 z m 2.52929,0 c 0,3.29037 0.38509,5.48014 1.15528,6.56933 0.77017,1.0892 1.72037,1.63379 2.85058,1.63379 1.1302,0 2.0804,-0.54687 2.85059,-1.64062 0.77017,-1.09375 1.15526,-3.28125 1.15527,-6.5625 -10e-6,-3.29947 -0.3851,-5.49152 -1.15527,-6.57618 -0.77019,-1.08461 -1.7295,-1.62693 -2.87793,-1.62695 -1.13021,2e-5 -2.03256,0.47853 -2.70703,1.43555 -0.84766,1.22137 -1.27149,3.47723 -1.27149,6.76758 z" />
      <path
         id="path3232"
         style="font-size:28px"
         d="m 511.48578,268.59373 -2.46094,0 0,-15.68164 c -0.59245,0.56512 -1.36947,1.13023 -2.33105,1.69532 -0.9616,0.56511 -1.8252,0.98894 -2.59082,1.27148 l 0,-2.37891 c 1.37629,-0.64711 2.57942,-1.43097 3.60937,-2.35156 1.02994,-0.92055 1.75911,-1.81378 2.1875,-2.67969 l 1.58594,0 z" />
      <path
         id="path3234"
         style="font-size:28px"
         d="m 511.48578,299.92967 -2.46094,0 0,-15.68164 c -0.59245,0.56512 -1.36947,1.13022 -2.33105,1.69531 -0.9616,0.56512 -1.8252,0.98895 -2.59082,1.27149 l 0,-2.37891 c 1.37629,-0.64712 2.57942,-1.43097 3.60937,-2.35156 1.02994,-0.92055 1.75911,-1.81378 2.1875,-2.67969 l 1.58594,0 z" />
      <path
         id="path3236"
         style="font-size:28px"
         d="m 467.21625,258.70897 c 0,-2.36978 0.24381,-4.277 0.73144,-5.72168 0.48763,-1.44464 1.21224,-2.5589 2.17383,-3.34277 0.96158,-0.78384 2.17154,-1.17577 3.62988,-1.17579 1.07552,2e-5 2.01887,0.2165 2.83008,0.64942 0.81119,0.43296 1.48111,1.05731 2.00977,1.87305 0.52863,0.81577 0.94334,1.80926 1.24414,2.98046 0.30077,1.17124 0.45116,2.75034 0.45117,4.73731 -1e-5,2.35157 -0.24155,4.24968 -0.72461,5.69434 -0.48309,1.44466 -1.20542,2.56119 -2.16699,3.3496 -0.9616,0.78842 -2.17612,1.18262 -3.64356,1.18262 -1.93229,0 -3.44987,-0.69271 -4.55273,-2.07812 -1.32162,-1.66797 -1.98242,-4.38411 -1.98242,-8.14844 z m 2.52929,0 c 0,3.29037 0.38509,5.48015 1.15528,6.56934 0.77017,1.08919 1.72037,1.63379 2.85058,1.63378 1.1302,1e-5 2.0804,-0.54687 2.85059,-1.64062 0.77017,-1.09375 1.15526,-3.28124 1.15527,-6.5625 -10e-6,-3.29947 -0.3851,-5.49152 -1.15527,-6.57617 -0.77019,-1.08462 -1.7295,-1.62694 -2.87793,-1.62696 -1.13021,2e-5 -2.03256,0.47854 -2.70703,1.43555 -0.84766,1.22137 -1.27149,3.47723 -1.27149,6.76758 z" />
      <path
         id="path3238"
         style="font-size:28px"
         d="m 476.48578,299.92967 -2.46094,0 0,-15.68164 c -0.59245,0.56512 -1.36947,1.13022 -2.33105,1.69531 -0.9616,0.56512 -1.8252,0.98895 -2.59082,1.27149 l 0,-2.37891 c 1.37629,-0.64712 2.57942,-1.43097 3.60937,-2.35156 1.02994,-0.92055 1.75911,-1.81378 2.1875,-2.67969 l 1.58594,0 z" />
      <path
         id="path3240"
         style="font-size:28px"
         d="m 432.21625,258.70897 c 0,-2.36978 0.24381,-4.277 0.73144,-5.72168 0.48763,-1.44464 1.21224,-2.5589 2.17383,-3.34277 0.96158,-0.78384 2.17154,-1.17577 3.62988,-1.17579 1.07552,2e-5 2.01887,0.2165 2.83008,0.64942 0.81119,0.43296 1.48111,1.05731 2.00977,1.87305 0.52863,0.81577 0.94334,1.80926 1.24414,2.98046 0.30077,1.17124 0.45116,2.75034 0.45117,4.73731 -1e-5,2.35157 -0.24155,4.24968 -0.72461,5.69434 -0.48309,1.44466 -1.20542,2.56119 -2.16699,3.3496 -0.9616,0.78842 -2.17612,1.18262 -3.64356,1.18262 -1.93229,0 -3.44987,-0.69271 -4.55273,-2.07812 -1.32162,-1.66797 -1.98242,-4.38411 -1.98242,-8.14844 z m 2.52929,0 c 0,3.29037 0.38509,5.48015 1.15528,6.56934 0.77017,1.08919 1.72037,1.63379 2.85058,1.63378 1.1302,1e-5 2.0804,-0.54687 2.85059,-1.64062 0.77017,-1.09375 1.15526,-3.28124 1.15527,-6.5625 -10e-6,-3.29947 -0.3851,-5.49152 -1.15527,-6.57617 -0.77019,-1.08462 -1.7295,-1.62694 -2.87793,-1.62696 -1.13021,2e-5 -2.03256,0.47854 -2.70703,1.43555 -0.84766,1.22137 -1.27149,3.47723 -1.27149,6.76758 z" />
      <path
         id="path3242"
         style="font-size:28px"
         d="m 441.48578,299.92967 -2.46094,0 0,-15.68164 c -0.59245,0.56512 -1.36947,1.13022 -2.33105,1.69531 -0.9616,0.56512 -1.8252,0.98895 -2.59082,1.27149 l 0,-2.37891 c 1.37629,-0.64712 2.57942,-1.43097 3.60937,-2.35156 1.02994,-0.92055 1.75911,-1.81378 2.1875,-2.67969 l 1.58594,0 z" />
      <path
         id="path3244"
         style="font-size:28px"
         d="m 406.48578,268.59373 -2.46094,0 0,-15.68164 c -0.59245,0.56512 -1.36947,1.13023 -2.33105,1.69532 -0.9616,0.56511 -1.8252,0.98894 -2.59082,1.27148 l 0,-2.37891 c 1.37629,-0.64711 2.57942,-1.43097 3.60937,-2.35156 1.02994,-0.92055 1.75911,-1.81378 2.1875,-2.67969 l 1.58594,0 z" />
      <path
         id="path3246"
         style="font-size:28px"
         d="m 406.48578,299.92967 -2.46094,0 0,-15.68164 c -0.59245,0.56512 -1.36947,1.13022 -2.33105,1.69531 -0.9616,0.56512 -1.8252,0.98895 -2.59082,1.27149 l 0,-2.37891 c 1.37629,-0.64712 2.57942,-1.43097 3.60937,-2.35156 1.02994,-0.92055 1.75911,-1.81378 2.1875,-2.67969 l 1.58594,0 z" />
      <path
         id="path3248"
         style="font-size:28px"
         d="m 371.48578,268.59373 -2.46094,0 0,-15.68164 c -0.59245,0.56512 -1.36947,1.13023 -2.33105,1.69532 -0.9616,0.56511 -1.8252,0.98894 -2.59082,1.27148 l 0,-2.37891 c 1.37629,-0.64711 2.57942,-1.43097 3.60937,-2.35156 1.02994,-0.92055 1.75911,-1.81378 2.1875,-2.67969 l 1.58594,0 z" />
      <path
         id="path3250"
         style="font-size:28px"
         d="m 362.21625,290.04491 c 0,-2.36978 0.24381,-4.27701 0.73144,-5.72168 0.48763,-1.44465 1.21224,-2.5589 2.17383,-3.34278 0.96158,-0.78383 2.17154,-1.17576 3.62988,-1.17578 1.07552,2e-5 2.01887,0.21649 2.83008,0.64942 0.81119,0.43296 1.48111,1.05731 2.00977,1.87304 0.52863,0.81578 0.94334,1.80926 1.24414,2.98047 0.30077,1.17124 0.45116,2.75034 0.45117,4.73731 -1e-5,2.35157 -0.24155,4.24968 -0.72461,5.69433 -0.48309,1.44467 -1.20542,2.5612 -2.16699,3.34961 -0.9616,0.78841 -2.17612,1.18262 -3.64356,1.18262 -1.93229,0 -3.44987,-0.69271 -4.55273,-2.07813 -1.32162,-1.66796 -1.98242,-4.3841 -1.98242,-8.14843 z m 2.52929,0 c 0,3.29037 0.38509,5.48014 1.15528,6.56933 0.77017,1.0892 1.72037,1.63379 2.85058,1.63379 1.1302,0 2.0804,-0.54687 2.85059,-1.64062 0.77017,-1.09375 1.15526,-3.28125 1.15527,-6.5625 -10e-6,-3.29947 -0.3851,-5.49152 -1.15527,-6.57618 -0.77019,-1.08461 -1.7295,-1.62693 -2.87793,-1.62695 -1.13021,2e-5 -2.03256,0.47853 -2.70703,1.43555 -0.84766,1.22137 -1.27149,3.47723 -1.27149,6.76758 z" />
      <path
         id="path3252"
         style="font-size:28px"
         d="m 327.21625,258.70897 c 0,-2.36978 0.24381,-4.277 0.73144,-5.72168 0.48763,-1.44464 1.21224,-2.5589 2.17383,-3.34277 0.96158,-0.78384 2.17154,-1.17577 3.62988,-1.17579 1.07552,2e-5 2.01887,0.2165 2.83008,0.64942 0.81119,0.43296 1.48111,1.05731 2.00977,1.87305 0.52863,0.81577 0.94334,1.80926 1.24414,2.98046 0.30077,1.17124 0.45116,2.75034 0.45117,4.73731 -1e-5,2.35157 -0.24155,4.24968 -0.72461,5.69434 -0.48309,1.44466 -1.20542,2.56119 -2.16699,3.3496 -0.9616,0.78842 -2.17612,1.18262 -3.64356,1.18262 -1.93229,0 -3.44987,-0.69271 -4.55273,-2.07812 -1.32162,-1.66797 -1.98242,-4.38411 -1.98242,-8.14844 z m 2.52929,0 c 0,3.29037 0.38509,5.48015 1.15528,6.56934 0.77017,1.08919 1.72037,1.63379 2.85058,1.63378 1.1302,1e-5 2.0804,-0.54687 2.85059,-1.64062 0.77017,-1.09375 1.15526,-3.28124 1.15527,-6.5625 -10e-6,-3.29947 -0.3851,-5.49152 -1.15527,-6.57617 -0.77019,-1.08462 -1.7295,-1.62694 -2.87793,-1.62696 -1.13021,2e-5 -2.03256,0.47854 -2.70703,1.43555 -0.84766,1.22137 -1.27149,3.47723 -1.27149,6.76758 z" />
      <path
         id="path3254"
         style="font-size:28px"
         d="m 327.21625,290.04491 c 0,-2.36978 0.24381,-4.27701 0.73144,-5.72168 0.48763,-1.44465 1.21224,-2.5589 2.17383,-3.34278 0.96158,-0.78383 2.17154,-1.17576 3.62988,-1.17578 1.07552,2e-5 2.01887,0.21649 2.83008,0.64942 0.81119,0.43296 1.48111,1.05731 2.00977,1.87304 0.52863,0.81578 0.94334,1.80926 1.24414,2.98047 0.30077,1.17124 0.45116,2.75034 0.45117,4.73731 -1e-5,2.35157 -0.24155,4.24968 -0.72461,5.69433 -0.48309,1.44467 -1.20542,2.5612 -2.16699,3.34961 -0.9616,0.78841 -2.17612,1.18262 -3.64356,1.18262 -1.93229,0 -3.44987,-0.69271 -4.55273,-2.07813 -1.32162,-1.66796 -1.98242,-4.3841 -1.98242,-8.14843 z m 2.52929,0 c 0,3.29037 0.38509,5.48014 1.15528,6.56933 0.77017,1.0892 1.72037,1.63379 2.85058,1.63379 1.1302,0 2.0804,-0.54687 2.85059,-1.64062 0.77017,-1.09375 1.15526,-3.28125 1.15527,-6.5625 -10e-6,-3.29947 -0.3851,-5.49152 -1.15527,-6.57618 -0.77019,-1.08461 -1.7295,-1.62693 -2.87793,-1.62695 -1.13021,2e-5 -2.03256,0.47853 -2.70703,1.43555 -0.84766,1.22137 -1.27149,3.47723 -1.27149,6.76758 z" />
      <path
         id="path3256"
         style="font-size:28px"
         d="m 292.21625,258.70897 c 0,-2.36978 0.24381,-4.277 0.73144,-5.72168 0.48763,-1.44464 1.21224,-2.5589 2.17383,-3.34277 0.96158,-0.78384 2.17154,-1.17577 3.62988,-1.17579 1.07552,2e-5 2.01887,0.2165 2.83008,0.64942 0.81119,0.43296 1.48111,1.05731 2.00977,1.87305 0.52863,0.81577 0.94334,1.80926 1.24414,2.98046 0.30077,1.17124 0.45116,2.75034 0.45117,4.73731 -1e-5,2.35157 -0.24155,4.24968 -0.72461,5.69434 -0.48309,1.44466 -1.20542,2.56119 -2.16699,3.3496 -0.9616,0.78842 -2.17612,1.18262 -3.64356,1.18262 -1.93229,0 -3.44987,-0.69271 -4.55273,-2.07812 -1.32162,-1.66797 -1.98242,-4.38411 -1.98242,-8.14844 z m 2.52929,0 c 0,3.29037 0.38509,5.48015 1.15528,6.56934 0.77017,1.08919 1.72037,1.63379 2.85058,1.63378 1.1302,1e-5 2.0804,-0.54687 2.85059,-1.64062 0.77017,-1.09375 1.15526,-3.28124 1.15527,-6.5625 -10e-6,-3.29947 -0.3851,-5.49152 -1.15527,-6.57617 -0.77019,-1.08462 -1.7295,-1.62694 -2.87793,-1.62696 -1.13021,2e-5 -2.03256,0.47854 -2.70703,1.43555 -0.84766,1.22137 -1.27149,3.47723 -1.27149,6.76758 z" />
      <path
         id="path3258"
         style="font-size:28px"
         d="m 301.48578,299.92967 -2.46094,0 0,-15.68164 c -0.59245,0.56512 -1.36947,1.13022 -2.33105,1.69531 -0.9616,0.56512 -1.8252,0.98895 -2.59082,1.27149 l 0,-2.37891 c 1.37629,-0.64712 2.57942,-1.43097 3.60937,-2.35156 1.02994,-0.92055 1.75911,-1.81378 2.1875,-2.67969 l 1.58594,0 z" />
      <path
         id="path3260"
         style="font-size:28px"
         d="m 266.48578,268.59373 -2.46094,0 0,-15.68164 c -0.59245,0.56512 -1.36947,1.13023 -2.33105,1.69532 -0.9616,0.56511 -1.8252,0.98894 -2.59082,1.27148 l 0,-2.37891 c 1.37629,-0.64711 2.57942,-1.43097 3.60937,-2.35156 1.02994,-0.92055 1.75911,-1.81378 2.1875,-2.67969 l 1.58594,0 z" />
      <path
         id="path3262"
         style="font-size:28px"
         d="m 266.48578,299.92967 -2.46094,0 0,-15.68164 c -0.59245,0.56512 -1.36947,1.13022 -2.33105,1.69531 -0.9616,0.56512 -1.8252,0.98895 -2.59082,1.27149 l 0,-2.37891 c 1.37629,-0.64712 2.57942,-1.43097 3.60937,-2.35156 1.02994,-0.92055 1.75911,-1.81378 2.1875,-2.67969 l 1.58594,0 z" />
      <path
         id="path3264"
         style="font-size:28px"
         d="m 231.48578,268.59373 -2.46094,0 0,-15.68164 c -0.59245,0.56512 -1.36947,1.13023 -2.33105,1.69532 -0.9616,0.56511 -1.8252,0.98894 -2.59082,1.27148 l 0,-2.37891 c 1.37629,-0.64711 2.57942,-1.43097 3.60937,-2.35156 1.02994,-0.92055 1.75911,-1.81378 2.1875,-2.67969 l 1.58594,0 z" />
      <path
         id="path3266"
         style="font-size:28px"
         d="m 222.21625,290.04491 c 0,-2.36978 0.24381,-4.27701 0.73144,-5.72168 0.48763,-1.44465 1.21224,-2.5589 2.17383,-3.34278 0.96158,-0.78383 2.17154,-1.17576 3.62988,-1.17578 1.07552,2e-5 2.01887,0.21649 2.83008,0.64942 0.81119,0.43296 1.48111,1.05731 2.00977,1.87304 0.52863,0.81578 0.94334,1.80926 1.24414,2.98047 0.30077,1.17124 0.45116,2.75034 0.45117,4.73731 -1e-5,2.35157 -0.24155,4.24968 -0.72461,5.69433 -0.48309,1.44467 -1.20542,2.5612 -2.16699,3.34961 -0.9616,0.78841 -2.17612,1.18262 -3.64356,1.18262 -1.93229,0 -3.44987,-0.69271 -4.55273,-2.07813 -1.32162,-1.66796 -1.98242,-4.3841 -1.98242,-8.14843 z m 2.52929,0 c 0,3.29037 0.38509,5.48014 1.15528,6.56933 0.77017,1.0892 1.72037,1.63379 2.85058,1.63379 1.1302,0 2.0804,-0.54687 2.85059,-1.64062 0.77017,-1.09375 1.15526,-3.28125 1.15527,-6.5625 -1e-5,-3.29947 -0.3851,-5.49152 -1.15527,-6.57618 -0.77019,-1.08461 -1.7295,-1.62693 -2.87793,-1.62695 -1.13021,2e-5 -2.03256,0.47853 -2.70703,1.43555 -0.84766,1.22137 -1.27149,3.47723 -1.27149,6.76758 z" />
      <path
         id="path3268"
         style="font-size:28px"
         d="m 187.21625,258.70897 c 0,-2.36978 0.24381,-4.277 0.73144,-5.72168 0.48763,-1.44464 1.21224,-2.5589 2.17383,-3.34277 0.96158,-0.78384 2.17154,-1.17577 3.62988,-1.17579 1.07552,2e-5 2.01887,0.2165 2.83008,0.64942 0.81119,0.43296 1.48111,1.05731 2.00977,1.87305 0.52863,0.81577 0.94334,1.80926 1.24414,2.98046 0.30077,1.17124 0.45116,2.75034 0.45117,4.73731 -1e-5,2.35157 -0.24155,4.24968 -0.72461,5.69434 -0.48309,1.44466 -1.20542,2.56119 -2.16699,3.3496 -0.9616,0.78842 -2.17612,1.18262 -3.64356,1.18262 -1.93229,0 -3.44987,-0.69271 -4.55273,-2.07812 -1.32162,-1.66797 -1.98242,-4.38411 -1.98242,-8.14844 z m 2.52929,0 c 0,3.29037 0.38509,5.48015 1.15528,6.56934 0.77017,1.08919 1.72037,1.63379 2.85058,1.63378 1.1302,1e-5 2.0804,-0.54687 2.85059,-1.64062 0.77017,-1.09375 1.15526,-3.28124 1.15527,-6.5625 -1e-5,-3.29947 -0.3851,-5.49152 -1.15527,-6.57617 -0.77019,-1.08462 -1.7295,-1.62694 -2.87793,-1.62696 -1.13021,2e-5 -2.03256,0.47854 -2.70703,1.43555 -0.84766,1.22137 -1.27149,3.47723 -1.27149,6.76758 z" />
      <path
         id="path3270"
         style="font-size:28px"
         d="m 187.21625,290.04491 c 0,-2.36978 0.24381,-4.27701 0.73144,-5.72168 0.48763,-1.44465 1.21224,-2.5589 2.17383,-3.34278 0.96158,-0.78383 2.17154,-1.17576 3.62988,-1.17578 1.07552,2e-5 2.01887,0.21649 2.83008,0.64942 0.81119,0.43296 1.48111,1.05731 2.00977,1.87304 0.52863,0.81578 0.94334,1.80926 1.24414,2.98047 0.30077,1.17124 0.45116,2.75034 0.45117,4.73731 -1e-5,2.35157 -0.24155,4.24968 -0.72461,5.69433 -0.48309,1.44467 -1.20542,2.5612 -2.16699,3.34961 -0.9616,0.78841 -2.17612,1.18262 -3.64356,1.18262 -1.93229,0 -3.44987,-0.69271 -4.55273,-2.07813 -1.32162,-1.66796 -1.98242,-4.3841 -1.98242,-8.14843 z m 2.52929,0 c 0,3.29037 0.38509,5.48014 1.15528,6.56933 0.77017,1.0892 1.72037,1.63379 2.85058,1.63379 1.1302,0 2.0804,-0.54687 2.85059,-1.64062 0.77017,-1.09375 1.15526,-3.28125 1.15527,-6.5625 -1e-5,-3.29947 -0.3851,-5.49152 -1.15527,-6.57618 -0.77019,-1.08461 -1.7295,-1.62693 -2.87793,-1.62695 -1.13021,2e-5 -2.03256,0.47853 -2.70703,1.43555 -0.84766,1.22137 -1.27149,3.47723 -1.27149,6.76758 z" />
    </g>
    <g
       id="text3045"
       style="font-size:28px;font-style:normal;font-weight:normal;text-align:end;line-height:125%;letter-spacing:0px;word-spacing:0px;writing-mode:lr-tb;text-anchor:end;fill:#000000;fill-opacity:1;stroke:none;font-family:Sans">
      <path
         id="path3171"
         d="m 53.852127,266.21933 0,-20.04297 14.492188,0 0,2.36524 -11.839844,0 0,6.13867 11.08789,0 0,2.35156 -11.08789,0 0,6.82227 12.304687,0 0,2.36523 z" />
      <path
         id="path3173"
         d="m 72.186111,266.21933 0,-14.51953 2.214844,0 0,2.06445 c 1.066401,-1.59504 2.606764,-2.39256 4.621094,-2.39258 0.87499,2e-5 1.679352,0.15724 2.413086,0.47168 0.733712,0.31447 1.282865,0.7269 1.647461,1.23731 0.36457,0.51043 0.619778,1.11655 0.765625,1.81836 0.09113,0.45574 0.136705,1.25326 0.136719,2.39258 l 0,8.92773 -2.460938,0 0,-8.83203 c -1.1e-5,-1.0026 -0.09571,-1.75227 -0.287109,-2.24902 -0.191417,-0.49674 -0.530935,-0.89322 -1.018555,-1.18946 -0.48764,-0.29621 -1.059579,-0.44432 -1.71582,-0.44433 -1.048184,1e-5 -1.952806,0.33269 -2.713867,0.99804 -0.761073,0.66538 -1.141606,1.92775 -1.141602,3.78711 l 0,7.92969 z" />
      <path
         id="path3175"
         d="m 93.145096,264.01816 0.355469,2.17383 c -0.692716,0.14583 -1.312507,0.21875 -1.859375,0.21875 -0.893234,0 -1.585942,-0.14128 -2.078125,-0.42383 -0.492191,-0.28255 -0.838545,-0.65397 -1.039063,-1.11426 -0.200523,-0.46028 -0.300783,-1.42871 -0.300781,-2.90527 l 0,-8.35352 -1.804688,0 0,-1.91406 1.804688,0 0,-3.5957 2.447265,-1.47657 0,5.07227 2.47461,0 0,1.91406 -2.47461,0 0,8.49024 c -4e-6,0.70182 0.04329,1.15299 0.129883,1.35351 0.08658,0.20052 0.22786,0.36003 0.423828,0.47852 0.195958,0.11849 0.476232,0.17773 0.840821,0.17773 0.273431,0 0.633456,-0.0319 1.080078,-0.0957 z" />
      <path
         id="path3177"
         d="m 95.51033,266.21933 0,-14.51953 2.214844,0 0,2.20117 c 0.5651,-1.02993 1.086909,-1.70897 1.56543,-2.03711 0.478509,-0.32811 1.004876,-0.49217 1.579106,-0.49219 0.82941,2e-5 1.67251,0.26434 2.52929,0.79297 l -0.84765,2.28321 c -0.60157,-0.35546 -1.20314,-0.5332 -1.80469,-0.53321 -0.53777,1e-5 -1.020841,0.1618 -1.44922,0.48535 -0.428391,0.32358 -0.733729,0.77248 -0.916016,1.34668 -0.273442,0.87501 -0.410161,1.83204 -0.410156,2.8711 l 0,7.60156 z" />
      <path
         id="path3179"
         d="m 114.36385,264.42831 c -0.91147,0.77474 -1.78875,1.32162 -2.63184,1.64063 -0.84311,0.31901 -1.74773,0.47851 -2.71387,0.47851 -1.59505,0 -2.82096,-0.38964 -3.67773,-1.16894 -0.85677,-0.7793 -1.28516,-1.77506 -1.28516,-2.98731 0,-0.71093 0.16178,-1.36034 0.48535,-1.94824 0.32357,-0.58788 0.7474,-1.05956 1.27149,-1.41504 0.52408,-0.35546 1.11425,-0.62434 1.77051,-0.80664 0.48306,-0.12759 1.21223,-0.25064 2.1875,-0.36914 1.98697,-0.23697 3.44986,-0.51952 4.38867,-0.84765 0.009,-0.33723 0.0137,-0.55143 0.0137,-0.64258 -1e-5,-1.0026 -0.23243,-1.70897 -0.69727,-2.11914 -0.62891,-0.55598 -1.56316,-0.83397 -2.80273,-0.83399 -1.15756,2e-5 -2.01205,0.20282 -2.56348,0.6084 -0.55143,0.40561 -0.95931,1.12338 -1.22363,2.15332 l -2.40625,-0.32812 c 0.21875,-1.02994 0.57877,-1.86164 1.08008,-2.49512 0.5013,-0.63345 1.22591,-1.12108 2.17383,-1.46289 0.94791,-0.34178 2.04621,-0.51268 3.29492,-0.5127 1.23957,2e-5 2.24673,0.14585 3.02148,0.4375 0.77473,0.29168 1.34439,0.65855 1.70899,1.10059 0.36457,0.44207 0.61978,1.00034 0.76562,1.6748 0.082,0.41929 0.12304,1.1758 0.12305,2.26954 l 0,3.28125 c -1e-5,2.28776 0.0524,3.7347 0.15723,4.34082 0.1048,0.60612 0.31216,1.18717 0.62207,1.74316 l -2.57032,0 c -0.25522,-0.51042 -0.41928,-1.10742 -0.49218,-1.79102 z m -0.20508,-5.49609 c -0.89324,0.36459 -2.23308,0.67449 -4.01953,0.92969 -1.01173,0.14584 -1.72722,0.3099 -2.14649,0.49219 -0.41927,0.18229 -0.74284,0.44889 -0.9707,0.7998 -0.22787,0.35092 -0.3418,0.74056 -0.3418,1.16895 0,0.65625 0.24837,1.20312 0.74512,1.64062 0.49674,0.4375 1.22363,0.65625 2.18066,0.65625 0.94791,0 1.79101,-0.20735 2.5293,-0.62207 0.73827,-0.41471 1.28059,-0.98209 1.62695,-1.70215 0.26432,-0.55598 0.39648,-1.3763 0.39649,-2.46094 z" />
      <path
         id="path3181"
         d="m 129.8951,266.21933 0,-1.83203 c -0.92059,1.4401 -2.2741,2.16015 -4.06055,2.16015 -1.15756,0 -2.22169,-0.31901 -3.19238,-0.95703 -0.97071,-0.63802 -1.72266,-1.52897 -2.25586,-2.67285 -0.53321,-1.14387 -0.79981,-2.45865 -0.79981,-3.94433 0,-1.44921 0.24154,-2.76399 0.72461,-3.94434 0.48307,-1.18033 1.20768,-2.08495 2.17383,-2.71387 0.96614,-0.62889 2.04622,-0.94334 3.24023,-0.94336 0.875,2e-5 1.65429,0.18459 2.33789,0.55371 0.68359,0.36916 1.23958,0.84995 1.66797,1.44239 l 0,-7.19141 2.44727,0 0,20.04297 z m -7.7793,-7.24609 c 0,1.85938 0.39192,3.24935 1.17578,4.16992 0.78385,0.92057 1.70898,1.38086 2.77539,1.38086 1.07551,0 1.98925,-0.43978 2.74121,-1.31934 0.75194,-0.87955 1.12792,-2.22167 1.12793,-4.02637 -1e-5,-1.98697 -0.38282,-3.4453 -1.14844,-4.375 -0.76563,-0.92967 -1.70899,-1.39451 -2.83007,-1.39453 -1.09376,2e-5 -2.0075,0.44663 -2.74122,1.33985 -0.73372,0.89324 -1.10058,2.30144 -1.10058,4.22461 z" />
      <path
         id="path3183"
         d="m 145.53572,264.42831 c -0.91147,0.77474 -1.78875,1.32162 -2.63184,1.64063 -0.8431,0.31901 -1.74772,0.47851 -2.71386,0.47851 -1.59506,0 -2.82097,-0.38964 -3.67774,-1.16894 -0.85677,-0.7793 -1.28515,-1.77506 -1.28515,-2.98731 0,-0.71093 0.16178,-1.36034 0.48535,-1.94824 0.32356,-0.58788 0.74739,-1.05956 1.27148,-1.41504 0.52409,-0.35546 1.11426,-0.62434 1.77051,-0.80664 0.48307,-0.12759 1.21223,-0.25064 2.1875,-0.36914 1.98697,-0.23697 3.44986,-0.51952 4.38867,-0.84765 0.009,-0.33723 0.0137,-0.55143 0.0137,-0.64258 -10e-6,-1.0026 -0.23243,-1.70897 -0.69726,-2.11914 -0.62892,-0.55598 -1.56316,-0.83397 -2.80274,-0.83399 -1.15755,2e-5 -2.01205,0.20282 -2.56347,0.6084 -0.55144,0.40561 -0.95932,1.12338 -1.22363,2.15332 l -2.40625,-0.32812 c 0.21874,-1.02994 0.57877,-1.86164 1.08007,-2.49512 0.5013,-0.63345 1.22591,-1.12108 2.17383,-1.46289 0.94791,-0.34178 2.04622,-0.51268 3.29492,-0.5127 1.23958,2e-5 2.24674,0.14585 3.02149,0.4375 0.77473,0.29168 1.34439,0.65855 1.70898,1.10059 0.36457,0.44207 0.61978,1.00034 0.76563,1.6748 0.082,0.41929 0.12303,1.1758 0.12304,2.26954 l 0,3.28125 c -1e-5,2.28776 0.0524,3.7347 0.15723,4.34082 0.1048,0.60612 0.31216,1.18717 0.62207,1.74316 l -2.57031,0 c -0.25522,-0.51042 -0.41928,-1.10742 -0.49219,-1.79102 z m -0.20508,-5.49609 c -0.89324,0.36459 -2.23308,0.67449 -4.01953,0.92969 -1.01172,0.14584 -1.72722,0.3099 -2.14648,0.49219 -0.41928,0.18229 -0.74285,0.44889 -0.97071,0.7998 -0.22786,0.35092 -0.3418,0.74056 -0.34179,1.16895 -10e-6,0.65625 0.24837,1.20312 0.74511,1.64062 0.49674,0.4375 1.22363,0.65625 2.18067,0.65625 0.94791,0 1.79101,-0.20735 2.5293,-0.62207 0.73827,-0.41471 1.28058,-0.98209 1.62695,-1.70215 0.26431,-0.55598 0.39647,-1.3763 0.39648,-2.46094 z" />
      <path
         id="path3185"
         d="m 160.23299,266.21933 -2.46094,0 0,-15.68164 c -0.59246,0.56512 -1.36947,1.13022 -2.33106,1.69531 -0.96159,0.56512 -1.82519,0.98895 -2.59082,1.27149 l 0,-2.37891 c 1.3763,-0.64712 2.57943,-1.43097 3.60938,-2.35156 1.02994,-0.92056 1.75911,-1.81379 2.1875,-2.67969 l 1.58594,0 z" />
      <path
         id="path3187"
         d="m 167.91658,254.50253 0,-2.80273 2.80273,0 0,2.80273 z m 0,11.7168 0,-2.80273 2.80273,0 0,2.80273 z" />
      <path
         id="path3189"
         d="m 53.852127,301.21933 0,-20.04297 14.492188,0 0,2.36524 -11.839844,0 0,6.13867 11.08789,0 0,2.35156 -11.08789,0 0,6.82227 12.304687,0 0,2.36523 z" />
      <path
         id="path3191"
         d="m 72.186111,301.21933 0,-14.51953 2.214844,0 0,2.06445 c 1.066401,-1.59504 2.606764,-2.39256 4.621094,-2.39258 0.87499,2e-5 1.679352,0.15724 2.413086,0.47168 0.733712,0.31447 1.282865,0.7269 1.647461,1.23731 0.36457,0.51043 0.619778,1.11655 0.765625,1.81836 0.09113,0.45574 0.136705,1.25326 0.136719,2.39258 l 0,8.92773 -2.460938,0 0,-8.83203 c -1.1e-5,-1.0026 -0.09571,-1.75227 -0.287109,-2.24902 -0.191417,-0.49674 -0.530935,-0.89322 -1.018555,-1.18946 -0.48764,-0.29621 -1.059579,-0.44432 -1.71582,-0.44433 -1.048184,1e-5 -1.952806,0.33269 -2.713867,0.99804 -0.761073,0.66538 -1.141606,1.92775 -1.141602,3.78711 l 0,7.92969 z" />
      <path
         id="path3193"
         d="m 93.145096,299.01816 0.355469,2.17383 c -0.692716,0.14583 -1.312507,0.21875 -1.859375,0.21875 -0.893234,0 -1.585942,-0.14128 -2.078125,-0.42383 -0.492191,-0.28255 -0.838545,-0.65397 -1.039063,-1.11426 -0.200523,-0.46028 -0.300783,-1.42871 -0.300781,-2.90527 l 0,-8.35352 -1.804688,0 0,-1.91406 1.804688,0 0,-3.5957 2.447265,-1.47657 0,5.07227 2.47461,0 0,1.91406 -2.47461,0 0,8.49024 c -4e-6,0.70182 0.04329,1.15299 0.129883,1.35351 0.08658,0.20052 0.22786,0.36003 0.423828,0.47852 0.195958,0.11849 0.476232,0.17773 0.840821,0.17773 0.273431,0 0.633456,-0.0319 1.080078,-0.0957 z" />
      <path
         id="path3195"
         d="m 95.51033,301.21933 0,-14.51953 2.214844,0 0,2.20117 c 0.5651,-1.02993 1.086909,-1.70897 1.56543,-2.03711 0.478509,-0.32811 1.004876,-0.49217 1.579106,-0.49219 0.82941,2e-5 1.67251,0.26434 2.52929,0.79297 l -0.84765,2.28321 c -0.60157,-0.35546 -1.20314,-0.5332 -1.80469,-0.53321 -0.53777,10e-6 -1.020841,0.1618 -1.44922,0.48535 -0.428391,0.32358 -0.733729,0.77248 -0.916016,1.34668 -0.273442,0.87501 -0.410161,1.83204 -0.410156,2.8711 l 0,7.60156 z" />
      <path
         id="path3197"
         d="m 114.36385,299.42831 c -0.91147,0.77474 -1.78875,1.32162 -2.63184,1.64063 -0.84311,0.31901 -1.74773,0.47851 -2.71387,0.47851 -1.59505,0 -2.82096,-0.38964 -3.67773,-1.16894 -0.85677,-0.7793 -1.28516,-1.77506 -1.28516,-2.98731 0,-0.71093 0.16178,-1.36034 0.48535,-1.94824 0.32357,-0.58788 0.7474,-1.05956 1.27149,-1.41504 0.52408,-0.35546 1.11425,-0.62434 1.77051,-0.80664 0.48306,-0.12759 1.21223,-0.25064 2.1875,-0.36914 1.98697,-0.23697 3.44986,-0.51952 4.38867,-0.84765 0.009,-0.33723 0.0137,-0.55143 0.0137,-0.64258 -1e-5,-1.0026 -0.23243,-1.70897 -0.69727,-2.11914 -0.62891,-0.55598 -1.56316,-0.83397 -2.80273,-0.83399 -1.15756,2e-5 -2.01205,0.20282 -2.56348,0.6084 -0.55143,0.40561 -0.95931,1.12338 -1.22363,2.15332 l -2.40625,-0.32812 c 0.21875,-1.02994 0.57877,-1.86164 1.08008,-2.49512 0.5013,-0.63345 1.22591,-1.12108 2.17383,-1.46289 0.94791,-0.34178 2.04621,-0.51268 3.29492,-0.5127 1.23957,2e-5 2.24673,0.14585 3.02148,0.4375 0.77473,0.29168 1.34439,0.65855 1.70899,1.10059 0.36457,0.44207 0.61978,1.00034 0.76562,1.6748 0.082,0.41929 0.12304,1.1758 0.12305,2.26954 l 0,3.28125 c -1e-5,2.28776 0.0524,3.7347 0.15723,4.34082 0.1048,0.60612 0.31216,1.18717 0.62207,1.74316 l -2.57032,0 c -0.25522,-0.51042 -0.41928,-1.10742 -0.49218,-1.79102 z m -0.20508,-5.49609 c -0.89324,0.36459 -2.23308,0.67449 -4.01953,0.92969 -1.01173,0.14584 -1.72722,0.3099 -2.14649,0.49219 -0.41927,0.18229 -0.74284,0.44889 -0.9707,0.7998 -0.22787,0.35092 -0.3418,0.74056 -0.3418,1.16895 0,0.65625 0.24837,1.20312 0.74512,1.64062 0.49674,0.4375 1.22363,0.65625 2.18066,0.65625 0.94791,0 1.79101,-0.20735 2.5293,-0.62207 0.73827,-0.41471 1.28059,-0.98209 1.62695,-1.70215 0.26432,-0.55598 0.39648,-1.3763 0.39649,-2.46094 z" />
      <path
         id="path3199"
         d="m 129.8951,301.21933 0,-1.83203 c -0.92059,1.4401 -2.2741,2.16015 -4.06055,2.16015 -1.15756,0 -2.22169,-0.31901 -3.19238,-0.95703 -0.97071,-0.63802 -1.72266,-1.52897 -2.25586,-2.67285 -0.53321,-1.14387 -0.79981,-2.45865 -0.79981,-3.94433 0,-1.44921 0.24154,-2.76399 0.72461,-3.94434 0.48307,-1.18033 1.20768,-2.08495 2.17383,-2.71387 0.96614,-0.62889 2.04622,-0.94334 3.24023,-0.94336 0.875,2e-5 1.65429,0.18459 2.33789,0.55371 0.68359,0.36916 1.23958,0.84995 1.66797,1.44239 l 0,-7.19141 2.44727,0 0,20.04297 z m -7.7793,-7.24609 c 0,1.85938 0.39192,3.24935 1.17578,4.16992 0.78385,0.92057 1.70898,1.38086 2.77539,1.38086 1.07551,0 1.98925,-0.43978 2.74121,-1.31934 0.75194,-0.87955 1.12792,-2.22167 1.12793,-4.02637 -1e-5,-1.98697 -0.38282,-3.4453 -1.14844,-4.375 -0.76563,-0.92967 -1.70899,-1.39451 -2.83007,-1.39453 -1.09376,2e-5 -2.0075,0.44663 -2.74122,1.33985 -0.73372,0.89324 -1.10058,2.30144 -1.10058,4.22461 z" />
      <path
         id="path3201"
         d="m 145.53572,299.42831 c -0.91147,0.77474 -1.78875,1.32162 -2.63184,1.64063 -0.8431,0.31901 -1.74772,0.47851 -2.71386,0.47851 -1.59506,0 -2.82097,-0.38964 -3.67774,-1.16894 -0.85677,-0.7793 -1.28515,-1.77506 -1.28515,-2.98731 0,-0.71093 0.16178,-1.36034 0.48535,-1.94824 0.32356,-0.58788 0.74739,-1.05956 1.27148,-1.41504 0.52409,-0.35546 1.11426,-0.62434 1.77051,-0.80664 0.48307,-0.12759 1.21223,-0.25064 2.1875,-0.36914 1.98697,-0.23697 3.44986,-0.51952 4.38867,-0.84765 0.009,-0.33723 0.0137,-0.55143 0.0137,-0.64258 -10e-6,-1.0026 -0.23243,-1.70897 -0.69726,-2.11914 -0.62892,-0.55598 -1.56316,-0.83397 -2.80274,-0.83399 -1.15755,2e-5 -2.01205,0.20282 -2.56347,0.6084 -0.55144,0.40561 -0.95932,1.12338 -1.22363,2.15332 l -2.40625,-0.32812 c 0.21874,-1.02994 0.57877,-1.86164 1.08007,-2.49512 0.5013,-0.63345 1.22591,-1.12108 2.17383,-1.46289 0.94791,-0.34178 2.04622,-0.51268 3.29492,-0.5127 1.23958,2e-5 2.24674,0.14585 3.02149,0.4375 0.77473,0.29168 1.34439,0.65855 1.70898,1.10059 0.36457,0.44207 0.61978,1.00034 0.76563,1.6748 0.082,0.41929 0.12303,1.1758 0.12304,2.26954 l 0,3.28125 c -1e-5,2.28776 0.0524,3.7347 0.15723,4.34082 0.1048,0.60612 0.31216,1.18717 0.62207,1.74316 l -2.57031,0 c -0.25522,-0.51042 -0.41928,-1.10742 -0.49219,-1.79102 z m -0.20508,-5.49609 c -0.89324,0.36459 -2.23308,0.67449 -4.01953,0.92969 -1.01172,0.14584 -1.72722,0.3099 -2.14648,0.49219 -0.41928,0.18229 -0.74285,0.44889 -0.97071,0.7998 -0.22786,0.35092 -0.3418,0.74056 -0.34179,1.16895 -10e-6,0.65625 0.24837,1.20312 0.74511,1.64062 0.49674,0.4375 1.22363,0.65625 2.18067,0.65625 0.94791,0 1.79101,-0.20735 2.5293,-0.62207 0.73827,-0.41471 1.28058,-0.98209 1.62695,-1.70215 0.26431,-0.55598 0.39647,-1.3763 0.39648,-2.46094 z" />
      <path
         id="path3203"
         d="m 163.89705,298.8541 0,2.36523 -13.24805,0 c -0.0182,-0.59245 0.0775,-1.16211 0.28711,-1.70898 0.33724,-0.90235 0.87728,-1.79102 1.62012,-2.66602 0.74283,-0.87499 1.81607,-1.88671 3.21973,-3.03516 2.17837,-1.78645 3.65038,-3.20148 4.41601,-4.24511 0.76561,-1.04361 1.14843,-2.03026 1.14844,-2.95996 -1e-5,-0.97525 -0.34865,-1.79784 -1.0459,-2.46778 -0.69728,-0.6699 -1.60645,-1.00486 -2.72754,-1.00488 -1.1849,2e-5 -2.13282,0.35549 -2.84375,1.06641 -0.71094,0.71095 -1.07097,1.69532 -1.08008,2.95312 l -2.52929,-0.25977 c 0.17317,-1.8867 0.82486,-3.32452 1.95507,-4.31347 1.13021,-0.98891 2.64778,-1.48338 4.55274,-1.4834 1.92317,2e-5 3.4453,0.53322 4.5664,1.59961 1.12108,1.06642 1.68163,2.38804 1.68165,3.96484 -2e-5,0.8021 -0.16408,1.59051 -0.49219,2.36524 -0.32814,0.77475 -0.87274,1.5905 -1.63379,2.44726 -0.76108,0.85678 -2.02573,2.03256 -3.79395,3.52735 -1.47657,1.23959 -2.42448,2.0804 -2.84375,2.52246 -0.41927,0.44206 -0.76563,0.88639 -1.03906,1.33301 z" />
      <path
         id="path3205"
         d="m 167.91658,289.50253 0,-2.80273 2.80273,0 0,2.80273 z m 0,11.7168 0,-2.80273 2.80273,0 0,2.80273 z" />
    </g>
    <text
       id="text3051"
       y="788.79077"
       x="66.428574"
       style="font-size:40px;font-style:normal;font-weight:normal;line-height:125%;letter-spacing:0px;word-spacing:0px;writing-mode:tb-rl;fill:#000000;fill-opacity:1;stroke:none;font-family:Sans"
       xml:space="preserve"><tspan
         id="tspan3059"
         y="66.428574"
         x="788.79077" /></text>
    <text
       id="text3063"
       y="788.79077"
       x="585"
       style="font-size:28px;font-style:normal;font-weight:normal;line-height:125%;letter-spacing:0px;word-spacing:0px;writing-mode:tb-rl;fill:#000000;fill-opacity:1;stroke:none;font-family:Sans"
       xml:space="preserve"><tspan
         y="585"
         x="788.79077"
         id="tspan3065" /></text>
    <g
       id="text3067"
       style="font-size:28px;font-style:normal;font-weight:normal;line-height:125%;letter-spacing:0px;word-spacing:0px;writing-mode:tb-rl;fill:#000000;fill-opacity:1;stroke:none;font-family:Sans">
      <path
         id="path3106"
         d="m 712.65479,335.733 c -1e-5,-2.36978 0.24381,-4.277 0.73144,-5.72168 0.48763,-1.44464 1.21224,-2.5589 2.17383,-3.34277 0.96158,-0.78384 2.17154,-1.17576 3.62988,-1.17578 1.07551,2e-5 2.01887,0.21649 2.83008,0.64941 0.81119,0.43296 1.48111,1.05731 2.00977,1.87305 0.52863,0.81577 0.94334,1.80926 1.24414,2.98047 0.30076,1.17123 0.45115,2.75033 0.45117,4.7373 -2e-5,2.35157 -0.24155,4.24968 -0.72461,5.69434 -0.48309,1.44466 -1.20542,2.5612 -2.16699,3.34961 -0.9616,0.78841 -2.17612,1.18261 -3.64356,1.18261 -1.9323,0 -3.44987,-0.6927 -4.55273,-2.07812 -1.32162,-1.66797 -1.98243,-4.38411 -1.98242,-8.14844 z m 2.52929,0 c 0,3.29037 0.38509,5.48015 1.15528,6.56934 0.77017,1.08919 1.72037,1.63379 2.85058,1.63379 1.1302,0 2.0804,-0.54688 2.85059,-1.64063 0.77017,-1.09374 1.15526,-3.28124 1.15527,-6.5625 -10e-6,-3.29946 -0.3851,-5.49152 -1.15527,-6.57617 -0.77019,-1.08462 -1.7295,-1.62694 -2.87793,-1.62695 -1.13022,1e-5 -2.03256,0.47853 -2.70703,1.43554 -0.84766,1.22137 -1.27149,3.47723 -1.27149,6.76758 z" />
      <path
         id="path3108"
         d="m 715.49854,370.93808 0,-2.47461 7.56054,0 0,2.47461 z" />
      <path
         id="path3110"
         d="m 686.92432,345.61777 -2.46094,0 0,-15.68164 c -0.59246,0.56512 -1.36947,1.13022 -2.33106,1.69531 -0.96159,0.56512 -1.82519,0.98894 -2.59082,1.27148 l 0,-2.3789 c 1.3763,-0.64712 2.57943,-1.43098 3.60938,-2.35157 1.02994,-0.92055 1.75911,-1.81378 2.1875,-2.67968 l 1.58594,0 z" />
      <path
         id="path3112"
         d="m 680.49854,370.93808 0,-2.47461 7.56054,0 0,2.47461 z" />
      <path
         id="path3114"
         d="m 655.58838,343.25253 0,2.36524 -13.24805,0 c -0.0182,-0.59245 0.0775,-1.16211 0.28711,-1.70899 0.33724,-0.90234 0.87728,-1.79101 1.62012,-2.66601 0.74283,-0.875 1.81607,-1.88672 3.21973,-3.03516 2.17837,-1.78645 3.65038,-3.20149 4.41601,-4.24512 0.76561,-1.0436 1.14843,-2.03026 1.14844,-2.95996 -10e-6,-0.97524 -0.34865,-1.79783 -1.0459,-2.46777 -0.69728,-0.6699 -1.60645,-1.00487 -2.72754,-1.00488 -1.1849,1e-5 -2.13282,0.35548 -2.84375,1.0664 -0.71094,0.71096 -1.07097,1.69533 -1.08008,2.95313 l -2.52929,-0.25977 c 0.17317,-1.8867 0.82486,-3.32452 1.95507,-4.31347 1.13021,-0.98892 2.64778,-1.48338 4.55274,-1.4834 1.92317,2e-5 3.4453,0.53322 4.5664,1.59961 1.12108,1.06642 1.68163,2.38803 1.68165,3.96484 -2e-5,0.8021 -0.16408,1.59051 -0.49219,2.36523 -0.32814,0.77476 -0.87274,1.59051 -1.63379,2.44727 -0.76108,0.85678 -2.02573,2.03256 -3.79395,3.52734 -1.47657,1.23959 -2.42448,2.08041 -2.84375,2.52247 -0.41927,0.44206 -0.76563,0.88639 -1.03906,1.333 z" />
      <path
         id="path3116"
         d="m 645.49854,370.93808 0,-2.47461 7.56054,0 0,2.47461 z" />
      <path
         id="path3118"
         d="m 607.66846,340.32675 2.46093,-0.32812 c 0.28255,1.39453 0.76335,2.39941 1.44239,3.01465 0.67903,0.61523 1.50618,0.92285 2.48144,0.92285 1.15755,0 2.13508,-0.40104 2.93262,-1.20313 0.79751,-0.80208 1.19628,-1.79557 1.19629,-2.98047 -10e-6,-1.1302 -0.36915,-2.06216 -1.10742,-2.7959 -0.73829,-0.73371 -1.6771,-1.10057 -2.81641,-1.10058 -0.46485,1e-5 -1.04363,0.0912 -1.73633,0.27344 l 0.27344,-2.16016 c 0.16406,0.0182 0.29622,0.0274 0.39648,0.0273 1.04817,2e-5 1.99153,-0.27342 2.83008,-0.82031 0.83853,-0.54686 1.2578,-1.38996 1.25782,-2.5293 -2e-5,-0.90232 -0.30535,-1.64972 -0.91602,-2.24218 -0.61069,-0.59243 -1.3991,-0.88866 -2.36523,-0.88868 -0.95704,2e-5 -1.75457,0.3008 -2.39258,0.90235 -0.63803,0.60158 -1.04818,1.50392 -1.23047,2.70703 l -2.46094,-0.4375 c 0.30078,-1.64972 0.98437,-2.92804 2.05078,-3.83496 1.0664,-0.90688 2.39257,-1.36033 3.97852,-1.36035 1.09374,2e-5 2.1009,0.23472 3.02148,0.7041 0.92056,0.46942 1.62466,1.10972 2.11231,1.9209 0.48761,0.81121 0.73143,1.67254 0.73144,2.58398 -10e-6,0.8659 -0.23243,1.65431 -0.69726,2.36524 -0.46486,0.71095 -1.15301,1.27605 -2.06446,1.69531 1.18489,0.27345 2.10546,0.84083 2.76172,1.70215 0.65624,0.86133 0.98436,1.93913 0.98438,3.2334 -2e-5,1.75 -0.63804,3.2334 -1.91407,4.45019 -1.27605,1.2168 -2.88933,1.8252 -4.83984,1.8252 -1.75912,0 -3.21973,-0.52409 -4.38184,-1.57227 -1.16211,-1.04817 -1.82519,-2.40625 -1.98925,-4.07422 z" />
      <path
         id="path3120"
         d="m 610.49854,370.93808 0,-2.47461 7.56054,0 0,2.47461 z" />
      <path
         id="path3122"
         d="m 572.65479,335.733 c -1e-5,-2.36978 0.24381,-4.277 0.73144,-5.72168 0.48763,-1.44464 1.21224,-2.5589 2.17383,-3.34277 0.96158,-0.78384 2.17154,-1.17576 3.62988,-1.17578 1.07551,2e-5 2.01887,0.21649 2.83008,0.64941 0.81119,0.43296 1.48111,1.05731 2.00977,1.87305 0.52863,0.81577 0.94334,1.80926 1.24414,2.98047 0.30076,1.17123 0.45115,2.75033 0.45117,4.7373 -2e-5,2.35157 -0.24155,4.24968 -0.72461,5.69434 -0.48309,1.44466 -1.20542,2.5612 -2.16699,3.34961 -0.9616,0.78841 -2.17612,1.18261 -3.64356,1.18261 -1.9323,0 -3.44987,-0.6927 -4.55273,-2.07812 -1.32162,-1.66797 -1.98243,-4.38411 -1.98242,-8.14844 z m 2.52929,0 c 0,3.29037 0.38509,5.48015 1.15528,6.56934 0.77017,1.08919 1.72037,1.63379 2.85058,1.63379 1.1302,0 2.0804,-0.54688 2.85059,-1.64063 0.77017,-1.09374 1.15526,-3.28124 1.15527,-6.5625 -10e-6,-3.29946 -0.3851,-5.49152 -1.15527,-6.57617 -0.77019,-1.08462 -1.7295,-1.62694 -2.87793,-1.62695 -1.13022,1e-5 -2.03256,0.47853 -2.70703,1.43554 -0.84766,1.22137 -1.27149,3.47723 -1.27149,6.76758 z" />
      <path
         id="path3124"
         d="m 575.49854,370.93808 0,-2.47461 7.56054,0 0,2.47461 z" />
      <path
         id="path3126"
         d="m 546.92432,345.61777 -2.46094,0 0,-15.68164 c -0.59246,0.56512 -1.36947,1.13022 -2.33106,1.69531 -0.96159,0.56512 -1.82519,0.98894 -2.59082,1.27148 l 0,-2.3789 c 1.3763,-0.64712 2.57943,-1.43098 3.60938,-2.35157 1.02994,-0.92055 1.75911,-1.81378 2.1875,-2.67968 l 1.58594,0 z" />
      <path
         id="path3128"
         d="m 540.49854,370.93808 0,-2.47461 7.56054,0 0,2.47461 z" />
      <path
         id="path3130"
         d="m 515.58838,343.25253 0,2.36524 -13.24805,0 c -0.0182,-0.59245 0.0775,-1.16211 0.28711,-1.70899 0.33724,-0.90234 0.87728,-1.79101 1.62012,-2.66601 0.74283,-0.875 1.81607,-1.88672 3.21973,-3.03516 2.17837,-1.78645 3.65038,-3.20149 4.41601,-4.24512 0.76561,-1.0436 1.14843,-2.03026 1.14844,-2.95996 -10e-6,-0.97524 -0.34865,-1.79783 -1.0459,-2.46777 -0.69728,-0.6699 -1.60645,-1.00487 -2.72754,-1.00488 -1.1849,1e-5 -2.13282,0.35548 -2.84375,1.0664 -0.71094,0.71096 -1.07097,1.69533 -1.08008,2.95313 l -2.52929,-0.25977 c 0.17317,-1.8867 0.82486,-3.32452 1.95507,-4.31347 1.13021,-0.98892 2.64778,-1.48338 4.55274,-1.4834 1.92317,2e-5 3.4453,0.53322 4.5664,1.59961 1.12108,1.06642 1.68163,2.38803 1.68165,3.96484 -2e-5,0.8021 -0.16408,1.59051 -0.49219,2.36523 -0.32814,0.77476 -0.87274,1.59051 -1.63379,2.44727 -0.76108,0.85678 -2.02573,2.03256 -3.79395,3.52734 -1.47657,1.23959 -2.42448,2.08041 -2.84375,2.52247 -0.41927,0.44206 -0.76563,0.88639 -1.03906,1.333 z" />
      <path
         id="path3132"
         d="m 505.49854,370.93808 0,-2.47461 7.56054,0 0,2.47461 z" />
      <path
         id="path3134"
         d="m 467.66846,340.32675 2.46093,-0.32812 c 0.28255,1.39453 0.76335,2.39941 1.44239,3.01465 0.67903,0.61523 1.50618,0.92285 2.48144,0.92285 1.15755,0 2.13508,-0.40104 2.93262,-1.20313 0.79751,-0.80208 1.19628,-1.79557 1.19629,-2.98047 -10e-6,-1.1302 -0.36915,-2.06216 -1.10742,-2.7959 -0.73829,-0.73371 -1.6771,-1.10057 -2.81641,-1.10058 -0.46485,1e-5 -1.04363,0.0912 -1.73633,0.27344 l 0.27344,-2.16016 c 0.16406,0.0182 0.29622,0.0274 0.39648,0.0273 1.04817,2e-5 1.99153,-0.27342 2.83008,-0.82031 0.83853,-0.54686 1.2578,-1.38996 1.25782,-2.5293 -2e-5,-0.90232 -0.30535,-1.64972 -0.91602,-2.24218 -0.61069,-0.59243 -1.3991,-0.88866 -2.36523,-0.88868 -0.95704,2e-5 -1.75457,0.3008 -2.39258,0.90235 -0.63803,0.60158 -1.04818,1.50392 -1.23047,2.70703 l -2.46094,-0.4375 c 0.30078,-1.64972 0.98437,-2.92804 2.05078,-3.83496 1.0664,-0.90688 2.39257,-1.36033 3.97852,-1.36035 1.09374,2e-5 2.1009,0.23472 3.02148,0.7041 0.92056,0.46942 1.62466,1.10972 2.11231,1.9209 0.48761,0.81121 0.73143,1.67254 0.73144,2.58398 -10e-6,0.8659 -0.23243,1.65431 -0.69726,2.36524 -0.46486,0.71095 -1.15301,1.27605 -2.06446,1.69531 1.18489,0.27345 2.10546,0.84083 2.76172,1.70215 0.65624,0.86133 0.98436,1.93913 0.98438,3.2334 -2e-5,1.75 -0.63804,3.2334 -1.91407,4.45019 -1.27605,1.2168 -2.88933,1.8252 -4.83984,1.8252 -1.75912,0 -3.21973,-0.52409 -4.38184,-1.57227 -1.16211,-1.04817 -1.82519,-2.40625 -1.98925,-4.07422 z" />
      <path
         id="path3136"
         d="m 467.49072,376.9537 5.30469,-7.54687 -4.9082,-6.97266 3.07617,0 2.22851,3.4043 c 0.41927,0.64715 0.75651,1.18946 1.01172,1.62695 0.40104,-0.60155 0.77018,-1.13475 1.10743,-1.59961 l 2.44726,-3.43164 2.93945,0 -5.01757,6.83594 5.40039,7.68359 -3.02149,0 -2.98047,-4.51171 -0.79297,-1.2168 -3.81445,5.72851 z" />
      <path
         id="path3138"
         d="m 432.66846,340.32675 2.46093,-0.32812 c 0.28255,1.39453 0.76335,2.39941 1.44239,3.01465 0.67903,0.61523 1.50618,0.92285 2.48144,0.92285 1.15755,0 2.13508,-0.40104 2.93262,-1.20313 0.79751,-0.80208 1.19628,-1.79557 1.19629,-2.98047 -10e-6,-1.1302 -0.36915,-2.06216 -1.10742,-2.7959 -0.73829,-0.73371 -1.6771,-1.10057 -2.81641,-1.10058 -0.46485,1e-5 -1.04363,0.0912 -1.73633,0.27344 l 0.27344,-2.16016 c 0.16406,0.0182 0.29622,0.0274 0.39648,0.0273 1.04817,2e-5 1.99153,-0.27342 2.83008,-0.82031 0.83853,-0.54686 1.2578,-1.38996 1.25782,-2.5293 -2e-5,-0.90232 -0.30535,-1.64972 -0.91602,-2.24218 -0.61069,-0.59243 -1.3991,-0.88866 -2.36523,-0.88868 -0.95704,2e-5 -1.75457,0.3008 -2.39258,0.90235 -0.63803,0.60158 -1.04818,1.50392 -1.23047,2.70703 l -2.46094,-0.4375 c 0.30078,-1.64972 0.98437,-2.92804 2.05078,-3.83496 1.0664,-0.90688 2.39257,-1.36033 3.97852,-1.36035 1.09374,2e-5 2.1009,0.23472 3.02148,0.7041 0.92056,0.46942 1.62466,1.10972 2.11231,1.9209 0.48761,0.81121 0.73143,1.67254 0.73144,2.58398 -10e-6,0.8659 -0.23243,1.65431 -0.69726,2.36524 -0.46486,0.71095 -1.15301,1.27605 -2.06446,1.69531 1.18489,0.27345 2.10546,0.84083 2.76172,1.70215 0.65624,0.86133 0.98436,1.93913 0.98438,3.2334 -2e-5,1.75 -0.63804,3.2334 -1.91407,4.45019 -1.27605,1.2168 -2.88933,1.8252 -4.83984,1.8252 -1.75912,0 -3.21973,-0.52409 -4.38184,-1.57227 -1.16211,-1.04817 -1.82519,-2.40625 -1.98925,-4.07422 z" />
      <path
         id="path3140"
         d="m 438.12354,373.71347 0,-5.49609 -5.45508,0 0,-2.29688 5.45508,0 0,-5.45508 2.32421,0 0,5.45508 5.45508,0 0,2.29688 -5.45508,0 0,5.49609 z" />
      <path
         id="path3142"
         d="m 410.58838,343.25253 0,2.36524 -13.24805,0 c -0.0182,-0.59245 0.0775,-1.16211 0.28711,-1.70899 0.33724,-0.90234 0.87728,-1.79101 1.62012,-2.66601 0.74283,-0.875 1.81607,-1.88672 3.21973,-3.03516 2.17837,-1.78645 3.65038,-3.20149 4.41601,-4.24512 0.76561,-1.0436 1.14843,-2.03026 1.14844,-2.95996 -1e-5,-0.97524 -0.34865,-1.79783 -1.0459,-2.46777 -0.69728,-0.6699 -1.60645,-1.00487 -2.72754,-1.00488 -1.1849,1e-5 -2.13282,0.35548 -2.84375,1.0664 -0.71094,0.71096 -1.07097,1.69533 -1.08008,2.95313 l -2.52929,-0.25977 c 0.17317,-1.8867 0.82486,-3.32452 1.95507,-4.31347 1.13021,-0.98892 2.64778,-1.48338 4.55274,-1.4834 1.92317,2e-5 3.4453,0.53322 4.5664,1.59961 1.12108,1.06642 1.68163,2.38803 1.68165,3.96484 -2e-5,0.8021 -0.16408,1.59051 -0.49219,2.36523 -0.32814,0.77476 -0.87274,1.59051 -1.63379,2.44727 -0.76108,0.85678 -2.02573,2.03256 -3.79395,3.52734 -1.47657,1.23959 -2.42448,2.08041 -2.84375,2.52247 -0.41927,0.44206 -0.76563,0.88639 -1.03906,1.333 z" />
      <path
         id="path3144"
         d="m 403.12354,373.71347 0,-5.49609 -5.45508,0 0,-2.29688 5.45508,0 0,-5.45508 2.32421,0 0,5.45508 5.45508,0 0,2.29688 -5.45508,0 0,5.49609 z" />
      <path
         id="path3146"
         d="m 371.92432,345.61777 -2.46094,0 0,-15.68164 c -0.59246,0.56512 -1.36947,1.13022 -2.33106,1.69531 -0.96159,0.56512 -1.82519,0.98894 -2.59082,1.27148 l 0,-2.3789 c 1.3763,-0.64712 2.57943,-1.43098 3.60938,-2.35157 1.02994,-0.92055 1.75911,-1.81378 2.1875,-2.67968 l 1.58594,0 z" />
      <path
         id="path3148"
         d="m 368.12354,373.71347 0,-5.49609 -5.45508,0 0,-2.29688 5.45508,0 0,-5.45508 2.32421,0 0,5.45508 5.45508,0 0,2.29688 -5.45508,0 0,5.49609 z" />
      <path
         id="path3150"
         d="m 327.65479,335.733 c -10e-6,-2.36978 0.24381,-4.277 0.73144,-5.72168 0.48763,-1.44464 1.21224,-2.5589 2.17383,-3.34277 0.96158,-0.78384 2.17154,-1.17576 3.62988,-1.17578 1.07551,2e-5 2.01887,0.21649 2.83008,0.64941 0.81119,0.43296 1.48111,1.05731 2.00977,1.87305 0.52863,0.81577 0.94334,1.80926 1.24414,2.98047 0.30076,1.17123 0.45115,2.75033 0.45117,4.7373 -2e-5,2.35157 -0.24155,4.24968 -0.72461,5.69434 -0.48309,1.44466 -1.20542,2.5612 -2.16699,3.34961 -0.9616,0.78841 -2.17612,1.18261 -3.64356,1.18261 -1.9323,0 -3.44987,-0.6927 -4.55273,-2.07812 -1.32162,-1.66797 -1.98243,-4.38411 -1.98242,-8.14844 z m 2.52929,0 c 0,3.29037 0.38509,5.48015 1.15528,6.56934 0.77017,1.08919 1.72037,1.63379 2.85058,1.63379 1.1302,0 2.0804,-0.54688 2.85059,-1.64063 0.77017,-1.09374 1.15526,-3.28124 1.15527,-6.5625 -1e-5,-3.29946 -0.3851,-5.49152 -1.15527,-6.57617 -0.77019,-1.08462 -1.7295,-1.62694 -2.87793,-1.62695 -1.13022,1e-5 -2.03256,0.47853 -2.70703,1.43554 -0.84766,1.22137 -1.27149,3.47723 -1.27149,6.76758 z" />
      <path
         id="path3152"
         d="m 333.12354,373.71347 0,-5.49609 -5.45508,0 0,-2.29688 5.45508,0 0,-5.45508 2.32421,0 0,5.45508 5.45508,0 0,2.29688 -5.45508,0 0,5.49609 z" />
      <path
         id="path3154"
         d="m 292.66846,340.32675 2.46093,-0.32812 c 0.28255,1.39453 0.76335,2.39941 1.44239,3.01465 0.67903,0.61523 1.50618,0.92285 2.48144,0.92285 1.15755,0 2.13508,-0.40104 2.93262,-1.20313 0.79751,-0.80208 1.19628,-1.79557 1.19629,-2.98047 -10e-6,-1.1302 -0.36915,-2.06216 -1.10742,-2.7959 -0.73829,-0.73371 -1.6771,-1.10057 -2.81641,-1.10058 -0.46485,1e-5 -1.04363,0.0912 -1.73633,0.27344 l 0.27344,-2.16016 c 0.16406,0.0182 0.29622,0.0274 0.39648,0.0273 1.04817,2e-5 1.99153,-0.27342 2.83008,-0.82031 0.83853,-0.54686 1.2578,-1.38996 1.25782,-2.5293 -2e-5,-0.90232 -0.30535,-1.64972 -0.91602,-2.24218 -0.61069,-0.59243 -1.3991,-0.88866 -2.36523,-0.88868 -0.95704,2e-5 -1.75457,0.3008 -2.39258,0.90235 -0.63803,0.60158 -1.04818,1.50392 -1.23047,2.70703 l -2.46094,-0.4375 c 0.30078,-1.64972 0.98437,-2.92804 2.05078,-3.83496 1.0664,-0.90688 2.39257,-1.36033 3.97852,-1.36035 1.09374,2e-5 2.1009,0.23472 3.02148,0.7041 0.92056,0.46942 1.62466,1.10972 2.11231,1.9209 0.48761,0.81121 0.73143,1.67254 0.73144,2.58398 -10e-6,0.8659 -0.23243,1.65431 -0.69726,2.36524 -0.46486,0.71095 -1.15301,1.27605 -2.06446,1.69531 1.18489,0.27345 2.10546,0.84083 2.76172,1.70215 0.65624,0.86133 0.98436,1.93913 0.98438,3.2334 -2e-5,1.75 -0.63804,3.2334 -1.91407,4.45019 -1.27605,1.2168 -2.88933,1.8252 -4.83984,1.8252 -1.75912,0 -3.21973,-0.52409 -4.38184,-1.57227 -1.16211,-1.04817 -1.82519,-2.40625 -1.98925,-4.07422 z" />
      <path
         id="path3156"
         d="m 298.12354,373.71347 0,-5.49609 -5.45508,0 0,-2.29688 5.45508,0 0,-5.45508 2.32421,0 0,5.45508 5.45508,0 0,2.29688 -5.45508,0 0,5.49609 z" />
      <path
         id="path3158"
         d="m 270.58838,343.25253 0,2.36524 -13.24805,0 c -0.0182,-0.59245 0.0775,-1.16211 0.28711,-1.70899 0.33724,-0.90234 0.87728,-1.79101 1.62012,-2.66601 0.74283,-0.875 1.81607,-1.88672 3.21973,-3.03516 2.17837,-1.78645 3.65038,-3.20149 4.41601,-4.24512 0.76561,-1.0436 1.14843,-2.03026 1.14844,-2.95996 -1e-5,-0.97524 -0.34865,-1.79783 -1.0459,-2.46777 -0.69728,-0.6699 -1.60645,-1.00487 -2.72754,-1.00488 -1.1849,1e-5 -2.13282,0.35548 -2.84375,1.0664 -0.71094,0.71096 -1.07097,1.69533 -1.08008,2.95313 l -2.52929,-0.25977 c 0.17317,-1.8867 0.82486,-3.32452 1.95507,-4.31347 1.13021,-0.98892 2.64778,-1.48338 4.55274,-1.4834 1.92317,2e-5 3.4453,0.53322 4.5664,1.59961 1.12108,1.06642 1.68163,2.38803 1.68165,3.96484 -2e-5,0.8021 -0.16408,1.59051 -0.49219,2.36523 -0.32814,0.77476 -0.87274,1.59051 -1.63379,2.44727 -0.76108,0.85678 -2.02573,2.03256 -3.79395,3.52734 -1.47657,1.23959 -2.42448,2.08041 -2.84375,2.52247 -0.41927,0.44206 -0.76563,0.88639 -1.03906,1.333 z" />
      <path
         id="path3160"
         d="m 263.12354,373.71347 0,-5.49609 -5.45508,0 0,-2.29688 5.45508,0 0,-5.45508 2.32421,0 0,5.45508 5.45508,0 0,2.29688 -5.45508,0 0,5.49609 z" />
      <path
         id="path3162"
         d="m 231.92432,345.61777 -2.46094,0 0,-15.68164 c -0.59246,0.56512 -1.36947,1.13022 -2.33106,1.69531 -0.96159,0.56512 -1.82519,0.98894 -2.59082,1.27148 l 0,-2.3789 c 1.3763,-0.64712 2.57943,-1.43098 3.60938,-2.35157 1.02994,-0.92055 1.75911,-1.81378 2.1875,-2.67968 l 1.58594,0 z" />
      <path
         id="path3164"
         d="m 228.12354,373.71347 0,-5.49609 -5.45508,0 0,-2.29688 5.45508,0 0,-5.45508 2.32421,0 0,5.45508 5.45508,0 0,2.29688 -5.45508,0 0,5.49609 z" />
      <path
         id="path3166"
         d="m 187.65479,335.733 c -1e-5,-2.36978 0.24381,-4.277 0.73144,-5.72168 0.48763,-1.44464 1.21224,-2.5589 2.17383,-3.34277 0.96158,-0.78384 2.17154,-1.17576 3.62988,-1.17578 1.07551,2e-5 2.01887,0.21649 2.83008,0.64941 0.81119,0.43296 1.48111,1.05731 2.00977,1.87305 0.52863,0.81577 0.94334,1.80926 1.24414,2.98047 0.30076,1.17123 0.45115,2.75033 0.45117,4.7373 -2e-5,2.35157 -0.24155,4.24968 -0.72461,5.69434 -0.48309,1.44466 -1.20542,2.5612 -2.16699,3.34961 -0.9616,0.78841 -2.17612,1.18261 -3.64356,1.18261 -1.9323,0 -3.44987,-0.6927 -4.55273,-2.07812 -1.32162,-1.66797 -1.98243,-4.38411 -1.98242,-8.14844 z m 2.52929,0 c 0,3.29037 0.38509,5.48015 1.15528,6.56934 0.77017,1.08919 1.72037,1.63379 2.85058,1.63379 1.1302,0 2.0804,-0.54688 2.85059,-1.64063 0.77017,-1.09374 1.15526,-3.28124 1.15527,-6.5625 -1e-5,-3.29946 -0.3851,-5.49152 -1.15527,-6.57617 -0.77019,-1.08462 -1.7295,-1.62694 -2.87793,-1.62695 -1.13022,1e-5 -2.03256,0.47853 -2.70703,1.43554 -0.84766,1.22137 -1.27149,3.47723 -1.27149,6.76758 z" />
      <path
         id="path3168"
         d="m 187.49072,376.9537 5.30469,-7.54687 -4.9082,-6.97266 3.07617,0 2.22851,3.4043 c 0.41927,0.64715 0.75651,1.18946 1.01172,1.62695 0.40104,-0.60155 0.77018,-1.13475 1.10743,-1.59961 l 2.44726,-3.43164 2.93945,0 -5.01757,6.83594 5.40039,7.68359 -3.02149,0 -2.98047,-4.51171 -0.79297,-1.2168 -3.81445,5.72851 z" />
    </g>
    <g
       id="text3105"
       style="font-size:28px;font-style:normal;font-weight:normal;text-align:end;line-height:125%;letter-spacing:0px;word-spacing:0px;writing-mode:lr-tb;text-anchor:end;fill:#000000;fill-opacity:1;stroke:none;font-family:Sans">
      <path
         id="path3071"
         d="m 26.775665,335.62057 2.652344,0.66993 c -0.556008,2.17839 -1.556333,3.83952 -3.000977,4.9834 -1.444676,1.14388 -3.210624,1.71582 -5.297851,1.71582 -2.160165,0 -3.916999,-0.43978 -5.270508,-1.31934 -1.35352,-0.87956 -2.383467,-2.15332 -3.089844,-3.82129 -0.706382,-1.66796 -1.059571,-3.45898 -1.05957,-5.37305 -10e-7,-2.08722 0.398761,-3.90786 1.196289,-5.46191 0.797523,-1.55402 1.932287,-2.73436 3.404297,-3.54102 1.471998,-0.80662 3.092113,-1.20994 4.860352,-1.20996 2.005195,2e-5 3.691391,0.51044 5.058593,1.53125 1.367171,1.02085 2.319644,2.4564 2.857422,4.30664 l -2.611328,0.61524 c -0.464859,-1.45832 -1.139338,-2.52017 -2.023437,-3.18555 -0.884128,-0.66535 -1.996106,-0.99803 -3.335938,-0.99805 -1.540374,2e-5 -2.827807,0.36916 -3.862305,1.10743 -1.034511,0.73829 -1.761398,1.7295 -2.180664,2.97363 -0.419275,1.24415 -0.62891,2.52703 -0.628906,3.84863 -4e-6,1.70444 0.248368,3.19239 0.745117,4.46387 0.49674,1.27149 1.2692,2.22168 2.317383,2.85058 1.048169,0.62891 2.182933,0.94337 3.404297,0.94336 1.485665,10e-6 2.743476,-0.42838 3.773437,-1.28515 1.029933,-0.85677 1.727198,-2.12825 2.091797,-3.81446 z" />
      <path
         id="path3073"
         d="m 31.47879,335.38815 c -1e-6,-2.68879 0.747394,-4.68032 2.242188,-5.97461 1.248693,-1.0755 2.770827,-1.61326 4.566406,-1.61328 1.996084,2e-5 3.627593,0.65399 4.894531,1.96192 1.266913,1.30795 1.900376,3.11492 1.900391,5.42089 -1.5e-5,1.8685 -0.280288,3.33823 -0.84082,4.40918 -0.56056,1.07097 -1.376315,1.90268 -2.447266,2.49512 -1.070974,0.59245 -2.239918,0.88867 -3.506836,0.88867 -2.032558,0 -3.67546,-0.65169 -4.928711,-1.95507 -1.253257,-1.30339 -1.879884,-3.18099 -1.879883,-5.63282 z m 2.529297,0 c -3e-6,1.85938 0.405595,3.25163 1.216797,4.17676 0.811192,0.92513 1.832025,1.3877 3.0625,1.3877 1.221345,0 2.23762,-0.46485 3.048828,-1.39454 0.811186,-0.92968 1.216785,-2.34699 1.216797,-4.25195 -1.2e-5,-1.79556 -0.407889,-3.15591 -1.223633,-4.08105 -0.815765,-0.92512 -1.829761,-1.38769 -3.041992,-1.3877 -1.230475,10e-6 -2.251308,0.4603 -3.0625,1.38086 -0.811202,0.92058 -1.2168,2.31056 -1.216797,4.16992 z m 2.91211,-9.06445 1.818359,-3.82813 3.226562,0 -3.007812,3.82813 z" />
      <path
         id="path3075"
         d="m 57.400665,342.64792 0,-1.83203 c -0.920583,1.4401 -2.274097,2.16015 -4.060547,2.16015 -1.157558,0 -2.221684,-0.31901 -3.192382,-0.95703 -0.970707,-0.63802 -1.722659,-1.52897 -2.25586,-2.67285 -0.533204,-1.14387 -0.799805,-2.45865 -0.799804,-3.94434 -1e-6,-1.44921 0.241535,-2.76398 0.724609,-3.94433 0.483071,-1.18033 1.207679,-2.08495 2.173828,-2.71387 0.966141,-0.62889 2.046218,-0.94334 3.240234,-0.94336 0.874992,2e-5 1.654289,0.18459 2.337891,0.55371 0.683584,0.36916 1.239573,0.84995 1.667969,1.44239 l 0,-7.19141 2.447265,0 0,20.04297 z m -7.779297,-7.2461 c -3e-6,1.85939 0.391924,3.24936 1.175782,4.16993 0.783848,0.92057 1.708978,1.38086 2.77539,1.38086 1.075513,0 1.989249,-0.43978 2.741211,-1.31934 0.751942,-0.87955 1.127919,-2.22167 1.12793,-4.02637 -1.1e-5,-1.98697 -0.382824,-3.4453 -1.148438,-4.375 -0.765634,-0.92967 -1.708992,-1.39452 -2.830078,-1.39453 -1.093756,10e-6 -2.007492,0.44663 -2.741211,1.33985 -0.733727,0.89324 -1.100589,2.30144 -1.100586,4.2246 z" />
      <path
         id="path3077"
         d="m 63.580353,325.43503 0,-2.83008 2.460937,0 0,2.83008 z m 0,17.21289 0,-14.51953 2.460937,0 0,14.51953 z" />
      <path
         id="path3079"
         d="m 69.349884,343.85104 2.392578,0.35547 c 0.100257,0.73828 0.378251,1.27604 0.833985,1.61328 0.610671,0.45573 1.444655,0.68359 2.501953,0.6836 1.139314,-1e-5 2.018871,-0.22787 2.638672,-0.6836 0.619781,-0.45573 1.039051,-1.09375 1.257812,-1.91406 0.127593,-0.5013 0.186838,-1.55403 0.177734,-3.1582 -1.075531,1.26693 -2.415373,1.90039 -4.019531,1.90039 -1.996099,0 -3.541019,-0.72005 -4.634765,-2.16016 -1.093752,-1.4401 -1.640626,-3.16731 -1.640625,-5.18164 -10e-7,-1.38541 0.250649,-2.66373 0.751953,-3.83496 0.5013,-1.17121 1.228187,-2.07583 2.180664,-2.71387 0.952469,-0.638 2.071283,-0.95701 3.356445,-0.95703 1.713533,2e-5 3.126292,0.69272 4.238281,2.07813 l 0,-1.75 2.269532,0 0,12.55078 c -1.4e-5,2.26042 -0.230157,3.8623 -0.69043,4.80566 -0.460299,0.94336 -1.189465,1.68847 -2.1875,2.23535 -0.998057,0.54687 -2.226246,0.82031 -3.68457,0.82032 -1.731777,-1e-5 -3.130864,-0.38966 -4.197266,-1.16895 -1.066408,-0.7793 -1.581382,-1.9528 -1.544922,-3.52051 z m 2.037109,-8.72265 c -3e-6,1.90495 0.378252,3.29492 1.134766,4.16992 0.756505,0.875 1.704421,1.3125 2.84375,1.3125 1.1302,0 2.078116,-0.43522 2.84375,-1.30566 0.765614,-0.87044 1.148426,-2.23535 1.148438,-4.09473 -1.2e-5,-1.77734 -0.394217,-3.11718 -1.182618,-4.01953 -0.788421,-0.90233 -1.738615,-1.35351 -2.850586,-1.35352 -1.093756,10e-6 -2.023442,0.44435 -2.789062,1.33301 -0.765629,0.88868 -1.148441,2.20802 -1.148438,3.95801 z" />
      <path
         id="path3081"
         d="m 84.470978,335.38815 c -10e-7,-2.68879 0.747394,-4.68032 2.242187,-5.97461 1.248694,-1.0755 2.770828,-1.61326 4.566407,-1.61328 1.996084,2e-5 3.627592,0.65399 4.894531,1.96192 1.266913,1.30795 1.900376,3.11492 1.90039,5.42089 -1.4e-5,1.8685 -0.280287,3.33823 -0.84082,4.40918 -0.56056,1.07097 -1.376314,1.90268 -2.447266,2.49512 -1.070973,0.59245 -2.239917,0.88867 -3.506835,0.88867 -2.032558,0 -3.67546,-0.65169 -4.928711,-1.95507 -1.253257,-1.30339 -1.879884,-3.18099 -1.879883,-5.63282 z m 2.529297,0 c -4e-6,1.85938 0.405595,3.25163 1.216797,4.17676 0.811192,0.92513 1.832024,1.3877 3.0625,1.3877 1.221345,0 2.23762,-0.46485 3.048828,-1.39454 0.811186,-0.92968 1.216785,-2.34699 1.216797,-4.25195 -1.2e-5,-1.79556 -0.40789,-3.15591 -1.223633,-4.08105 -0.815765,-0.92512 -1.829762,-1.38769 -3.041992,-1.3877 -1.230476,10e-6 -2.251308,0.4603 -3.0625,1.38086 -0.811202,0.92058 -1.216801,2.31056 -1.216797,4.16992 z" />
      <path
         id="path3083"
         d="m 118.43192,334.78659 0,-2.35156 8.49023,-0.0137 0,7.4375 c -1.3034,1.03906 -2.6478,1.82064 -4.0332,2.34472 -1.38543,0.52409 -2.80731,0.78614 -4.26563,0.78614 -1.96876,0 -3.75749,-0.42155 -5.36621,-1.26465 -1.60873,-0.8431 -2.82325,-2.06217 -3.64355,-3.65723 -0.82032,-1.59505 -1.23047,-3.37694 -1.23047,-5.3457 0,-1.95051 0.40787,-3.77115 1.22363,-5.46192 0.81575,-1.69073 1.98925,-2.94627 3.52051,-3.7666 1.53124,-0.82029 3.29491,-1.23045 5.29101,-1.23047 1.44921,2e-5 2.75943,0.23472 3.93067,0.7041 1.1712,0.46942 2.0895,1.1234 2.75488,1.96192 0.66535,0.83856 1.1712,1.93231 1.51758,3.28125 l -2.39258,0.65625 c -0.3008,-1.02082 -0.6745,-1.8229 -1.12109,-2.40625 -0.44663,-0.58332 -1.08465,-1.05044 -1.91407,-1.40137 -0.82944,-0.35089 -1.75001,-0.52635 -2.76171,-0.52637 -1.21225,2e-5 -2.26043,0.18459 -3.14454,0.55372 -0.88412,0.36915 -1.59733,0.8545 -2.13964,1.45605 -0.54233,0.60158 -0.96388,1.26238 -1.26465,1.98242 -0.51042,1.2396 -0.76563,2.584 -0.76563,4.0332 0,1.78647 0.30761,3.28126 0.92285,4.48438 0.61523,1.20313 1.51074,2.09636 2.68653,2.67969 1.17577,0.58333 2.42447,0.875 3.74609,0.875 1.14843,0 2.26952,-0.22103 3.36328,-0.66309 1.09374,-0.44205 1.92316,-0.91373 2.48828,-1.41504 l 0,-3.73242 z" />
      <path
         id="path3085"
         d="m 130.47684,342.64792 0,-14.51953 2.21484,0 0,2.20117 c 0.5651,-1.02994 1.08691,-1.70897 1.56543,-2.03711 0.47851,-0.32811 1.00488,-0.49217 1.5791,-0.49219 0.82942,2e-5 1.67252,0.26434 2.5293,0.79297 l -0.84766,2.2832 c -0.60157,-0.35545 -1.20313,-0.53319 -1.80468,-0.5332 -0.53777,10e-6 -1.02084,0.1618 -1.44922,0.48535 -0.42839,0.32358 -0.73373,0.77247 -0.91602,1.34668 -0.27344,0.87501 -0.41016,1.83204 -0.41016,2.8711 l 0,7.60156 z" />
      <path
         id="path3087"
         d="m 149.33035,340.8569 c -0.91147,0.77474 -1.78874,1.32162 -2.63183,1.64063 -0.84311,0.31901 -1.74773,0.47851 -2.71387,0.47851 -1.59506,0 -2.82097,-0.38964 -3.67773,-1.16894 -0.85678,-0.7793 -1.28516,-1.77506 -1.28516,-2.98731 0,-0.71093 0.16178,-1.36034 0.48535,-1.94824 0.32357,-0.58788 0.74739,-1.05956 1.27148,-1.41504 0.52409,-0.35546 1.11426,-0.62434 1.77051,-0.80664 0.48307,-0.12759 1.21224,-0.25064 2.1875,-0.36914 1.98697,-0.23697 3.44986,-0.51952 4.38867,-0.84766 0.009,-0.33723 0.0137,-0.55142 0.0137,-0.64257 -1e-5,-1.0026 -0.23244,-1.70898 -0.69727,-2.11914 -0.62892,-0.55598 -1.56316,-0.83398 -2.80273,-0.83399 -1.15756,10e-6 -2.01205,0.20281 -2.56348,0.6084 -0.55144,0.40561 -0.95931,1.12338 -1.22363,2.15332 l -2.40625,-0.32812 c 0.21875,-1.02994 0.57877,-1.86165 1.08008,-2.49512 0.50129,-0.63345 1.2259,-1.12108 2.17382,-1.46289 0.94791,-0.34178 2.04622,-0.51268 3.29493,-0.5127 1.23957,2e-5 2.24673,0.14585 3.02148,0.4375 0.77473,0.29168 1.34439,0.65854 1.70898,1.10059 0.36457,0.44207 0.61978,1.00034 0.76563,1.6748 0.082,0.41929 0.12303,1.17579 0.12305,2.26953 l 0,3.28125 c -2e-5,2.28777 0.0524,3.73471 0.15722,4.34082 0.10481,0.60613 0.31216,1.18718 0.62207,1.74317 l -2.57031,0 c -0.25522,-0.51042 -0.41928,-1.10742 -0.49219,-1.79102 z m -0.20508,-5.49609 c -0.89323,0.36459 -2.23308,0.67449 -4.01953,0.92969 -1.01172,0.14584 -1.72722,0.3099 -2.14648,0.49218 -0.41928,0.1823 -0.74284,0.4489 -0.9707,0.79981 -0.22787,0.35092 -0.3418,0.74056 -0.3418,1.16894 0,0.65626 0.24837,1.20313 0.74512,1.64063 0.49674,0.4375 1.22362,0.65625 2.18066,0.65625 0.94791,0 1.79101,-0.20736 2.5293,-0.62207 0.73827,-0.41471 1.28059,-0.98209 1.62695,-1.70215 0.26431,-0.55598 0.39647,-1.3763 0.39648,-2.46094 z" />
      <path
         id="path3089"
         d="m 155.33231,348.23972 -0.27344,-2.31055 c 0.53776,0.14583 1.00716,0.21875 1.4082,0.21875 0.54687,0 0.98437,-0.0912 1.3125,-0.27344 0.32812,-0.18229 0.597,-0.4375 0.80664,-0.76562 0.15494,-0.2461 0.4056,-0.85678 0.75196,-1.83204 0.0456,-0.13671 0.11848,-0.33723 0.21875,-0.60156 l -5.50977,-14.54687 2.65234,0 3.02149,8.4082 c 0.39192,1.06641 0.74283,2.1875 1.05273,3.36328 0.28255,-1.1302 0.61979,-2.23307 1.01172,-3.30859 l 3.10352,-8.46289 2.46093,0 -5.52343,14.76562 c -0.59246,1.59505 -1.05275,2.69336 -1.38086,3.29492 -0.43751,0.8112 -0.93881,1.40592 -1.50391,1.78418 -0.56511,0.37825 -1.23959,0.56738 -2.02344,0.56739 -0.47396,-1e-5 -1.0026,-0.10027 -1.58593,-0.30078 z" />
      <path
         id="path3091"
         d="m 170.12527,330.93112 0,-2.80273 2.80274,0 0,2.80273 z m 0,11.7168 0,-2.80274 2.80274,0 0,2.80274 z" />
      <path
         id="path3093"
         d="m 91.881134,377.64792 0,-20.04297 7.560547,0 c 1.330719,2e-5 2.346989,0.0638 3.048829,0.19141 0.98436,0.16408 1.80923,0.47625 2.47461,0.93652 0.66535,0.4603 1.20083,1.10516 1.60644,1.93457 0.40559,0.82944 0.60838,1.7409 0.6084,2.73437 -2e-5,1.70444 -0.54233,3.14683 -1.62695,4.32715 -1.08465,1.18035 -3.04428,1.77052 -5.878907,1.77051 l -5.140625,0 0,8.14844 z m 2.652344,-10.51367 5.18164,0 c 1.713532,10e-6 2.930322,-0.319 3.650392,-0.95703 0.72004,-0.63801 1.08006,-1.5358 1.08008,-2.69336 -2e-5,-0.83853 -0.21193,-1.5563 -0.63575,-2.15332 -0.42384,-0.59699 -0.9821,-0.9912 -1.6748,-1.18262 -0.44663,-0.11847 -1.2715,-0.17772 -2.474609,-0.17774 l -5.126953,0 z" />
      <path
         id="path3095"
         d="m 119.74442,375.8569 c -0.91147,0.77474 -1.78875,1.32162 -2.63184,1.64063 -0.84311,0.31901 -1.74773,0.47851 -2.71387,0.47851 -1.59505,0 -2.82096,-0.38964 -3.67773,-1.16894 -0.85677,-0.7793 -1.28516,-1.77506 -1.28516,-2.98731 0,-0.71093 0.16178,-1.36034 0.48535,-1.94824 0.32357,-0.58788 0.7474,-1.05956 1.27149,-1.41504 0.52408,-0.35546 1.11425,-0.62434 1.77051,-0.80664 0.48306,-0.12759 1.21223,-0.25064 2.1875,-0.36914 1.98697,-0.23697 3.44985,-0.51952 4.38867,-0.84766 0.009,-0.33723 0.0137,-0.55142 0.0137,-0.64257 -10e-6,-1.0026 -0.23243,-1.70898 -0.69727,-2.11914 -0.62891,-0.55598 -1.56316,-0.83398 -2.80273,-0.83399 -1.15756,10e-6 -2.01205,0.20281 -2.56348,0.6084 -0.55143,0.40561 -0.95931,1.12338 -1.22363,2.15332 l -2.40625,-0.32812 c 0.21875,-1.02994 0.57877,-1.86165 1.08008,-2.49512 0.5013,-0.63345 1.22591,-1.12108 2.17383,-1.46289 0.94791,-0.34178 2.04621,-0.51268 3.29492,-0.5127 1.23957,2e-5 2.24673,0.14585 3.02148,0.4375 0.77473,0.29168 1.34439,0.65854 1.70899,1.10059 0.36457,0.44207 0.61977,1.00034 0.76562,1.6748 0.082,0.41929 0.12303,1.17579 0.12305,2.26953 l 0,3.28125 c -2e-5,2.28777 0.0524,3.73471 0.15722,4.34082 0.10481,0.60613 0.31217,1.18718 0.62208,1.74317 l -2.57032,0 c -0.25522,-0.51042 -0.41928,-1.10742 -0.49218,-1.79102 z m -0.20508,-5.49609 c -0.89324,0.36459 -2.23308,0.67449 -4.01953,0.92969 -1.01173,0.14584 -1.72722,0.3099 -2.14649,0.49218 -0.41927,0.1823 -0.74284,0.4489 -0.9707,0.79981 -0.22787,0.35092 -0.3418,0.74056 -0.3418,1.16894 0,0.65626 0.24837,1.20313 0.74512,1.64063 0.49674,0.4375 1.22363,0.65625 2.18066,0.65625 0.94791,0 1.79101,-0.20736 2.5293,-0.62207 0.73827,-0.41471 1.28059,-0.98209 1.62695,-1.70215 0.26431,-0.55598 0.39648,-1.3763 0.39649,-2.46094 z" />
      <path
         id="path3097"
         d="m 124.87137,373.31393 2.43359,-0.38281 c 0.13672,0.97527 0.51725,1.72266 1.1416,2.24219 0.62435,0.51953 1.49707,0.7793 2.61817,0.7793 1.1302,0 1.96874,-0.23015 2.51562,-0.69043 0.54687,-0.46029 0.8203,-1.00033 0.82032,-1.62012 -2e-5,-0.55599 -0.24155,-0.99349 -0.72461,-1.3125 -0.33725,-0.21875 -1.17579,-0.49674 -2.51563,-0.83399 -1.80469,-0.45572 -3.05567,-0.84992 -3.75293,-1.18261 -0.69727,-0.33268 -1.22591,-0.79296 -1.58594,-1.38086 -0.36002,-0.58788 -0.54004,-1.2373 -0.54004,-1.94824 0,-0.64713 0.14812,-1.24641 0.44434,-1.79786 0.29622,-0.55141 0.69954,-1.00942 1.20996,-1.37402 0.38281,-0.28254 0.90462,-0.52179 1.56543,-0.71777 0.6608,-0.19595 1.36946,-0.29393 2.12598,-0.29395 1.13931,2e-5 2.13964,0.16408 3.00097,0.49219 0.86132,0.32814 1.49706,0.77247 1.90723,1.33301 0.41015,0.56056 0.6927,1.31023 0.84766,2.24902 l -2.40625,0.32813 c -0.10939,-0.74739 -0.42612,-1.33072 -0.9502,-1.75 -0.5241,-0.41926 -1.26465,-0.6289 -2.22168,-0.62891 -1.13021,1e-5 -1.93685,0.18686 -2.41992,0.56055 -0.48308,0.37371 -0.72461,0.81121 -0.72461,1.3125 0,0.31902 0.10026,0.60613 0.30078,0.86132 0.20052,0.26434 0.51497,0.48309 0.94336,0.65625 0.24609,0.0912 0.9707,0.3008 2.17383,0.62891 1.74088,0.46485 2.95539,0.84539 3.64355,1.1416 0.68814,0.29623 1.22818,0.7269 1.62012,1.29199 0.39192,0.56511 0.58788,1.26694 0.58789,2.10547 -1e-5,0.82032 -0.23927,1.59278 -0.71777,2.31739 -0.47853,0.72461 -1.16896,1.28515 -2.07129,1.68164 -0.90235,0.39648 -1.92319,0.59472 -3.0625,0.59472 -1.88672,0 -3.32455,-0.39192 -4.31348,-1.17578 -0.98893,-0.78385 -1.62012,-1.94596 -1.89355,-3.48633 z" />
      <path
         id="path3099"
         d="m 138.87137,373.31393 2.43359,-0.38281 c 0.13672,0.97527 0.51725,1.72266 1.1416,2.24219 0.62435,0.51953 1.49707,0.7793 2.61817,0.7793 1.1302,0 1.96874,-0.23015 2.51562,-0.69043 0.54687,-0.46029 0.8203,-1.00033 0.82032,-1.62012 -2e-5,-0.55599 -0.24155,-0.99349 -0.72461,-1.3125 -0.33725,-0.21875 -1.17579,-0.49674 -2.51563,-0.83399 -1.80469,-0.45572 -3.05567,-0.84992 -3.75293,-1.18261 -0.69727,-0.33268 -1.22591,-0.79296 -1.58594,-1.38086 -0.36002,-0.58788 -0.54004,-1.2373 -0.54004,-1.94824 0,-0.64713 0.14812,-1.24641 0.44434,-1.79786 0.29622,-0.55141 0.69954,-1.00942 1.20996,-1.37402 0.38281,-0.28254 0.90462,-0.52179 1.56543,-0.71777 0.6608,-0.19595 1.36946,-0.29393 2.12598,-0.29395 1.13931,2e-5 2.13964,0.16408 3.00097,0.49219 0.86132,0.32814 1.49706,0.77247 1.90723,1.33301 0.41015,0.56056 0.6927,1.31023 0.84766,2.24902 l -2.40625,0.32813 c -0.10939,-0.74739 -0.42612,-1.33072 -0.9502,-1.75 -0.5241,-0.41926 -1.26465,-0.6289 -2.22168,-0.62891 -1.13021,1e-5 -1.93685,0.18686 -2.41992,0.56055 -0.48308,0.37371 -0.72461,0.81121 -0.72461,1.3125 0,0.31902 0.10026,0.60613 0.30078,0.86132 0.20052,0.26434 0.51497,0.48309 0.94336,0.65625 0.24609,0.0912 0.9707,0.3008 2.17383,0.62891 1.74088,0.46485 2.95539,0.84539 3.64355,1.1416 0.68814,0.29623 1.22818,0.7269 1.62012,1.29199 0.39192,0.56511 0.58788,1.26694 0.58789,2.10547 -1e-5,0.82032 -0.23927,1.59278 -0.71777,2.31739 -0.47853,0.72461 -1.16896,1.28515 -2.07129,1.68164 -0.90235,0.39648 -1.92319,0.59472 -3.0625,0.59472 -1.88672,0 -3.32455,-0.39192 -4.31348,-1.17578 -0.98893,-0.78385 -1.62012,-1.94596 -1.89355,-3.48633 z" />
      <path
         id="path3101"
         d="m 152.93973,370.38815 c 0,-2.68879 0.74739,-4.68032 2.24219,-5.97461 1.24869,-1.0755 2.77082,-1.61326 4.5664,-1.61328 1.99609,2e-5 3.62759,0.65399 4.89453,1.96192 1.26692,1.30795 1.90038,3.11492 1.90039,5.42089 -1e-5,1.8685 -0.28028,3.33823 -0.84082,4.40918 -0.56056,1.07097 -1.37631,1.90268 -2.44726,2.49512 -1.07098,0.59245 -2.23992,0.88867 -3.50684,0.88867 -2.03256,0 -3.67546,-0.65169 -4.92871,-1.95507 -1.25326,-1.30339 -1.87988,-3.18099 -1.87988,-5.63282 z m 2.52929,0 c 0,1.85938 0.4056,3.25163 1.2168,4.17676 0.81119,0.92513 1.83203,1.3877 3.0625,1.3877 1.22135,0 2.23762,-0.46485 3.04883,-1.39454 0.81119,-0.92968 1.21678,-2.34699 1.2168,-4.25195 -2e-5,-1.79556 -0.40789,-3.15591 -1.22364,-4.08105 -0.81576,-0.92512 -1.82976,-1.38769 -3.04199,-1.3877 -1.23047,10e-6 -2.25131,0.4603 -3.0625,1.38086 -0.8112,0.92058 -1.2168,2.31056 -1.2168,4.16992 z" />
      <path
         id="path3103"
         d="m 170.12527,365.93112 0,-2.80273 2.80274,0 0,2.80273 z m 0,11.7168 0,-2.80274 2.80274,0 0,2.80274 z" />
    </g>
    <path
       id="path3111"
       d="M 9.2857129,311.6479 730,311.6479"
       style="fill:none;stroke:#000000;stroke-width:1px;stroke-linecap:butt;stroke-linejoin:miter;stroke-opacity:1" />
  </g>
</svg>
