<?xml version="1.0" encoding="utf-8" standalone="no"?><!DOCTYPE svg PUBLIC "-//W3C//DTD SVG 1.1//EN" "http://www.w3.org/Graphics/SVG/1.1/DTD/svg11.dtd">
<svg preserveAspectRatio="xMinYMin meet" width="100%" height="100%" viewBox="0 0 672.000 504.000"  version="1.1" xmlns="http://www.w3.org/2000/svg" xmlns:xlink="http://www.w3.org/1999/xlink">
  <desc>Matlab Figure Converted by PLOT2SVG written by Juerg Schwizer</desc>
  <g id="topgroup">
  <rect x="0" y="0" width="672.000" height="504.000" fill="#ffffff" stroke="none" />
  <g id ="ID000000">
  <clipPath id="ID000001">
    <rect x="99.360" y="57.800" width="508.800" height="390.760"/>
  </clipPath>
      <polygon fill="#ffffff" fill-opacity="1.00" stroke="none" stroke-width="0.5pt" stroke-opacity="1.00" stroke-dasharray="none" points="99.360,448.560 608.160,448.560 608.160,57.800 99.360,57.800 "/>
      <polygon fill="#ffffff" fill-opacity="1.00" stroke="none" stroke-width="0.5pt" stroke-opacity="1.00" stroke-dasharray="none" points="99.360,448.560 608.160,448.560 608.160,448.560 99.360,448.560 "/>
      <polygon fill="#ffffff" fill-opacity="1.00" stroke="none" stroke-width="0.5pt" stroke-opacity="1.00" stroke-dasharray="none" points="99.360,448.560 99.360,448.560 99.360,57.800 99.360,57.800 "/>
    <g>
<g id="ID000002" >
</g>
<g id="ID000003" >
</g>
<g id="ID000004" >
</g>
<g id="ID000005" clip-path="url(#ID000001)" >
<g id="ID000006" clip-path="url(#ID000001)" >
      <polyline fill="none" stroke="#0000ff" stroke-width="0.5pt" stroke-dasharray="none" points="99.360,448.560 102.032,434.295 104.703,420.760 107.375,407.916 110.047,395.729 112.718,384.164 115.390,373.191 118.062,362.778 120.733,352.898 123.405,343.522 126.077,334.626 128.748,326.184 131.420,318.174 134.091,310.573 136.763,303.360 139.435,296.516 142.106,290.022 144.778,283.860 147.450,278.013 150.121,272.464 152.793,267.199 155.465,262.203 158.136,257.463 160.808,252.965 163.480,248.696 166.151,244.646 168.823,240.803 171.495,237.156 174.166,233.696 176.838,230.412 179.510,227.296 182.181,224.340 184.853,221.534 187.525,218.872 190.196,216.346 192.868,213.949 195.540,211.675 198.211,209.517 200.883,207.469 203.554,205.526 206.226,203.682 208.898,201.932 211.569,200.272 214.241,198.696 216.913,197.201 219.584,195.783 222.256,194.437 224.928,193.160 227.599,191.948 230.271,190.798 232.943,189.707 235.614,188.671 238.286,187.689 240.958,186.756 243.629,185.872 246.301,185.032 248.973,184.236 251.644,183.480 254.316,182.762 256.988,182.082 259.659,181.436 262.331,180.823 265.003,180.242 267.674,179.690 270.346,179.167 273.017,178.670 275.689,178.198 278.361,177.751 281.032,177.327 283.704,176.924 286.376,176.542 289.047,176.179 291.719,175.835 294.391,175.508 297.062,175.199 299.734,174.905 302.406,174.626 305.077,174.361 307.749,174.110 310.421,173.871 313.092,173.645 315.764,173.430 318.436,173.227 321.107,173.034 323.779,172.850 326.451,172.676 329.122,172.511 331.794,172.354 334.466,172.206 337.137,172.065 339.809,171.931 342.480,171.804 345.152,171.683 347.824,171.569 350.495,171.461 353.167,171.358 355.839,171.260 358.510,171.167 361.182,171.079 363.854,170.996 366.525,170.916 369.197,170.841 371.869,170.770 374.540,170.702 377.212,170.638 379.884,170.577 382.555,170.519 385.227,170.464 387.899,170.412 390.570,170.363 393.242,170.316 395.914,170.272 398.585,170.229 401.257,170.189 403.929,170.151 406.600,170.115 409.272,170.081 411.943,170.049 414.615,170.018 417.287,169.989 419.958,169.961 422.630,169.934 425.302,169.910 427.973,169.886 430.645,169.863 433.317,169.842 435.988,169.822 438.660,169.803 441.332,169.784 444.003,169.767 446.675,169.751 449.347,169.735 452.018,169.720 454.690,169.706 457.362,169.693 460.033,169.680 462.705,169.668 465.377,169.657 468.048,169.646 470.720,169.636 473.392,169.626 476.063,169.617 478.735,169.608 481.406,169.600 484.078,169.592 486.750,169.584 489.421,169.577 492.093,169.571 494.765,169.564 497.436,169.558 4007480631191.169,169.446 "/>
<g>
</g>
</g>
</g><g id="ID000007" clip-path="url(#ID000001)" >
      <polyline fill="none" stroke="#000000" stroke-width="0.5pt" stroke-dasharray="2.0pt,2.0pt" points="-635999999999999910000000000000000000000000000000000000000000000000000000000000000000000000000000000000.000,169.446 -636000000000000090000000000000000000000000000000000000000000000000000000000000000000000000000000000.000,169.446 -635999999999999970000000000000000000000000000000000000000000000000000000000000000000000000000000.000,169.446 -635999999999999910000000000000000000000000000000000000000000000000000000000000000000000000000.000,169.446 -635999999999999960000000000000000000000000000000000000000000000000000000000000000000000000.000,169.446 -635999999999999990000000000000000000000000000000000000000000000000000000000000000000000.000,169.446 -635999999999999890000000000000000000000000000000000000000000000000000000000000000000.000,169.446 -636000000000000000000000000000000000000000000000000000000000000000000000000000000.000,169.446 -635999999999999840000000000000000000000000000000000000000000000000000000000000.000,169.446 -635999999999999820000000000000000000000000000000000000000000000000000000000.000,169.446 -635999999999999930000000000000000000000000000000000000000000000000000000.000,169.446 -635999999999999850000000000000000000000000000000000000000000000000000.000,169.446 -635999999999999930000000000000000000000000000000000000000000000000.000,169.446 -635999999999999920000000000000000000000000000000000000000000000.000,169.446 -635999999999999980000000000000000000000000000000000000000000.000,169.446 -636000000000000060000000000000000000000000000000000000000.000,169.446 -636000000000000040000000000000000000000000000000000000.000,169.446 -635999999999999870000000000000000000000000000000000.000,169.446 -635999999999999850000000000000000000000000000000.000,169.446 -635999999999999910000000000000000000000000000.000,169.446 -636000000000000040000000000000000000000000.000,169.446 -635999999999999950000000000000000000000.000,169.446 -635999999999999980000000000000000000.000,169.446 -635999999999999960000000000000000.000,169.446 -635999999999999970000000000000.000,169.446 -635999999999999880000000000.000,169.446 -636000000000000040000000.000,169.446 -636000000000000000000.000,169.446 -635999999999999870.000,169.446 -635999999999900.620,169.446 -635999999900.640,169.446 -635999900.640,169.446 -635900.640,169.446 -536.640,169.446 99.360,169.446 735.360,169.446 636099.360,169.446 636000099.360,169.446 636000000099.360,169.446 636000000000099.370,169.446 636000000000000000.000,169.446 636000000000000000000.000,169.446 636000000000000040000000.000,169.446 635999999999999880000000000.000,169.446 635999999999999970000000000000.000,169.446 635999999999999960000000000000000.000,169.446 635999999999999980000000000000000000.000,169.446 635999999999999950000000000000000000000.000,169.446 636000000000000040000000000000000000000000.000,169.446 635999999999999910000000000000000000000000000.000,169.446 635999999999999850000000000000000000000000000000.000,169.446 635999999999999870000000000000000000000000000000000.000,169.446 636000000000000040000000000000000000000000000000000000.000,169.446 636000000000000060000000000000000000000000000000000000000.000,169.446 635999999999999980000000000000000000000000000000000000000000.000,169.446 635999999999999920000000000000000000000000000000000000000000000.000,169.446 635999999999999930000000000000000000000000000000000000000000000000.000,169.446 635999999999999850000000000000000000000000000000000000000000000000000.000,169.446 635999999999999930000000000000000000000000000000000000000000000000000000.000,169.446 635999999999999820000000000000000000000000000000000000000000000000000000000.000,169.446 635999999999999840000000000000000000000000000000000000000000000000000000000000.000,169.446 636000000000000000000000000000000000000000000000000000000000000000000000000000000.000,169.446 635999999999999890000000000000000000000000000000000000000000000000000000000000000000.000,169.446 635999999999999990000000000000000000000000000000000000000000000000000000000000000000000.000,169.446 635999999999999960000000000000000000000000000000000000000000000000000000000000000000000000.000,169.446 635999999999999910000000000000000000000000000000000000000000000000000000000000000000000000000.000,169.446 635999999999999970000000000000000000000000000000000000000000000000000000000000000000000000000000.000,169.446 636000000000000090000000000000000000000000000000000000000000000000000000000000000000000000000000000.000,169.446 635999999999999910000000000000000000000000000000000000000000000000000000000000000000000000000000000000.000,169.446 "/>
<g>
</g>
</g>
<g id="ID000008" clip-path="url(#ID000001)" >
<g id="ID000009" clip-path="url(#ID000001)" >
      <polyline fill="none" stroke="#00a500" stroke-width="0.5pt" stroke-dasharray="none" points="99.360,448.560 102.987,438.546 106.614,427.452 110.241,415.471 113.868,402.784 117.495,389.559 121.122,375.952 124.749,362.105 128.376,348.151 132.003,334.206 135.630,320.378 139.257,306.762 142.884,293.442 146.511,280.492 150.138,267.974 153.765,255.942 157.392,244.441 161.019,233.506 164.647,223.165 168.274,213.440 171.901,204.344 175.528,195.884 179.155,188.063 182.782,180.877 186.409,174.319 190.036,168.376 193.663,163.033 197.290,158.272 200.917,154.072 204.544,150.408 208.171,147.256 211.798,144.590 215.425,142.381 219.052,140.601 222.679,139.221 226.306,138.212 229.933,137.545 233.560,137.190 237.187,137.120 240.814,137.306 244.441,137.722 248.068,138.341 251.695,139.139 255.322,140.091 258.949,141.175 262.576,142.370 266.203,143.654 269.830,145.010 273.457,146.419 277.084,147.866 280.711,149.335 284.338,150.813 287.965,152.288 291.592,153.749 295.220,155.185 298.847,156.588 302.474,157.951 306.101,159.266 309.728,160.530 313.355,161.736 316.982,162.882 320.609,163.964 324.236,164.981 327.863,165.931 331.490,166.813 335.117,167.628 338.744,168.376 342.371,169.057 345.998,169.674 349.625,170.228 353.252,170.720 356.879,171.153 360.506,171.530 364.133,171.854 367.760,172.127 371.387,172.351 375.014,172.531 378.641,172.670 382.268,172.769 385.895,172.833 389.522,172.865 393.149,172.866 396.776,172.842 400.403,172.793 404.030,172.724 407.657,172.636 411.284,172.532 414.911,172.415 418.538,172.287 422.166,172.149 425.793,172.004 429.420,171.854 433.047,171.700 436.674,171.544 440.301,171.388 443.928,171.232 447.555,171.078 451.182,170.926 454.809,170.779 458.436,170.635 462.063,170.497 465.690,170.364 469.317,170.238 472.944,170.118 476.571,170.005 480.198,169.898 483.825,169.799 487.452,169.707 491.079,169.622 494.706,169.544 498.333,169.474 501.960,169.410 505.587,169.352 509.214,169.301 512.841,169.257 516.468,169.218 520.095,169.185 523.722,169.157 527.349,169.134 530.976,169.116 534.603,169.102 538.230,169.092 541.857,169.086 545.484,169.083 549.112,169.084 552.739,169.087 556.366,169.093 559.993,169.100 563.620,169.110 567.247,169.121 570.874,169.134 574.501,169.148 578.128,169.162 581.755,169.178 585.382,169.194 589.009,169.210 592.636,169.227 596.263,169.243 599.890,169.260 603.517,169.276 607.144,169.292 610.771,169.308 614.398,169.323 618.025,169.337 621.652,169.351 625.279,169.364 628.906,169.377 632.533,169.389 636.160,169.400 639.787,169.410 643.414,169.420 647.041,169.429 650.668,169.437 654.295,169.444 657.922,169.451 661.549,169.457 665.176,169.462 668.803,169.467 672.430,169.471 676.057,169.474 5803245281274.655,169.446 "/>
<g>
</g>
</g>
</g><g id="ID000010" clip-path="url(#ID000001)" >
      <polyline fill="none" stroke="#000000" stroke-width="0.5pt" stroke-dasharray="2.0pt,2.0pt" points="-635999999999999910000000000000000000000000000000000000000000000000000000000000000000000000000000000000.000,169.446 -636000000000000090000000000000000000000000000000000000000000000000000000000000000000000000000000000.000,169.446 -635999999999999970000000000000000000000000000000000000000000000000000000000000000000000000000000.000,169.446 -635999999999999910000000000000000000000000000000000000000000000000000000000000000000000000000.000,169.446 -635999999999999960000000000000000000000000000000000000000000000000000000000000000000000000.000,169.446 -635999999999999990000000000000000000000000000000000000000000000000000000000000000000000.000,169.446 -635999999999999890000000000000000000000000000000000000000000000000000000000000000000.000,169.446 -636000000000000000000000000000000000000000000000000000000000000000000000000000000.000,169.446 -635999999999999840000000000000000000000000000000000000000000000000000000000000.000,169.446 -635999999999999820000000000000000000000000000000000000000000000000000000000.000,169.446 -635999999999999930000000000000000000000000000000000000000000000000000000.000,169.446 -635999999999999850000000000000000000000000000000000000000000000000000.000,169.446 -635999999999999930000000000000000000000000000000000000000000000000.000,169.446 -635999999999999920000000000000000000000000000000000000000000000.000,169.446 -635999999999999980000000000000000000000000000000000000000000.000,169.446 -636000000000000060000000000000000000000000000000000000000.000,169.446 -636000000000000040000000000000000000000000000000000000.000,169.446 -635999999999999870000000000000000000000000000000000.000,169.446 -635999999999999850000000000000000000000000000000.000,169.446 -635999999999999910000000000000000000000000000.000,169.446 -636000000000000040000000000000000000000000.000,169.446 -635999999999999950000000000000000000000.000,169.446 -635999999999999980000000000000000000.000,169.446 -635999999999999960000000000000000.000,169.446 -635999999999999970000000000000.000,169.446 -635999999999999880000000000.000,169.446 -636000000000000040000000.000,169.446 -636000000000000000000.000,169.446 -635999999999999870.000,169.446 -635999999999900.620,169.446 -635999999900.640,169.446 -635999900.640,169.446 -635900.640,169.446 -536.640,169.446 99.360,169.446 735.360,169.446 636099.360,169.446 636000099.360,169.446 636000000099.360,169.446 636000000000099.370,169.446 636000000000000000.000,169.446 636000000000000000000.000,169.446 636000000000000040000000.000,169.446 635999999999999880000000000.000,169.446 635999999999999970000000000000.000,169.446 635999999999999960000000000000000.000,169.446 635999999999999980000000000000000000.000,169.446 635999999999999950000000000000000000000.000,169.446 636000000000000040000000000000000000000000.000,169.446 635999999999999910000000000000000000000000000.000,169.446 635999999999999850000000000000000000000000000000.000,169.446 635999999999999870000000000000000000000000000000000.000,169.446 636000000000000040000000000000000000000000000000000000.000,169.446 636000000000000060000000000000000000000000000000000000000.000,169.446 635999999999999980000000000000000000000000000000000000000000.000,169.446 635999999999999920000000000000000000000000000000000000000000000.000,169.446 635999999999999930000000000000000000000000000000000000000000000000.000,169.446 635999999999999850000000000000000000000000000000000000000000000000000.000,169.446 635999999999999930000000000000000000000000000000000000000000000000000000.000,169.446 635999999999999820000000000000000000000000000000000000000000000000000000000.000,169.446 635999999999999840000000000000000000000000000000000000000000000000000000000000.000,169.446 636000000000000000000000000000000000000000000000000000000000000000000000000000000.000,169.446 635999999999999890000000000000000000000000000000000000000000000000000000000000000000.000,169.446 635999999999999990000000000000000000000000000000000000000000000000000000000000000000000.000,169.446 635999999999999960000000000000000000000000000000000000000000000000000000000000000000000000.000,169.446 635999999999999910000000000000000000000000000000000000000000000000000000000000000000000000000.000,169.446 635999999999999970000000000000000000000000000000000000000000000000000000000000000000000000000000.000,169.446 636000000000000090000000000000000000000000000000000000000000000000000000000000000000000000000000000.000,169.446 635999999999999910000000000000000000000000000000000000000000000000000000000000000000000000000000000000.000,169.446 "/>
<g>
</g>
</g>
<g id="ID000011" clip-path="url(#ID000001)" >
<g id="ID000012" clip-path="url(#ID000001)" >
      <polyline fill="none" stroke="#ff0000" stroke-width="0.5pt" stroke-dasharray="none" points="99.360,448.560 104.453,448.560 104.453,435.991 109.546,435.991 109.546,420.923 114.639,420.923 114.639,403.897 119.732,403.897 119.732,385.418 124.824,385.418 124.824,365.949 129.917,365.949 129.917,345.912 135.010,345.912 135.010,325.684 140.103,325.684 140.103,305.596 145.196,305.596 145.196,285.940 150.289,285.940 150.289,266.959 155.382,266.959 155.382,248.861 160.475,248.861 160.475,231.812 165.567,231.812 165.567,215.939 170.660,215.939 170.660,201.340 175.753,201.340 175.753,188.077 180.846,188.077 180.846,176.187 185.939,176.187 185.939,165.679 191.032,165.679 191.032,156.542 196.125,156.542 196.125,148.742 201.218,148.742 201.218,142.234 206.311,142.234 206.311,136.954 211.403,136.954 211.403,132.829 216.496,132.829 216.496,129.779 221.589,129.779 221.589,127.716 226.682,127.716 226.682,126.548 231.775,126.548 231.775,126.180 236.868,126.180 236.868,126.520 241.961,126.520 241.961,127.472 247.054,127.472 247.054,128.946 252.146,128.946 252.146,130.855 257.239,130.855 257.239,133.114 262.332,133.114 262.332,135.646 267.425,135.646 267.425,138.378 272.518,138.378 272.518,141.242 277.611,141.242 277.611,144.180 282.704,144.180 282.704,147.137 287.797,147.137 287.797,150.064 292.890,150.064 292.890,152.922 297.982,152.922 297.982,155.676 303.075,155.676 303.075,158.295 308.168,158.295 308.168,160.758 313.261,160.758 313.261,163.045 318.354,163.045 318.354,165.145 323.447,165.145 323.447,167.048 328.540,167.048 328.540,168.750 333.633,168.750 333.633,170.250 338.725,170.250 338.725,171.550 343.818,171.550 343.818,172.656 348.911,172.656 348.911,173.574 354.004,173.574 354.004,174.315 359.097,174.315 359.097,174.889 364.190,174.889 364.190,175.308 369.283,175.308 369.283,175.585 374.376,175.585 374.376,175.734 379.468,175.734 379.468,175.768 384.561,175.768 384.561,175.701 389.654,175.701 389.654,175.548 394.747,175.548 394.747,175.320 399.840,175.320 399.840,175.031 404.933,175.031 404.933,174.693 410.026,174.693 410.026,174.317 415.119,174.317 415.119,173.913 420.212,173.913 420.212,173.492 425.304,173.492 425.304,173.061 430.397,173.061 430.397,172.630 435.490,172.630 435.490,172.203 440.583,172.203 440.583,171.788 445.676,171.788 445.676,171.388 450.769,171.388 450.769,171.009 455.862,171.009 455.862,170.654 460.955,170.654 460.955,170.324 466.047,170.324 466.047,170.022 471.140,170.022 471.140,169.750 476.233,169.750 476.233,169.506 481.326,169.506 481.326,169.292 486.419,169.292 486.419,169.107 491.512,169.107 491.512,168.951 496.605,168.951 496.605,168.821 501.698,168.821 501.698,168.717 506.791,168.717 506.791,168.638 511.883,168.638 511.883,168.580 516.976,168.580 516.976,168.543 522.069,168.543 522.069,168.525 527.162,168.525 527.162,168.522 532.255,168.522 532.255,168.534 537.348,168.534 537.348,168.559 542.441,168.559 542.441,168.594 547.534,168.594 547.534,168.638 552.626,168.638 552.626,168.688 557.719,168.688 557.719,168.744 562.812,168.744 562.812,168.804 567.905,168.804 567.905,168.865 572.998,168.865 572.998,168.929 578.091,168.929 578.091,168.992 583.184,168.992 583.184,169.054 588.277,169.054 588.277,169.114 593.370,169.114 593.370,169.172 598.462,169.172 598.462,169.227 603.555,169.227 603.555,169.278 608.648,169.278 608.648,169.325 613.741,169.325 613.741,169.369 618.834,169.369 618.834,169.408 623.927,169.408 623.927,169.443 629.020,169.443 629.020,169.473 634.113,169.473 634.113,169.500 639.205,169.500 639.205,169.522 644.298,169.522 644.298,169.540 649.391,169.540 649.391,169.555 654.484,169.555 654.484,169.566 659.577,169.566 659.577,169.573 664.670,169.573 664.670,169.578 669.763,169.578 669.763,169.581 674.856,169.581 674.856,169.581 679.949,169.581 679.949,169.578 685.041,169.578 685.041,169.575 690.134,169.575 690.134,169.569 695.227,169.569 695.227,169.563 700.320,169.563 700.320,169.555 705.413,169.555 705.413,169.547 6111457894951.428,169.547 6111457894951.428,169.446 "/>
<g>
</g>
</g>
</g><g id="ID000013" clip-path="url(#ID000001)" >
      <polyline fill="none" stroke="#000000" stroke-width="0.5pt" stroke-dasharray="2.0pt,2.0pt" points="-635999999999999910000000000000000000000000000000000000000000000000000000000000000000000000000000000000.000,169.446 -636000000000000090000000000000000000000000000000000000000000000000000000000000000000000000000000000.000,169.446 -635999999999999970000000000000000000000000000000000000000000000000000000000000000000000000000000.000,169.446 -635999999999999910000000000000000000000000000000000000000000000000000000000000000000000000000.000,169.446 -635999999999999960000000000000000000000000000000000000000000000000000000000000000000000000.000,169.446 -635999999999999990000000000000000000000000000000000000000000000000000000000000000000000.000,169.446 -635999999999999890000000000000000000000000000000000000000000000000000000000000000000.000,169.446 -636000000000000000000000000000000000000000000000000000000000000000000000000000000.000,169.446 -635999999999999840000000000000000000000000000000000000000000000000000000000000.000,169.446 -635999999999999820000000000000000000000000000000000000000000000000000000000.000,169.446 -635999999999999930000000000000000000000000000000000000000000000000000000.000,169.446 -635999999999999850000000000000000000000000000000000000000000000000000.000,169.446 -635999999999999930000000000000000000000000000000000000000000000000.000,169.446 -635999999999999920000000000000000000000000000000000000000000000.000,169.446 -635999999999999980000000000000000000000000000000000000000000.000,169.446 -636000000000000060000000000000000000000000000000000000000.000,169.446 -636000000000000040000000000000000000000000000000000000.000,169.446 -635999999999999870000000000000000000000000000000000.000,169.446 -635999999999999850000000000000000000000000000000.000,169.446 -635999999999999910000000000000000000000000000.000,169.446 -636000000000000040000000000000000000000000.000,169.446 -635999999999999950000000000000000000000.000,169.446 -635999999999999980000000000000000000.000,169.446 -635999999999999960000000000000000.000,169.446 -635999999999999970000000000000.000,169.446 -635999999999999880000000000.000,169.446 -636000000000000040000000.000,169.446 -636000000000000000000.000,169.446 -635999999999999870.000,169.446 -635999999999900.620,169.446 -635999999900.640,169.446 -635999900.640,169.446 -635900.640,169.446 -536.640,169.446 99.360,169.446 735.360,169.446 636099.360,169.446 636000099.360,169.446 636000000099.360,169.446 636000000000099.370,169.446 636000000000000000.000,169.446 636000000000000000000.000,169.446 636000000000000040000000.000,169.446 635999999999999880000000000.000,169.446 635999999999999970000000000000.000,169.446 635999999999999960000000000000000.000,169.446 635999999999999980000000000000000000.000,169.446 635999999999999950000000000000000000000.000,169.446 636000000000000040000000000000000000000000.000,169.446 635999999999999910000000000000000000000000000.000,169.446 635999999999999850000000000000000000000000000000.000,169.446 635999999999999870000000000000000000000000000000000.000,169.446 636000000000000040000000000000000000000000000000000000.000,169.446 636000000000000060000000000000000000000000000000000000000.000,169.446 635999999999999980000000000000000000000000000000000000000000.000,169.446 635999999999999920000000000000000000000000000000000000000000000.000,169.446 635999999999999930000000000000000000000000000000000000000000000000.000,169.446 635999999999999850000000000000000000000000000000000000000000000000000.000,169.446 635999999999999930000000000000000000000000000000000000000000000000000000.000,169.446 635999999999999820000000000000000000000000000000000000000000000000000000000.000,169.446 635999999999999840000000000000000000000000000000000000000000000000000000000000.000,169.446 636000000000000000000000000000000000000000000000000000000000000000000000000000000.000,169.446 635999999999999890000000000000000000000000000000000000000000000000000000000000000000.000,169.446 635999999999999990000000000000000000000000000000000000000000000000000000000000000000000.000,169.446 635999999999999960000000000000000000000000000000000000000000000000000000000000000000000000.000,169.446 635999999999999910000000000000000000000000000000000000000000000000000000000000000000000000000.000,169.446 635999999999999970000000000000000000000000000000000000000000000000000000000000000000000000000000.000,169.446 636000000000000090000000000000000000000000000000000000000000000000000000000000000000000000000000000.000,169.446 635999999999999910000000000000000000000000000000000000000000000000000000000000000000000000000000000000.000,169.446 "/>
<g>
</g>
</g>
<g id="ID000014" clip-path="url(#ID000001)" >
<g id="ID000015" clip-path="url(#ID000001)" >
      <polyline fill="none" stroke="#00bfbf" stroke-width="0.5pt" stroke-dasharray="none" points="99.360,441.434 104.453,441.434 104.453,426.192 109.546,426.192 109.546,409.226 114.639,409.226 114.639,391.021 119.732,391.021 119.732,372.016 124.824,372.016 124.824,352.602 129.917,352.602 129.917,333.122 135.010,333.122 135.010,313.874 140.103,313.874 140.103,295.112 145.196,295.112 145.196,277.047 150.289,277.047 150.289,259.851 155.382,259.851 155.382,243.661 160.475,243.661 160.475,228.580 165.567,228.580 165.567,214.680 170.660,214.680 170.660,202.005 175.753,202.005 175.753,190.577 180.846,190.577 180.846,180.394 185.939,180.394 185.939,171.437 191.032,171.437 191.032,163.673 196.125,163.673 196.125,157.053 201.218,157.053 201.218,151.520 206.311,151.520 206.311,147.007 211.403,147.007 211.403,143.442 216.496,143.442 216.496,140.748 221.589,140.748 221.589,138.847 226.682,138.847 226.682,137.658 231.775,137.658 231.775,137.103 236.868,137.103 236.868,137.102 241.961,137.102 241.961,137.581 247.054,137.581 247.054,138.467 252.146,138.467 252.146,139.690 257.239,139.690 257.239,141.188 262.332,141.188 262.332,142.900 267.425,142.900 267.425,144.772 272.518,144.772 272.518,146.754 277.611,146.754 277.611,148.802 282.704,148.802 282.704,150.876 287.797,150.876 287.797,152.943 292.890,152.943 292.890,154.972 297.982,154.972 297.982,156.939 303.075,156.939 303.075,158.823 308.168,158.823 308.168,160.607 313.261,160.607 313.261,162.279 318.354,162.279 318.354,163.829 323.447,163.829 323.447,165.251 328.540,165.251 328.540,166.541 333.633,166.541 333.633,167.699 338.725,167.699 338.725,168.724 343.818,168.724 343.818,169.620 348.911,169.620 348.911,170.391 354.004,170.391 354.004,171.043 359.097,171.043 359.097,171.583 364.190,171.583 364.190,172.017 369.283,172.017 369.283,172.354 374.376,172.354 374.376,172.602 379.468,172.602 379.468,172.769 384.561,172.769 384.561,172.865 389.654,172.865 389.654,172.896 394.747,172.896 394.747,172.872 399.840,172.872 399.840,172.801 404.933,172.801 404.933,172.690 410.026,172.690 410.026,172.546 415.119,172.546 415.119,172.375 420.212,172.375 420.212,172.185 425.304,172.185 425.304,171.979 430.397,171.979 430.397,171.765 435.490,171.765 435.490,171.545 440.583,171.545 440.583,171.324 445.676,171.324 445.676,171.105 450.769,171.105 450.769,170.892 455.862,170.892 455.862,170.686 460.955,170.686 460.955,170.490 466.047,170.490 466.047,170.305 471.140,170.305 471.140,170.133 476.233,170.133 476.233,169.974 481.326,169.974 481.326,169.829 486.419,169.829 486.419,169.698 491.512,169.698 491.512,169.581 496.605,169.581 496.605,169.478 501.698,169.478 501.698,169.389 506.791,169.389 506.791,169.312 511.883,169.312 511.883,169.248 516.976,169.248 516.976,169.196 522.069,169.196 522.069,169.155 527.162,169.155 527.162,169.123 532.255,169.123 532.255,169.101 537.348,169.101 537.348,169.086 542.441,169.086 542.441,169.079 547.534,169.079 547.534,169.079 552.626,169.079 552.626,169.084 557.719,169.084 557.719,169.093 562.812,169.093 562.812,169.107 567.905,169.107 567.905,169.123 572.998,169.123 572.998,169.143 578.091,169.143 578.091,169.164 583.184,169.164 583.184,169.186 588.277,169.186 588.277,169.209 593.370,169.209 593.370,169.233 598.462,169.233 598.462,169.256 603.555,169.256 603.555,169.279 608.648,169.279 608.648,169.302 613.741,169.302 613.741,169.323 618.834,169.323 618.834,169.343 623.927,169.343 623.927,169.363 629.020,169.363 629.020,169.380 634.113,169.380 634.113,169.397 639.205,169.397 639.205,169.411 644.298,169.411 644.298,169.425 649.391,169.425 649.391,169.436 654.484,169.436 654.484,169.447 659.577,169.447 659.577,169.456 664.670,169.456 664.670,169.463 669.763,169.463 669.763,169.469 674.856,169.469 674.856,169.474 679.949,169.474 679.949,169.478 685.041,169.478 685.041,169.481 690.134,169.481 690.134,169.483 695.227,169.483 695.227,169.484 700.320,169.484 700.320,169.485 705.413,169.485 705.413,169.485 710.506,169.485 710.506,169.484 715.599,169.484 715.599,169.483 720.692,169.483 720.692,169.481 725.784,169.481 725.784,169.479 730.877,169.479 730.877,169.477 735.970,169.477 735.970,169.475 741.063,169.475 741.063,169.472 746.156,169.472 746.156,169.470 751.249,169.470 751.249,169.467 756.342,169.467 756.342,169.465 6620746052855.767,169.465 6620746052855.767,169.446 "/>
<g>
</g>
</g>
</g><g id="ID000016" clip-path="url(#ID000001)" >
      <polyline fill="none" stroke="#000000" stroke-width="0.5pt" stroke-dasharray="2.0pt,2.0pt" points="-635999999999999910000000000000000000000000000000000000000000000000000000000000000000000000000000000000.000,169.446 -636000000000000090000000000000000000000000000000000000000000000000000000000000000000000000000000000.000,169.446 -635999999999999970000000000000000000000000000000000000000000000000000000000000000000000000000000.000,169.446 -635999999999999910000000000000000000000000000000000000000000000000000000000000000000000000000.000,169.446 -635999999999999960000000000000000000000000000000000000000000000000000000000000000000000000.000,169.446 -635999999999999990000000000000000000000000000000000000000000000000000000000000000000000.000,169.446 -635999999999999890000000000000000000000000000000000000000000000000000000000000000000.000,169.446 -636000000000000000000000000000000000000000000000000000000000000000000000000000000.000,169.446 -635999999999999840000000000000000000000000000000000000000000000000000000000000.000,169.446 -635999999999999820000000000000000000000000000000000000000000000000000000000.000,169.446 -635999999999999930000000000000000000000000000000000000000000000000000000.000,169.446 -635999999999999850000000000000000000000000000000000000000000000000000.000,169.446 -635999999999999930000000000000000000000000000000000000000000000000.000,169.446 -635999999999999920000000000000000000000000000000000000000000000.000,169.446 -635999999999999980000000000000000000000000000000000000000000.000,169.446 -636000000000000060000000000000000000000000000000000000000.000,169.446 -636000000000000040000000000000000000000000000000000000.000,169.446 -635999999999999870000000000000000000000000000000000.000,169.446 -635999999999999850000000000000000000000000000000.000,169.446 -635999999999999910000000000000000000000000000.000,169.446 -636000000000000040000000000000000000000000.000,169.446 -635999999999999950000000000000000000000.000,169.446 -635999999999999980000000000000000000.000,169.446 -635999999999999960000000000000000.000,169.446 -635999999999999970000000000000.000,169.446 -635999999999999880000000000.000,169.446 -636000000000000040000000.000,169.446 -636000000000000000000.000,169.446 -635999999999999870.000,169.446 -635999999999900.620,169.446 -635999999900.640,169.446 -635999900.640,169.446 -635900.640,169.446 -536.640,169.446 99.360,169.446 735.360,169.446 636099.360,169.446 636000099.360,169.446 636000000099.360,169.446 636000000000099.370,169.446 636000000000000000.000,169.446 636000000000000000000.000,169.446 636000000000000040000000.000,169.446 635999999999999880000000000.000,169.446 635999999999999970000000000000.000,169.446 635999999999999960000000000000000.000,169.446 635999999999999980000000000000000000.000,169.446 635999999999999950000000000000000000000.000,169.446 636000000000000040000000000000000000000000.000,169.446 635999999999999910000000000000000000000000000.000,169.446 635999999999999850000000000000000000000000000000.000,169.446 635999999999999870000000000000000000000000000000000.000,169.446 636000000000000040000000000000000000000000000000000000.000,169.446 636000000000000060000000000000000000000000000000000000000.000,169.446 635999999999999980000000000000000000000000000000000000000000.000,169.446 635999999999999920000000000000000000000000000000000000000000000.000,169.446 635999999999999930000000000000000000000000000000000000000000000000.000,169.446 635999999999999850000000000000000000000000000000000000000000000000000.000,169.446 635999999999999930000000000000000000000000000000000000000000000000000000.000,169.446 635999999999999820000000000000000000000000000000000000000000000000000000000.000,169.446 635999999999999840000000000000000000000000000000000000000000000000000000000000.000,169.446 636000000000000000000000000000000000000000000000000000000000000000000000000000000.000,169.446 635999999999999890000000000000000000000000000000000000000000000000000000000000000000.000,169.446 635999999999999990000000000000000000000000000000000000000000000000000000000000000000000.000,169.446 635999999999999960000000000000000000000000000000000000000000000000000000000000000000000000.000,169.446 635999999999999910000000000000000000000000000000000000000000000000000000000000000000000000000.000,169.446 635999999999999970000000000000000000000000000000000000000000000000000000000000000000000000000000.000,169.446 636000000000000090000000000000000000000000000000000000000000000000000000000000000000000000000000000.000,169.446 635999999999999910000000000000000000000000000000000000000000000000000000000000000000000000000000000000.000,169.446 "/>
<g>
</g>
</g>
<g id="ID000017" >
</g>
<g id="ID000018" >
</g>
    </g>
    <g>
      <polyline fill="none" stroke="#666666" stroke-width="0.5pt" stroke-dasharray="none" points="162.960,448.560 162.960,443.472 "/>
      <polyline fill="none" stroke="#666666" stroke-width="0.5pt" stroke-dasharray="none" points="226.560,448.560 226.560,443.472 "/>
      <polyline fill="none" stroke="#666666" stroke-width="0.5pt" stroke-dasharray="none" points="290.160,448.560 290.160,443.472 "/>
      <polyline fill="none" stroke="#666666" stroke-width="0.5pt" stroke-dasharray="none" points="353.760,448.560 353.760,443.472 "/>
      <polyline fill="none" stroke="#666666" stroke-width="0.5pt" stroke-dasharray="none" points="417.360,448.560 417.360,443.472 "/>
      <polyline fill="none" stroke="#666666" stroke-width="0.5pt" stroke-dasharray="none" points="480.960,448.560 480.960,443.472 "/>
      <polyline fill="none" stroke="#666666" stroke-width="0.5pt" stroke-dasharray="none" points="544.560,448.560 544.560,443.472 "/>
      <polyline fill="none" stroke="#666666" stroke-width="0.5pt" stroke-dasharray="none" points="99.360,448.560 608.160,448.560 "/>
      <polyline fill="none" stroke="#666666" stroke-width="0.5pt" stroke-dasharray="none" points="162.960,57.800 162.960,62.888 "/>
      <polyline fill="none" stroke="#666666" stroke-width="0.5pt" stroke-dasharray="none" points="226.560,57.800 226.560,62.888 "/>
      <polyline fill="none" stroke="#666666" stroke-width="0.5pt" stroke-dasharray="none" points="290.160,57.800 290.160,62.888 "/>
      <polyline fill="none" stroke="#666666" stroke-width="0.5pt" stroke-dasharray="none" points="353.760,57.800 353.760,62.888 "/>
      <polyline fill="none" stroke="#666666" stroke-width="0.5pt" stroke-dasharray="none" points="417.360,57.800 417.360,62.888 "/>
      <polyline fill="none" stroke="#666666" stroke-width="0.5pt" stroke-dasharray="none" points="480.960,57.800 480.960,62.888 "/>
      <polyline fill="none" stroke="#666666" stroke-width="0.5pt" stroke-dasharray="none" points="544.560,57.800 544.560,62.888 "/>
      <polyline fill="none" stroke="#666666" stroke-width="0.5pt" stroke-dasharray="none" points="99.360,57.800 608.160,57.800 "/>
  <g transform="translate(99.360,465.815)">
    <g transform="rotate(-0.0)">
      <text x="0.000" y="0.000" font-family="Helvetica" text-anchor="middle" font-size="8pt" fill="#666666" >0</text>
    </g>
  </g>
  <g transform="translate(162.960,465.815)">
    <g transform="rotate(-0.0)">
      <text x="0.000" y="0.000" font-family="Helvetica" text-anchor="middle" font-size="8pt" fill="#666666" >0.1</text>
    </g>
  </g>
  <g transform="translate(226.560,465.815)">
    <g transform="rotate(-0.0)">
      <text x="0.000" y="0.000" font-family="Helvetica" text-anchor="middle" font-size="8pt" fill="#666666" >0.2</text>
    </g>
  </g>
  <g transform="translate(290.160,465.815)">
    <g transform="rotate(-0.0)">
      <text x="0.000" y="0.000" font-family="Helvetica" text-anchor="middle" font-size="8pt" fill="#666666" >0.3</text>
    </g>
  </g>
  <g transform="translate(353.760,465.815)">
    <g transform="rotate(-0.0)">
      <text x="0.000" y="0.000" font-family="Helvetica" text-anchor="middle" font-size="8pt" fill="#666666" >0.4</text>
    </g>
  </g>
  <g transform="translate(417.360,465.815)">
    <g transform="rotate(-0.0)">
      <text x="0.000" y="0.000" font-family="Helvetica" text-anchor="middle" font-size="8pt" fill="#666666" >0.5</text>
    </g>
  </g>
  <g transform="translate(480.960,465.815)">
    <g transform="rotate(-0.0)">
      <text x="0.000" y="0.000" font-family="Helvetica" text-anchor="middle" font-size="8pt" fill="#666666" >0.6</text>
    </g>
  </g>
  <g transform="translate(544.560,465.815)">
    <g transform="rotate(-0.0)">
      <text x="0.000" y="0.000" font-family="Helvetica" text-anchor="middle" font-size="8pt" fill="#666666" >0.7</text>
    </g>
  </g>
  <g transform="translate(608.160,465.815)">
    <g transform="rotate(-0.0)">
      <text x="0.000" y="0.000" font-family="Helvetica" text-anchor="middle" font-size="8pt" fill="#666666" >0.8</text>
    </g>
  </g>
      <polyline fill="none" stroke="#666666" stroke-width="0.5pt" stroke-dasharray="none" points="99.360,392.737 104.448,392.737 "/>
      <polyline fill="none" stroke="#666666" stroke-width="0.5pt" stroke-dasharray="none" points="99.360,336.914 104.448,336.914 "/>
      <polyline fill="none" stroke="#666666" stroke-width="0.5pt" stroke-dasharray="none" points="99.360,281.091 104.448,281.091 "/>
      <polyline fill="none" stroke="#666666" stroke-width="0.5pt" stroke-dasharray="none" points="99.360,225.269 104.448,225.269 "/>
      <polyline fill="none" stroke="#666666" stroke-width="0.5pt" stroke-dasharray="none" points="99.360,169.446 104.448,169.446 "/>
      <polyline fill="none" stroke="#666666" stroke-width="0.5pt" stroke-dasharray="none" points="99.360,113.623 104.448,113.623 "/>
      <polyline fill="none" stroke="#666666" stroke-width="0.5pt" stroke-dasharray="none" points="99.360,448.560 99.360,57.800 "/>
      <polyline fill="none" stroke="#666666" stroke-width="0.5pt" stroke-dasharray="none" points="608.160,392.737 603.072,392.737 "/>
      <polyline fill="none" stroke="#666666" stroke-width="0.5pt" stroke-dasharray="none" points="608.160,336.914 603.072,336.914 "/>
      <polyline fill="none" stroke="#666666" stroke-width="0.5pt" stroke-dasharray="none" points="608.160,281.091 603.072,281.091 "/>
      <polyline fill="none" stroke="#666666" stroke-width="0.5pt" stroke-dasharray="none" points="608.160,225.269 603.072,225.269 "/>
      <polyline fill="none" stroke="#666666" stroke-width="0.5pt" stroke-dasharray="none" points="608.160,169.446 603.072,169.446 "/>
      <polyline fill="none" stroke="#666666" stroke-width="0.5pt" stroke-dasharray="none" points="608.160,113.623 603.072,113.623 "/>
      <polyline fill="none" stroke="#666666" stroke-width="0.5pt" stroke-dasharray="none" points="608.160,448.560 608.160,57.800 "/>
  <g transform="translate(89.184,452.160)">
    <g transform="rotate(-0.0)">
      <text x="0.000" y="0.000" font-family="Helvetica" text-anchor="end" font-size="8pt" fill="#666666" >0</text>
    </g>
  </g>
  <g transform="translate(89.184,396.337)">
    <g transform="rotate(-0.0)">
      <text x="0.000" y="0.000" font-family="Helvetica" text-anchor="end" font-size="8pt" fill="#666666" >0.2</text>
    </g>
  </g>
  <g transform="translate(89.184,340.514)">
    <g transform="rotate(-0.0)">
      <text x="0.000" y="0.000" font-family="Helvetica" text-anchor="end" font-size="8pt" fill="#666666" >0.4</text>
    </g>
  </g>
  <g transform="translate(89.184,284.691)">
    <g transform="rotate(-0.0)">
      <text x="0.000" y="0.000" font-family="Helvetica" text-anchor="end" font-size="8pt" fill="#666666" >0.6</text>
    </g>
  </g>
  <g transform="translate(89.184,228.869)">
    <g transform="rotate(-0.0)">
      <text x="0.000" y="0.000" font-family="Helvetica" text-anchor="end" font-size="8pt" fill="#666666" >0.8</text>
    </g>
  </g>
  <g transform="translate(89.184,173.046)">
    <g transform="rotate(-0.0)">
      <text x="0.000" y="0.000" font-family="Helvetica" text-anchor="end" font-size="8pt" fill="#666666" >1</text>
    </g>
  </g>
  <g transform="translate(89.184,117.223)">
    <g transform="rotate(-0.0)">
      <text x="0.000" y="0.000" font-family="Helvetica" text-anchor="end" font-size="8pt" fill="#666666" >1.2</text>
    </g>
  </g>
  <g transform="translate(89.184,61.400)">
    <g transform="rotate(-0.0)">
      <text x="0.000" y="0.000" font-family="Helvetica" text-anchor="end" font-size="8pt" fill="#666666" >1.4</text>
    </g>
  </g>
      <polyline fill="none" stroke="#000000" stroke-width="0.5pt" stroke-dasharray="none" points="99.360,448.560 99.360,444.652 "/>
      <polyline fill="none" stroke="#000000" stroke-width="0.5pt" stroke-dasharray="none" points="99.360,448.560 99.360,448.560 "/>
    </g>
  </g>
  <g id ="ID000019">
  <clipPath id="ID000020">
    <rect x="87.360" y="37.800" width="520.800" height="410.760"/>
  </clipPath>
    <g>
<g id="ID000021" >
  <g transform="translate(352.758,50.292)">
    <g transform="rotate(-0.0)">
      <text x="0.000" y="0.000" font-family="Helvetica" text-anchor="middle" font-size="8pt" fill="#000000" >Step Response</text>
    </g>
  </g>
</g>
<g id="ID000022" >
  <g transform="translate(352.758,484.643)">
    <g transform="rotate(-0.0)">
      <text x="0.000" y="0.000" font-family="Helvetica" text-anchor="middle" font-size="8pt" fill="#000000" >Time (seconds)</text>
    </g>
  </g>
</g>
<g id="ID000023" >
  <g transform="translate(65.867,256.172)">
    <g transform="rotate(-90.0)">
      <text x="0.000" y="0.000" font-family="Helvetica" text-anchor="middle" font-size="8pt" fill="#000000" >Amplitude</text>
    </g>
  </g>
</g>
    </g>
  </g>
  <g id ="ID000024">
  <clipPath id="ID000025">
    <rect x="456.778" y="66.556" width="144.667" height="80.861"/>
  </clipPath>
      <polygon fill="#ffffff" fill-opacity="1.00" stroke="none" stroke-width="0.5pt" stroke-opacity="1.00" stroke-dasharray="none" points="456.778,147.417 601.444,147.417 601.444,66.556 456.778,66.556 "/>
      <polygon fill="#ffffff" fill-opacity="1.00" stroke="none" stroke-width="0.5pt" stroke-opacity="1.00" stroke-dasharray="none" points="456.778,66.556 601.444,66.556 601.444,66.556 456.778,66.556 "/>
      <polygon fill="#ffffff" fill-opacity="1.00" stroke="none" stroke-width="0.5pt" stroke-opacity="1.00" stroke-dasharray="none" points="456.778,147.417 456.778,147.417 456.778,66.556 456.778,66.556 "/>
    <g>
<g id="ID000026" >
  <g transform="translate(520.572,82.790)">
    <g transform="rotate(-0.0)">
      <text x="0.000" y="0.000" font-family="Helvetica" text-anchor="start" font-size="8pt" fill="#000000" >malha aberta</text>
    </g>
  </g>
</g>
<g id="ID000027" clip-path="url(#ID000025)" >
<g id="ID000028" clip-path="url(#ID000025)" >
      <polyline fill="none" stroke="#0000ff" stroke-width="0.5pt" stroke-dasharray="none" points="466.444,78.778 514.778,78.778 "/>
<g>
</g>
</g>
</g><g id="ID000029" >
  <g transform="translate(520.572,101.995)">
    <g transform="rotate(-0.0)">
      <text x="0.000" y="0.000" font-family="Helvetica" text-anchor="start" font-size="8pt" fill="#000000" >continuo</text>
    </g>
  </g>
</g>
<g id="ID000030" clip-path="url(#ID000025)" >
<g id="ID000031" clip-path="url(#ID000025)" >
      <polyline fill="none" stroke="#00a500" stroke-width="0.5pt" stroke-dasharray="none" points="466.444,97.583 514.778,97.583 "/>
<g>
</g>
</g>
</g><g id="ID000032" >
  <g transform="translate(520.572,121.199)">
    <g transform="rotate(-0.0)">
      <text x="0.000" y="0.000" font-family="Helvetica" text-anchor="start" font-size="8pt" fill="#000000" >discreto 1</text>
    </g>
  </g>
</g>
<g id="ID000033" clip-path="url(#ID000025)" >
<g id="ID000034" clip-path="url(#ID000025)" >
      <polyline fill="none" stroke="#ff0000" stroke-width="0.5pt" stroke-dasharray="none" points="466.444,116.389 514.778,116.389 "/>
<g>
</g>
</g>
</g><g id="ID000035" >
  <g transform="translate(520.572,140.404)">
    <g transform="rotate(-0.0)">
      <text x="0.000" y="0.000" font-family="Helvetica" text-anchor="start" font-size="8pt" fill="#000000" >discreto 2</text>
    </g>
  </g>
</g>
<g id="ID000036" clip-path="url(#ID000025)" >
<g id="ID000037" clip-path="url(#ID000025)" >
      <polyline fill="none" stroke="#00bfbf" stroke-width="0.5pt" stroke-dasharray="none" points="466.444,135.194 514.778,135.194 "/>
<g>
</g>
</g>
</g><g id="ID000038" >
</g>
<g id="ID000039" >
</g>
<g id="ID000040" >
</g>
    </g>
    <g>
      <polyline fill="none" stroke="#000000" stroke-width="0.5pt" stroke-dasharray="none" points="456.778,147.417 601.444,147.417 "/>
      <polyline fill="none" stroke="#000000" stroke-width="0.5pt" stroke-dasharray="none" points="456.778,66.556 601.444,66.556 "/>
      <polyline fill="none" stroke="#000000" stroke-width="0.5pt" stroke-dasharray="none" points="456.778,147.417 456.778,66.556 "/>
      <polyline fill="none" stroke="#000000" stroke-width="0.5pt" stroke-dasharray="none" points="601.444,147.417 601.444,66.556 "/>
      <polyline fill="none" stroke="#000000" stroke-width="0.5pt" stroke-dasharray="none" points="456.778,147.417 456.778,146.608 "/>
      <polyline fill="none" stroke="#000000" stroke-width="0.5pt" stroke-dasharray="none" points="456.778,147.417 456.778,147.417 "/>
    </g>
  </g>
  </g>
</svg>
